<?xml version="1.0" standalone="no"?><!DOCTYPE svg PUBLIC "-//W3C//DTD SVG 1.1//EN" "http://www.w3.org/Graphics/SVG/1.1/DTD/svg11.dtd"><svg t="1717295072519" class="icon" viewBox="0 0 1024 1024" version="1.1" xmlns="http://www.w3.org/2000/svg" p-id="2704" xmlns:xlink="http://www.w3.org/1999/xlink" width="200" height="200"><path d="M960.7 737.8V98H64.5v639.8h384v127.8h-192v64h512.1v-64h-192V737.8h384.1zM128.5 162h768.2v511.8H128.5V162z" fill="#1196db" p-id="2705"></path><path d="M287.2 567c-7.9 0-15.7-2.9-21.9-8.7-12.9-12.1-13.5-32.4-1.4-45.2l141-150c11.2-11.9 29.6-13.5 42.6-3.6l123.6 93.3 142.4-158.2c11.8-13.1 32.1-14.2 45.2-2.4 13.1 11.8 14.2 32.1 2.4 45.2l-162 180c-11.1 12.3-29.8 14.1-43.1 4.1l-124.1-93.7-121.4 129.1c-6.3 6.7-14.8 10.1-23.3 10.1z" fill="#1196db" p-id="2706"></path></svg>