<?xml version="1.0" standalone="no"?><!DOCTYPE svg PUBLIC "-//W3C//DTD SVG 1.1//EN" "http://www.w3.org/Graphics/SVG/1.1/DTD/svg11.dtd" >
<svg xmlns="http://www.w3.org/2000/svg">
<defs>
    <font id="remixicon" horiz-adv-x="1200">
    <font-face font-family="remixicon"
      units-per-em="1200" ascent="1020"
      descent="180" />
    <missing-glyph horiz-adv-x="0" /><glyph glyph-name="bold"
            unicode="&#xEAD1;"
            horiz-adv-x="1200" d="M400 470H625C694.035 470 750 525.9645 750 595C750 664.0355 694.035 720 625 720H400V470zM900 245C900 120.735 799.265 20 675 20H300V820H625C749.265 820 850 719.264 850 595C850 534.7845 826.345 480.095 787.8199999999999 439.7100000000001C854.895 400.765 900 328.15 900 245zM400 370V120H675C744.035 120 800 175.9649999999999 800 245C800 314.035 744.035 370 675 370H400z" /><glyph glyph-name="italic"
            unicode="&#xEE6B;"
            horiz-adv-x="1200" d="M750 20H350V120H496.3305L602.125 720H450V820H850V720H703.67L597.875 120H750V20z" /><glyph glyph-name="text"
            unicode="&#xF201;"
            horiz-adv-x="1200" d="M650 745V-5H550V745H250V845H950V745H650z" /><glyph glyph-name="heading"
            unicode="&#xEE03;"
            horiz-adv-x="1200" d="M850 495V845H950V-5H850V395H350V-5H250V845H350V495H850z" /><glyph glyph-name="font-family"
            unicode="&#xF390;"
            horiz-adv-x="1200" d="M277.7034999999999 -55H170L550 895H650L1030 -55H922.2949999999998L802.2949999999998 245H397.7035L277.7034999999999 -55zM437.7035 345H762.2949999999998L600 750.7415000000001L437.7035 345z" /><glyph glyph-name="font-sans-serif"
            unicode="&#xF392;"
            horiz-adv-x="1200" d="M250 845H950V645H875C850 745 850 795 750 795H500V445H650C700 445 750 470 750 545H800V295H750C750 370 700 395 650 395H500V170C500 45 675 45 675 45V-5H250V45C350 70 350 120 350 170V670C350 720 350 770 250 795V845z" /><glyph glyph-name="font-sans"
            unicode="&#xF393;"
            horiz-adv-x="1200" d="M300 845H900V745H450V445H850V345H450V-5H300V845z" /><glyph glyph-name="font-mono"
            unicode="&#xF391;"
            horiz-adv-x="1200" d="M275 845H925V745H375V445H875V345H375V-5H275V845z" /><glyph glyph-name="font-color"
            unicode="&#xED8B;"
            horiz-adv-x="1200" d="M762.2950000000001 345H437.7035L357.7035 145H250L550 895H650L950 145H842.2950000000001L762.2950000000001 345zM722.295 445L600 750.742L477.7035 445H722.295zM150 45H1050V-55H150V45z" /><glyph glyph-name="font-size"
            unicode="&#xED8D;"
            horiz-adv-x="1200" d="M572.2950500000001 270H247.70305L147.70305 20H39.99995L360.00005 820H460.00005L780.00005 20H672.2950500000001L572.2950500000001 270zM532.29505 370L410.00005 675.742L287.70305 370H532.29505zM1060.0000499999999 393.245V420H1160.0000499999999V20H1060.0000499999999V46.755C1030.58505 29.74 996.43005 20 960.00005 20C849.5450500000001 20 760.00005 109.5450000000001 760.00005 220C760.00005 330.455 849.5450500000001 420 960.00005 420C996.43005 420 1030.58505 410.26 1060.0000499999999 393.245zM960.00005 120C1015.23005 120 1060.0000499999999 164.77 1060.0000499999999 220C1060.0000499999999 275.23 1015.23005 320 960.00005 320C904.7700499999999 320 860.00005 275.23 860.00005 220C860.00005 164.77 904.7700499999999 120 960.00005 120z" /><glyph glyph-name="underline"
            unicode="&#xF244;"
            horiz-adv-x="1200" d="M400 895V445C400 334.5450000000001 489.543 245 600 245C710.4549999999999 245 800 334.5450000000001 800 445V895H900V445C900 279.315 765.6850000000001 145 600 145C434.3145 145 300 279.315 300 445V895H400zM200 45H1000V-55H200V45z" /><glyph glyph-name="overline"
            unicode="&#xF34C;"
            horiz-adv-x="1200" d="M762.2950000000001 145H437.7035L357.7035 -55H250L550 695H650L950 -55H842.2950000000001L762.2950000000001 145zM722.295 245L600 550.742L477.7035 245H722.295zM200 895H1000V795H200V895z" /><glyph glyph-name="strikethrough"
            unicode="&#xF1AB;"
            horiz-adv-x="1200" d="M857.69 320C869.2299999999999 294.1950000000001 875 265.535 875 234.02C875 166.875 848.81 114.4200000000001 796.43 76.65C744.0450000000001 38.885 671.6750000000001 20 579.31 20C497.337 20 416.1675 39.0749999999999 335.796 77.225V189.9550000000001C411.769 146.0849999999999 489.54 124.1499999999999 569.11 124.1499999999999C696.665 124.1499999999999 760.64 160.77 761.0400000000001 234.02C761.0400000000001 265.3050000000001 750.245 292.01 728.655 314.135C726.6949999999999 316.14 724.695 318.0950000000001 722.655 320H150V420H1050V320H857.69zM653.8000000000001 470H381.454C372.83 477.835 364.808 486.54 357.388 496.11C335.796 523.958 325 557.7205 325 597.3965C325 659.199 348.2915000000001 711.75 394.8745 755.05C441.458 798.3505 513.53 820 611.095 820C684.6700000000001 820 755.045 803.596 822.22 770.787V663.2045C762.24 697.5395000000001 696.465 714.7065 624.89 714.7065C500.9350000000001 714.7065 438.9585 675.6034999999999 438.9585 597.3965C438.9585 576.414 449.8545000000001 558.1020000000001 471.6465000000001 542.4605C493.439 526.819 520.3299999999999 514.325 552.315 504.98C583.3249999999999 495.92 617.155 484.26 653.8000000000001 470H653.8000000000001z" /><glyph glyph-name="list-ordered"
            unicode="&#xEEBB;"
            horiz-adv-x="1200" d="M400 820H1050V720H400V820zM250 870V720H300V670H150V720H200V820H150V870H250zM150 320V445H250V470H150V520H300V395H200V370H300V320H150zM250 45H150V95H250V120H150V170H300V-30H150V20H250V45zM400 470H1050V370H400V470zM400 120H1050V20H400V120z" /><glyph glyph-name="list-unordered"
            unicode="&#xEEBE;"
            horiz-adv-x="1200" d="M400 817.5H1050V717.5H400V817.5zM225 692.5C183.5785 692.5 150 726.0785000000001 150 767.5C150 808.9214999999999 183.5785 842.5 225 842.5C266.4215 842.5 300 808.9214999999999 300 767.5C300 726.0785000000001 266.4215 692.5 225 692.5zM225 342.5C183.5785 342.5 150 376.08 150 417.5C150 458.9199999999999 183.5785 492.4999999999999 225 492.4999999999999C266.4215 492.4999999999999 300 458.9199999999999 300 417.5C300 376.08 266.4215 342.5 225 342.5zM225 -2.4999999999999C183.5785 -2.4999999999999 150 31.0799999999999 150 72.5000000000001C150 113.9199999999999 183.5785 147.5000000000001 225 147.5000000000001C266.4215 147.5000000000001 300 113.9199999999999 300 72.5000000000001C300 31.0799999999999 266.4215 -2.4999999999999 225 -2.4999999999999zM400 467.4999999999999H1050V367.5H400V467.4999999999999zM400 117.5H1050V17.4999999999999H400V117.5z" /><glyph glyph-name="code-view"
            unicode="&#xEBAE;"
            horiz-adv-x="1200" d="M847.4894250000001 596.7775L918.1994250000002 667.4885L1165.684425 420.0015L918.1994250000002 172.5115L847.4894250000001 243.2264999999999L1024.2644249999998 420.0015L847.4894250000001 596.7775zM352.5134250000001 596.7775L175.7369250000001 420.0015L352.5134250000001 243.2264999999999L281.8029250000001 172.5115L34.3155750000001 420.0015L281.8029250000001 667.4885L352.5134250000001 596.7775z" /><glyph glyph-name="paragraph"
            unicode="&#xEFC8;"
            horiz-adv-x="1200" d="M600 745V-5H500V245C334.3145 245 200 379.315 200 545C200 710.6855 334.3145 845 500 845H1000V745H850V-5H750V745H600zM500 745C389.543 745 300 655.457 300 545C300 434.5450000000001 389.543 345 500 345V745z" /><glyph glyph-name="quote-text"
            unicode="&#xF3A2;"
            horiz-adv-x="1200" d="M1050 820H150V720H1050V820zM1050 470H400V370H1050V470zM1050 120H400V20H1050V120zM250 470H150V20H250V470z" /><glyph glyph-name="h-1"
            unicode="&#xEDE6;"
            horiz-adv-x="1200" d="M674.9875000000001 20H574.9875000000001V370H224.9875000000001V20H124.9875000000001V820H224.9875000000001V470H574.9875000000001V820H674.9875000000001V20zM1075.0124999999998 620V20H975.0125L974.9875 509.8L874.9875000000001 483V586.5L1000.0125 620H1075.0124999999998z" /><glyph glyph-name="h-2"
            unicode="&#xEDE7;"
            horiz-adv-x="1200" d="M193.75 820V470H543.75V820H643.75V20H543.75V370H193.75V20H93.75V820H193.75zM918.75 620C1022.305 620 1106.25 536.0535 1106.25 432.5C1106.25 389.63 1091.865 350.12 1067.655 318.5400000000001L1060.26 309.49L895.4650000000001 120H1093.75V20H743.75L743.715 97.8000000000001L984.785 375.0950000000001C998.155 390.4600000000001 1006.25 410.5350000000001 1006.25 432.5C1006.25 480.825 967.075 520 918.75 520C872.84 520 835.19 484.645 831.5400000000001 439.675L831.25 432.5H731.25C731.25 536.0535 815.1949999999999 620 918.75 620z" /><glyph glyph-name="h-3"
            unicode="&#xEDE8;"
            horiz-adv-x="1200" d="M1093.75 626.25L1093.67 526.25L968.42 382.1C1047.865 360.33 1106.25 287.61 1106.25 201.25C1106.25 97.6949999999999 1022.305 13.75 918.75 13.75C827.4499999999999 13.75 751.39 79.005 734.6700000000001 165.4200000000001L832.855 184.49C840.6700000000001 144.185 876.155 113.75 918.75 113.75C967.075 113.75 1006.25 152.925 1006.25 201.25C1006.25 249.5750000000001 967.075 288.75 918.75 288.75C904.45 288.75 890.9499999999999 285.3200000000001 879.03 279.235L813.71 356.5900000000001L961.17 526.25H743.75V626.25H1093.75zM193.75 826.25V476.25H543.75V826.25H643.75V26.25H543.75V376.25H193.75V26.25H93.75V826.25H193.75z" /><glyph glyph-name="h-4"
            unicode="&#xEDE9;"
            horiz-adv-x="1200" d="M612.5 20H512.5V370H162.5V20H62.5V820H162.5V470H512.5V820H612.5V20zM1062.5 620V220H1137.5V120H1062.5V20H962.5V120H687.5V187L937.5 620H1062.5zM962.5 463.35L822.0000000000001 220H962.5V463.35z" /><glyph glyph-name="h-5"
            unicode="&#xEDEA;"
            horiz-adv-x="1200" d="M1093.75 632.5V532.5H877.595L854.3799999999999 400.7100000000001C870.9250000000001 405.14 888.3100000000001 407.5 906.25 407.5C1016.705 407.5 1106.25 317.955 1106.25 207.5C1106.25 97.0450000000001 1016.705 7.5 906.25 7.5C814.9150000000001 7.5 737.885 68.7199999999999 713.945 152.365L810.105 179.905C822.085 138.0949999999999 860.595 107.5 906.25 107.5C961.48 107.5 1006.25 152.27 1006.25 207.5C1006.25 262.73 961.48 307.5 906.25 307.5C874.7199999999999 307.5 846.5999999999999 292.91 828.27 270.11L737.765 315.3050000000001L793.75 632.5H1093.75zM193.75 832.5V482.5H543.75V832.5H643.75V32.5H543.75V382.5H193.75V32.5H93.75V832.5H193.75z" /><glyph glyph-name="h-6"
            unicode="&#xEDEB;"
            horiz-adv-x="1200" d="M1042.3500000000001 632.5L912.45 407.5C1022.955 407.5 1112.5 317.955 1112.5 207.5C1112.5 97.0450000000001 1022.955 7.5 912.5 7.5C802.0450000000001 7.5 712.5 97.0450000000001 712.5 207.5C712.5 244.32 722.45 278.815 739.805 308.4450000000001L926.9 632.5H1042.3500000000001zM187.5 832.5V482.5H537.5V832.5H637.5V32.5H537.5V382.5H187.5V32.5H87.5V832.5H187.5zM912.5 307.5C857.27 307.5 812.5 262.73 812.5 207.5C812.5 152.27 857.27 107.5 912.5 107.5C967.73 107.5 1012.5 152.27 1012.5 207.5C1012.5 262.73 967.73 307.5 912.5 307.5z" /><glyph glyph-name="slash-commands"
            unicode="&#xF3A5;"
            horiz-adv-x="1200" d="M150 870H250V670H150V870zM489.4195 -30H383.0015L710.5749999999999 870H816.99L489.4195 -30zM1050 870H950V670H1050V870z" /><glyph glyph-name="formula"
            unicode="&#xF4DD;"
            horiz-adv-x="1200" d="M497.2674999999999 920C386.8105 920 297.2675 830.457 297.2675 720V570H147.2674999999999V470H297.2675V120C297.2675 64.77 252.4959999999999 20 197.2674999999999 20H147.2674999999999V-80H197.2674999999999C307.7244999999999 -80 397.2675 9.5450000000001 397.2675 120V470H547.2674999999999V570H397.2675V720C397.2675 775.2284999999999 442.0389999999999 820 497.2674999999999 820H547.2674999999999V920H497.2674999999999zM757.3774999999999 170.145L591.8025 -30H721.5874999999999L822.2674999999999 91.705L922.9524999999998 -30H1052.7325L887.1624999999999 170.145L1052.4975 370H922.7125L822.2674999999999 248.5850000000001L721.8274999999999 370H592.0424999999999L757.3774999999999 170.145z" /><glyph glyph-name="square-root"
            unicode="&#xF514;"
            horiz-adv-x="1200" d="M769.1 850.9025H1100V750.9025H830.9L450 -10.9025L269.0985 350.9025000000001H100V450.9025H330.9015L450 212.7075000000001L769.1 850.9025z" /><glyph glyph-name="sketching"
            unicode="&#xF35F;"
            horiz-adv-x="1200" d="M501.7768276212194 620.9231187436935C419.2378276212193 527.8581187436935 325.6618276212194 393.6141187436936 244.7243276212193 231.7391187436934C232.3748276212193 207.0391187436935 202.3408276212193 197.0291187436935 177.6423276212193 209.3791187436934C152.9433276212193 221.7291187436934 142.9318276212193 251.7641187436934 155.2813276212193 276.4591187436935C239.8613276212193 445.6191187436935 338.2388276212194 587.2386187436935 426.9633276212193 687.2766187436936C471.2468276212193 737.2071187436935 513.9768276212193 777.7431187436935 552.2368276212193 806.2586187436935C571.3518276212192 820.5091187436934 590.2368276212193 832.4211187436935 608.3768276212193 840.9461187436935C625.9568276212192 849.2071187436935 646.0418276212192 855.8241187436935 666.6718276212193 855.8241187436935C677.4718276212193 855.8241187436935 689.3518276212193 853.1491187436935 700.3418276212193 846.0861187436934C711.1568276212192 839.1386187436934 718.1368276212193 829.8616187436935 722.4668276212193 821.2826187436934C730.3218276212193 805.7166187436934 731.1918276212193 789.0876187436935 730.9968276212193 777.8551187436934C730.5818276212193 753.9986187436936 724.2268276212193 724.1841187436935 716.0718276212193 693.8366187436935C699.3618276212193 631.6651187436935 669.9618276212193 549.2721187436935 640.7368276212193 467.9391187436935L636.6368276212193 456.5341187436935C608.3468276212193 377.8341187436935 580.4968276212193 300.3591187436936 562.3918276212192 238.4941187436934C557.5168276212192 221.8241187436935 553.5218276212194 206.8641187436934 550.4618276212193 193.7541187436935C585.1668276212192 221.6491187436934 627.8968276212192 263.5541187436935 673.2918276212192 308.1541187436935L674.7718276212192 309.6091187436935C718.8518276212193 352.9191187436935 765.4818276212193 398.7341187436935 804.8268276212192 430.1891187436935C824.3518276212194 445.7941187436935 845.4018276212194 460.6241187436934 865.6818276212193 469.2141187436935C882.7118276212192 476.4341187436935 921.7068276212194 488.1641187436935 952.0268276212194 457.8441187436935C971.2468276212192 438.6241187436936 976.5818276212194 413.6341187436936 977.9618276212192 395.0041187436935C979.4068276212192 375.5041187436935 977.1368276212193 354.4891187436935 973.6168276212192 334.5191187436936C966.5668276212192 294.5341187436935 952.4068276212193 247.8741187436934 939.4618276212192 205.7791187436934L937.3818276212194 199.0241187436935C925.8168276212194 161.4541187436935 915.5018276212191 127.9391187436935 909.6218276212192 100.9991187436935C922.6368276212193 114.0641187436935 938.6618276212192 134.7441187436934 957.3668276212192 165.2741187436935C971.7918276212192 188.8241187436935 1002.5768276212194 196.2191187436934 1026.1218276212194 181.7941187436935C1049.6668276212192 167.3691187436934 1057.0618276212192 136.5841187436936 1042.6368276212193 113.0391187436935C1015.4868276212192 68.7141187436934 987.3918276212194 32.7141187436934 957.5868276212192 10.3641187436935C926.4068276212193 -13.0258812563065 885.5968276212193 -26.2108812563064 844.3068276212192 -5.5658812563064C813.8868276212193 9.6491187436934 806.9818276212193 39.9591187436934 805.4468276212193 56.7291187436934C803.7868276212193 74.8641187436935 806.4118276212192 94.6591187436935 809.8868276212193 112.4891187436934C816.4318276212193 146.1041187436934 829.1368276212193 187.3341187436933 841.1418276212192 226.2891187436935L843.8768276212193 235.1791187436935C857.2268276212193 278.5691187436935 869.3568276212193 319.1241187436935 875.1318276212193 351.8791187436935C875.5768276212193 354.4041187436935 875.9718276212193 356.8141187436935 876.3218276212192 359.1191187436935C873.4768276212193 356.9741187436935 870.4618276212193 354.6291187436936 867.2668276212194 352.0791187436935C832.3768276212193 324.1841187436935 789.2418276212193 281.8841187436936 743.3768276212193 236.8241187436935L741.8968276212194 235.3691187436934C697.8218276212193 192.0641187436934 651.1918276212192 146.2491187436934 611.8468276212193 114.7941187436935C592.3218276212193 99.1841187436935 571.2668276212192 84.3591187436934 550.9918276212193 75.7641187436935C533.9618276212192 68.5491187436935 494.9653276212193 56.8191187436935 464.6473276212193 87.1341187436935C449.2068276212193 102.5741187436933 445.2518276212194 122.0591187436935 443.9778276212194 133.9141187436935C442.5668276212193 147.0491187436935 443.4423276212193 160.9691187436936 445.1263276212193 174.0691187436934C448.5218276212193 200.4791187436934 456.4588276212193 232.5441187436935 466.4193276212193 266.5791187436935C485.4063276212192 331.4641187436935 514.2018276212193 411.5641187436935 542.0468276212193 489.0141187436935L546.6268276212193 501.7541187436935C576.3068276212193 584.3586187436935 604.0918276212193 662.4541187436935 619.4968276212193 719.7871187436934C620.8518276212193 724.8401187436936 622.0818276212193 729.6066187436935 623.1818276212193 734.0901187436934C619.6118276212193 731.6436187436935 615.8818276212193 728.9766187436934 611.9968276212193 726.0796187436935C580.8568276212193 702.8706187436934 543.1268276212193 667.5446187436934 501.7768276212194 620.9231187436935z" /><glyph glyph-name="draggable"
            unicode="&#xF38F;"
            horiz-adv-x="1200" d="M425 670C466.4215 670 500 703.5785000000001 500 745C500 786.4215 466.4215 820 425 820C383.5785 820 350 786.4215 350 745C350 703.5785000000001 383.5785 670 425 670zM425 345C466.4215 345 500 378.5800000000001 500 420C500 461.42 466.4215 495 425 495C383.5785 495 350 461.42 350 420C350 378.5800000000001 383.5785 345 425 345zM500 95C500 53.58 466.4215 20 425 20C383.5785 20 350 53.58 350 95C350 136.42 383.5785 170 425 170C466.4215 170 500 136.42 500 95zM775 670C816.42 670 850 703.5785000000001 850 745C850 786.4215 816.42 820 775 820C733.58 820 700 786.4215 700 745C700 703.5785000000001 733.58 670 775 670zM850 420C850 378.5800000000001 816.42 345 775 345C733.58 345 700 378.5800000000001 700 420C700 461.42 733.58 495 775 495C816.42 495 850 461.42 850 420zM775 20C816.42 20 850 53.58 850 95C850 136.42 816.42 170 775 170C733.58 170 700 136.42 700 95C700 53.58 733.58 20 775 20z" /><glyph glyph-name="table-view"
            unicode="&#xF46C;"
            horiz-adv-x="1200" d="M150 870C122.386 870 100 847.614 100 820V20C100 -7.615 122.386 -30 150 -30H1050C1077.615 -30 1100 -7.615 1100 20V820C1100 847.614 1077.615 870 1050 870H150zM400 770V620H200V770H400zM200 320V520H400V320H200zM200 220H400V70H200V220zM500 220H1000V70H500V220zM1000 320H500V520H1000V320zM1000 770V620H500V770H1000z" /><glyph glyph-name="list-view"
            unicode="&#xF44C;"
            horiz-adv-x="1200" d="M100 820C100 847.614 122.386 870 150 870H1050C1077.615 870 1100 847.614 1100 820V20C1100 -7.615 1077.615 -30 1050 -30H150C122.386 -30 100 -7.615 100 20V820zM200 770V70H1000V770H200zM300 670H400V570H300V670zM400 470H300V370H400V470zM300 270H400V170H300V270zM900 670H500V570H900V670zM500 270H900V170H500V270zM900 470H500V370H900V470z" /><glyph glyph-name="code-block"
            unicode="&#xF42D;"
            horiz-adv-x="1200" d="M206.06455 702.32375L320.7095500000001 816.9682500000001L249.9985500000001 887.67875L64.64345 702.32375L249.9985500000001 516.9682499999999L320.7095500000001 587.67875L206.06455 702.32375zM514.64355 702.32375L399.9985500000001 816.9682500000001L470.70955 887.67875L656.06655 702.32375L470.70955 516.9682499999999L399.9985500000001 587.67875L514.64355 702.32375zM735.35655 852.32375H1085.35655C1112.9665499999999 852.32375 1135.35655 829.93775 1135.35655 802.32375V2.32125C1135.35655 -25.2887499999999 1112.9665499999999 -47.67875 1085.35655 -47.67875H185.35405C157.7400500000001 -47.67875 135.35405 -25.2887499999999 135.35405 2.32125V402.32125H235.3540500000001V52.32125H1035.35655V752.32375H735.35655V852.32375z" /><glyph glyph-name="list-check"
            unicode="&#xEEBA;"
            horiz-adv-x="1200" d="M400 820H1050V720H400V820zM150 845H300V695H150V845zM150 495H300V345H150V495zM150 145H300V-5H150V145zM400 470H1050V370H400V470zM400 120H1050V20H400V120z" /><glyph glyph-name="separator"
            unicode="&#xF0DE;"
            horiz-adv-x="1200" d="M100 470H200V370H100V470zM300 470H900V370H300V470zM1000 470H1100V370H1000V470z" /><glyph glyph-name="text-wrap"
            unicode="&#xF200;"
            horiz-adv-x="1200" d="M750 170H825C894.0350000000001 170 950 225.9649999999999 950 295C950 364.035 894.0350000000001 420 825 420H150V520H825C949.265 520 1050 419.265 1050 295C1050 170.735 949.265 70 825 70H750V-30L550 120L750 270V170zM150 870H1050V770H150V870zM450 170V70H150V170H450z" /><glyph glyph-name="arrow-right-s-line"
            unicode="&#xEA6E;"
            horiz-adv-x="1200" d="M653.0345 419.9980000000001L405.5455000000001 667.4865000000001L476.2565 738.197L794.4545 419.9980000000001L476.2565 101.803L405.5455000000001 172.5130000000002L653.0345 419.9980000000001z" /><glyph glyph-name="search-line"
            unicode="&#xF0D1;"
            horiz-adv-x="1200" d="M893.7075 197.0025L1107.8425 -17.1324999999999L1037.1325 -87.8425L822.9975000000001 126.2925C746.0025 64.6924999999999 648.3575000000001 27.8425 542.1575 27.8425C293.7575000000001 27.8425 92.1575 229.4425 92.1575 477.8425C92.1575 726.2425 293.7575000000001 927.8425 542.1575 927.8425C790.5575 927.8425 992.1575 726.2425 992.1575 477.8425C992.1575 371.6425 955.3075000000002 273.9975 893.7075 197.0025zM793.3925 234.1025C854.5324999999999 297.1125 892.1575 383.0625 892.1575 477.8425C892.1575 671.2175 735.5325 827.8425 542.1575 827.8425C348.7825000000001 827.8425 192.1575 671.2175 192.1575 477.8425C192.1575 284.4675 348.7825000000001 127.8425 542.1575 127.8425C636.9375 127.8425 722.8875 165.4675000000001 785.8975 226.6075L793.3925 234.1025z" /><glyph glyph-name="book-open-line"
            unicode="&#xEADB;"
            horiz-adv-x="1200" d="M650 20V-80H550V20H150C122.386 20 100 42.385 100 70V870C100 897.614 122.386 920 150 920H450C509.735 920 563.355 893.8125 600 852.2909999999999C636.645 893.8125 690.265 920 750 920H1050C1077.615 920 1100 897.614 1100 870V70C1100 42.385 1077.615 20 1050 20H650zM1000 120V820H750C694.77 820 650 775.2284999999999 650 720V120H1000zM550 120V720C550 775.2284999999999 505.23 820 450 820H200V120H550z" /><glyph glyph-name="hashtag"
            unicode="&#xEDFC;"
            horiz-adv-x="1200" d="M389.214 320L410.235 520H200V620H420.7455000000001L447.0215 870H547.5699999999999L521.2950000000001 620H720.745L747.02 870H847.5699999999999L821.295 620H1000V520H810.7849999999999L789.765 320H1000V220H779.255L752.98 -30H652.4300000000001L678.7049999999999 220H479.2545L452.9785000000001 -30H352.4275L378.7035 220H200V320H389.214zM489.765 320H689.215L710.235 520H510.785L489.765 320z" /><glyph glyph-name="home-8-line"
            unicode="&#xEE25;"
            horiz-adv-x="1200" d="M950 -71.2140625000001H250C222.386 -71.2140625000001 200 -48.8290625000001 200 -21.2140625000001V428.7859375L50 428.7859375L566.365 898.2109374999999C585.4350000000001 915.5484375 614.5649999999999 915.5484375 633.635 898.2109374999999L1150 428.7859375L1000 428.7859375V-21.2140625000001C1000 -48.8290625000001 977.6149999999998 -71.2140625000001 950 -71.2140625000001zM300 28.7859374999999H900V520.9134374999999L600 793.6409375L300 520.9134374999999V28.7859374999999zM450 478.7869374999999H750V178.7859374999999H450V478.7869374999999zM550 378.7859375V278.7859375H650V378.7859375H550z" /><glyph glyph-name="circle-line"
            unicode="&#xF3C2;"
            horiz-adv-x="1200" d="M600 -80C323.8575 -80 100 143.86 100 420C100 696.1424999999999 323.8575 920 600 920C876.14 920 1100 696.1424999999999 1100 420C1100 143.86 876.14 -80 600 -80zM600 20C820.915 20 1000 199.085 1000 420C1000 640.914 820.915 820 600 820C379.086 820 200 640.914 200 420C200 199.085 379.086 20 600 20z" /><glyph glyph-name="corner-down-left-line"
            unicode="&#xF307;"
            horiz-adv-x="1200" d="M1000.00375 329.1042500000001L1000.00875 779.09925L900.00875 779.1007500000001L900.0037500000001 429.1042500000001L391.41375 429.0992500000001L588.8987500000001 626.58725L518.1892500000001 697.29775L199.99125 379.0992500000001L518.1892500000001 60.89925L588.8987500000001 131.61425L391.41125 329.0992500000001L1000.00375 329.1042500000001z" /><glyph glyph-name="arrow-down-s-line"
            unicode="&#xEA4E;"
            horiz-adv-x="1200" d="M599.99775 366.9695L847.48775 614.4555L918.19775 543.745L599.99775 225.5445L281.80225 543.745L352.51275 614.4555L599.99775 366.9695z" /><glyph glyph-name="arrow-down-line"
            unicode="&#xEA4C;"
            horiz-adv-x="1200" d="M649.9994999999999 211.42L918.1995 479.62L988.9095 408.91L599.9994999999999 20L211.0905 408.91L281.8015 479.62L549.9994999999999 211.42V820H649.9994999999999V211.42z" /><glyph glyph-name="arrow-up-line"
            unicode="&#xEA76;"
            horiz-adv-x="1200" d="M649.9994999999999 628.5785000000001V20H549.9994999999999V628.5785000000001L281.8015 360.38L211.0905 431.0900000000001L599.9994999999999 820L988.9095 431.0900000000001L918.1995 360.38L649.9994999999999 628.5785000000001z" /><glyph glyph-name="arrow-up-s-line"
            unicode="&#xEA78;"
            horiz-adv-x="1200" d="M599.99775 473.035L352.51275 225.545L281.80225 296.255L599.99775 614.4549999999999L918.19775 296.255L847.48775 225.545L599.99775 473.035z" /><glyph glyph-name="close-line"
            unicode="&#xEB99;"
            horiz-adv-x="1200" d="M599.999 490.7080000000001L847.489 738.197L918.199 667.4865000000001L670.7090000000001 419.9980000000001L918.199 172.5130000000002L847.489 101.803L599.999 349.288L352.512 101.803L281.801 172.5130000000002L529.289 419.9980000000001L281.801 667.4865000000001L352.512 738.197L599.999 490.7080000000001z" /><glyph glyph-name="robot-2-line"
            unicode="&#xF3D9;"
            horiz-adv-x="1200" d="M675 857.5C675 835.2875 665.345 815.3305 650 801.5975V707.5H900C982.845 707.5 1050 640.3425 1050 557.5V57.5C1050 -25.345 982.845 -92.5 900 -92.5H300C217.1575 -92.5 150 -25.345 150 57.5V557.5C150 640.3425 217.1575 707.5 300 707.5H550V801.5975C534.655 815.3305 525 835.2875 525 857.5C525 898.9215 558.58 932.5 600 932.5C641.42 932.5 675 898.9215 675 857.5zM300 607.5C272.386 607.5 250 585.114 250 557.5V57.5C250 29.8850000000001 272.386 7.5 300 7.5H900C927.6149999999998 7.5 950 29.8850000000001 950 57.5V557.5C950 585.114 927.6149999999998 607.5 900 607.5H650H550H300zM100 457.5H0V157.5H100V457.5zM1100 457.5H1200V157.5H1100V457.5zM450 232.5C491.4215 232.5 525 266.0800000000001 525 307.5C525 348.92 491.4215 382.5 450 382.5C408.5785 382.5 375 348.92 375 307.5C375 266.0800000000001 408.5785 232.5 450 232.5zM750 232.5C791.42 232.5 825 266.0800000000001 825 307.5C825 348.92 791.42 382.5 750 382.5C708.58 382.5 675 348.92 675 307.5C675 266.0800000000001 708.58 232.5 750 232.5z" /><glyph glyph-name="robot-3-line"
            unicode="&#xF41A;"
            horiz-adv-x="1200" d="M550 945V895H350C267.1575 895 200 827.8425 200 745V595C200 456.9299999999999 311.929 345 450 345H750C888.0699999999999 345 1000 456.9299999999999 1000 595V745C1000 827.8425 932.845 895 850 895H650V945H550zM300 745C300 772.614 322.386 795 350 795H850C877.6149999999999 795 900 772.614 900 745V595C900 512.1575 832.845 445 750 445H450C367.1575 445 300 512.1575 300 595V745zM475 545C516.42 545 550 578.5785 550 620C550 661.4214999999999 516.42 695 475 695C433.5785 695 400 661.4214999999999 400 620C400 578.5785 433.5785 545 475 545zM725 545C766.42 545 800 578.5785 800 620C800 661.4214999999999 766.42 695 725 695C683.58 695 650 661.4214999999999 650 620C650 578.5785 683.58 545 725 545zM300 -105C300 60.6850000000001 434.3145 195 600 195C765.6850000000001 195 900 60.6850000000001 900 -105H1000C1000 115.915 820.915 295 600 295C379.086 295 200 115.915 200 -105H300z" /><glyph glyph-name="robot-2-fill"
            unicode="&#xF3D8;"
            horiz-adv-x="1200" d="M675 857.5C675 835.2875 665.345 815.3305 650 801.5975V707.5H900C982.845 707.5 1050 640.3425 1050 557.5V57.5C1050 -25.345 982.845 -92.5 900 -92.5H300C217.1575 -92.5 150 -25.345 150 57.5V557.5C150 640.3425 217.1575 707.5 300 707.5H550V801.5975C534.655 815.3305 525 835.2875 525 857.5C525 898.9215 558.58 932.5 600 932.5C641.42 932.5 675 898.9215 675 857.5zM0 457.5H100V157.5H0V457.5zM1200 457.5H1100V157.5H1200V457.5zM450 232.5C491.4215 232.5 525 266.0800000000001 525 307.5C525 348.92 491.4215 382.5 450 382.5C408.5785 382.5 375 348.92 375 307.5C375 266.0800000000001 408.5785 232.5 450 232.5zM825 307.5C825 348.92 791.42 382.5 750 382.5C708.58 382.5 675 348.92 675 307.5C675 266.0800000000001 708.58 232.5 750 232.5C791.42 232.5 825 266.0800000000001 825 307.5z" /><glyph glyph-name="robot-3-fill"
            unicode="&#xF419;"
            horiz-adv-x="1200" d="M850 895H650V945H550V895H350C267.1575 895 200 827.8425 200 745V595C200 456.9299999999999 311.929 345 450 345H750C888.0699999999999 345 1000 456.9299999999999 1000 595V745C1000 827.8425 932.845 895 850 895zM550 620C550 578.5785 516.42 545 475 545C433.5785 545 400 578.5785 400 620C400 661.4214999999999 433.5785 695 475 695C516.42 695 550 661.4214999999999 550 620zM800 620C800 578.5785 766.42 545 725 545C683.58 545 650 578.5785 650 620C650 661.4214999999999 683.58 695 725 695C766.42 695 800 661.4214999999999 800 620zM200 -105C200 115.915 379.086 295 600 295C820.915 295 1000 115.915 1000 -105H200z" /><glyph glyph-name="book-2-fill"
            unicode="&#xEAD2;"
            horiz-adv-x="1200" d="M1050 120H300C272.386 120 250 97.6149999999999 250 70C250 42.3850000000001 272.386 20 300 20H1050V-80H300C217.1575 -80 150 -12.845 150 70V820C150 875.2284999999999 194.7715 920 250 920H1050V120zM800 570V670H400V570H800z" /><glyph glyph-name="book-2-line"
            unicode="&#xEAD3;"
            horiz-adv-x="1200" d="M1050 120H300C272.386 120 250 97.6149999999999 250 70C250 42.3850000000001 272.386 20 300 20H1050V-80H300C217.1575 -80 150 -12.845 150 70V820C150 875.2284999999999 194.7715 920 250 920H1050V120zM250 217.5C258.078 219.1400000000001 266.4385 220 275 220H950V820H250V217.5zM800 570H400V670H800V570z" /><glyph glyph-name="book-shelf-line"
            unicode="&#xF524;"
            horiz-adv-x="1200" d="M177.7387294619692 870C150.1247294619692 870 127.7387294619692 847.614 127.7387294619692 820V20C127.7387294619692 -7.615 150.1247294619692 -30 177.7387294619692 -30H677.7387294619692C705.3537294619692 -30 727.7387294619692 -7.615 727.7387294619692 20V255.135L777.7137294619693 20.02C783.4537294619693 -6.99 810.0087294619692 -24.2349999999999 837.0187294619693 -18.4949999999999L1032.6487294619692 23.09C1059.6587294619694 28.83 1076.8987294619692 55.38 1071.1587294619694 82.3900000000001L925.6187294619692 767.095C919.8787294619692 794.106 893.3287294619693 811.348 866.3187294619692 805.607L727.3737294619692 776.0735C724.3787294619692 800.8235 703.2987294619693 820 677.7387294619692 820H477.7387294619692C477.7387294619692 847.614 455.3527294619692 870 427.7387294619693 870H177.7387294619692zM477.7387294619692 720H627.7387294619692V320H477.7387294619692V720zM477.7387294619692 70V220H627.7387294619692V70H477.7387294619692zM377.7387294619693 770V270H227.7387294619693V770H377.7387294619693zM377.7387294619693 170V70H227.7387294619693V170H377.7387294619693zM844.3437294619692 187.52L942.1587294619692 208.3100000000001L962.9487294619692 110.5099999999999L865.1337294619693 89.715L844.3437294619692 187.52zM823.5537294619692 285.3349999999999L740.3887294619692 676.6055L838.1987294619692 697.3965000000001L921.3687294619692 306.125L823.5537294619692 285.3349999999999z" /><glyph glyph-name="calendar-2-line"
            unicode="&#xEB21;"
            horiz-adv-x="1200" d="M450 920V820H750V920H850V820H1050C1077.615 820 1100 797.614 1100 770V-30C1100 -57.615 1077.615 -80 1050 -80H150C122.386 -80 100 -57.615 100 -30V770C100 797.614 122.386 820 150 820H350V920H450zM1000 420H200V20H1000V420zM400 320V220H300V320H400zM650 320V220H550V320H650zM900 320V220H800V320H900zM350 720H200V520H1000V720H850V620H750V720H450V620H350V720z" /><glyph glyph-name="calendar-2-fill"
            unicode="&#xEB20;"
            horiz-adv-x="1200" d="M850 820H1050C1077.615 820 1100 797.614 1100 770V-30C1100 -57.615 1077.615 -80 1050 -80H150C122.386 -80 100 -57.615 100 -30V770C100 797.614 122.386 820 150 820H350V920H450V820H750V920H850V820zM200 520V20H1000V520H200zM300 420H400V320H300V420zM550 420H650V320H550V420zM800 420H900V320H800V420z" /><glyph glyph-name="mail-line"
            unicode="&#xEEF6;"
            horiz-adv-x="1200" d="M150 870H1050C1077.615 870 1100 847.614 1100 820V20C1100 -7.615 1077.615 -30 1050 -30H150C122.386 -30 100 -7.615 100 20V820C100 847.614 122.386 870 150 870zM1000 658.104L603.59 303.1L200 659.203V70H1000V658.104zM225.573 770L603.095 436.9L975.05 770H225.573z" /><glyph glyph-name="mail-fill"
            unicode="&#xEEF3;"
            horiz-adv-x="1200" d="M150 870H1050C1077.615 870 1100 847.614 1100 820V20C1100 -7.615 1077.615 -30 1050 -30H150C122.386 -30 100 -7.615 100 20V820C100 847.614 122.386 870 150 870zM603.0300000000001 435.855L282.361 708.115L217.639 631.885L603.655 304.145L982.72 632.192L917.28 707.808L603.0300000000001 435.855z" /><glyph glyph-name="send-plane-fill"
            unicode="&#xF0D9;"
            horiz-adv-x="1200" d="M114.3544032065347 572.2347649280043C88.2274032065347 580.9437649280043 88.0214032065347 594.9952649280043 114.8919032065347 603.9522649280043L1069.1999032065346 922.0557649280042C1095.6249032065346 930.8637649280042 1110.7799032065348 916.0732649280042 1103.3749032065348 890.1592649280043L830.7149032065347 -64.1537350719956C823.1649032065345 -90.5737350719957 807.9349032065347 -91.4937350719957 796.7699032065348 -66.3737350719956L617.0449032065346 338.0062649280043L917.0449032065346 738.0037649280042L517.0449032065346 438.0062649280043L114.3544032065347 572.2347649280043z" /><glyph glyph-name="send-plane-line"
            unicode="&#xF0DA;"
            horiz-adv-x="1200" d="M1103.552549009771 890.3011382846261L830.8875490097709 -64.0118617153738C823.3425490097708 -90.4318617153739 807.1125490097709 -91.6318617153739 795.032549009771 -67.4818617153741L567.2175490097709 388.1481382846261L113.3625490097709 569.6886382846261C87.8785490097709 579.8821382846261 88.1940490097709 595.1371382846261 115.0650490097709 604.0941382846261L1069.3775490097707 922.197638284626C1095.7975490097708 931.005638284626 1110.952549009771 916.215138284626 1103.552549009771 890.3011382846261zM968.9825490097708 783.3246382846261L357.8280490097709 579.605638284626L639.657549009771 466.8731382846261L791.6925490097709 162.8081382846261L968.9825490097708 783.3246382846261z" /><glyph glyph-name="chat-1-line"
            unicode="&#xEB4D;"
            horiz-adv-x="1200" d="M500 907.5H700C920.915 907.5 1100 728.414 1100 507.5C1100 286.5850000000001 920.915 107.5 700 107.5V-67.5C450 32.5 100 182.5 100 507.5C100 728.414 279.086 907.5 500 907.5zM600 207.5H700C865.6850000000001 207.5 1000 341.815 1000 507.5C1000 673.1855 865.6850000000001 807.5 700 807.5H500C334.3145 807.5 200 673.1855 200 507.5C200 327 323.1040000000001 209.22 600 83.51V207.5z" /><glyph glyph-name="chat-1-fill"
            unicode="&#xEB4C;"
            horiz-adv-x="1200" d="M500 907.5H700C920.915 907.5 1100 728.414 1100 507.5C1100 286.5850000000001 920.915 107.5 700 107.5V-67.5C450 32.5 100 182.5 100 507.5C100 728.414 279.086 907.5 500 907.5z" /><glyph glyph-name="chat-voice-line"
            unicode="&#xEB77;"
            horiz-adv-x="1200" d="M100 420C100 696.1424999999999 323.8575 920 600 920C876.14 920 1100 696.1424999999999 1100 420C1100 143.86 876.14 -80 600 -80H100L246.4465 66.4449999999999C155.9645 156.9300000000001 100 281.93 100 420zM341.4215 20H600C820.915 20 1000 199.085 1000 420C1000 640.914 820.915 820 600 820C379.086 820 200 640.914 200 420C200 312.38 242.562 211.755 317.1575 137.155L387.868 66.4449999999999L341.4215 20zM550 720H650V120H550V720zM350 570H450V270H350V570zM750 570H850V270H750V570z" /><glyph glyph-name="chat-voice-fill"
            unicode="&#xEB76;"
            horiz-adv-x="1200" d="M246.4465 66.4449999999999C155.9645 156.9300000000001 100 281.93 100 420C100 696.1424999999999 323.8575 920 600 920C876.14 920 1100 696.1424999999999 1100 420C1100 143.86 876.14 -80 600 -80H100L246.4465 66.4449999999999zM550 720V120H650V720H550zM350 570V270H450V570H350zM750 570V270H850V570H750z" /><glyph glyph-name="speak-line"
            unicode="&#xF36F;"
            horiz-adv-x="1200" d="M846.6850000000001 571.7529999999999C821.3 768.219 653.375 920 450 920C229.086 920 50 740.914 50 520C50 425.38 82.8535 338.4350000000001 137.775 269.9450000000001C178.1755 219.565 200.0165 163.74 200.0125 104.6949999999999L200 -80H650L650.05 70H750C805.23 70 850 114.77 850 170V316.4500000000001L947.965 358.415C965.1249999999998 365.765 966.62 383.165 959.21 394.815L846.6850000000001 571.7529999999999zM150 520C150 685.6855 284.3145 820 450 820C601.215 820 728.3249999999999 707.4295 747.505 558.941L750.36 536.8689999999999L827.4850000000001 415.5949999999999L750 382.4050000000001V170H550.085L550.035 20H300.0065L300.0125 104.685C300.018 186.64 270.4825 264.3 215.789 332.505C173.409 385.355 150 450.755 150 520zM1057.675 114.88L974.465 170.355C1022.18 241.79 1050 327.645 1050 419.995C1050 512.3499999999999 1022.18 598.2049999999999 974.465 669.639L1057.675 725.1145C1116 637.807 1150 532.873 1150 419.995C1150 307.12 1116 202.19 1057.675 114.88z" /><glyph glyph-name="translate"
            unicode="&#xF227;"
            horiz-adv-x="1200" d="M240 245V145C240 92.28 280.794 49.09 332.537 45.2750000000001L340 45H490V-55H340C229.543 -55 140 34.5450000000001 140 145V245H240zM890 495L1110 -55H1002.25L942.2 95H737.7L677.75 -55H570.0500000000001L790 495H890zM840 350.74L777.65 195H902.25L840 350.74zM390 895V795H590V445H390V295H290V445H90V795H290V895H390zM840 845C950.455 845 1040 755.457 1040 645V545H940V645C940 700.2284999999999 895.23 745 840 745H690V845H840zM290 695H190V545H290V695zM490 695H390V545H490V695z" /><glyph glyph-name="arrow-left-right-line"
            unicode="&#xEA62;"
            horiz-adv-x="1200" d="M802.515 417.4875000000001L1050 169.9975000000001L802.515 -77.4875000000001L731.8 -6.7775L858.6 120.0375000000001L200 119.9975000000001V219.9975000000002L858.6 220.0375000000001L731.8 346.7775000000001L802.515 417.4875000000001zM397.4875 917.4875L468.198 846.7765L341.4000000000001 720.0375L1000 720.0000000000001V620.0000000000001L341.4000000000001 620.0375L468.198 493.2225000000001L397.4875 422.5125000000002L150 670.0000000000001L397.4875 917.4875z" /><glyph glyph-name="rocket-fill"
            unicode="&#xF095;"
            horiz-adv-x="1200" d="M266.4998419572826 236.3508124446053C255.7233419572826 283.2208124446053 250.0003419572826 332.2758124446053 250.0003419572826 382.7958124446054C250.0003419572826 637.1918124446054 395.1328419572826 854.6108124446052 599.9983419572825 941.8913124446054C804.8683419572826 854.6108124446052 949.9983419572824 637.1918124446054 949.9983419572824 382.7958124446054C949.9983419572824 332.2758124446053 944.2783419572824 283.2208124446053 933.5033419572826 236.3508124446053L1034.5083419572827 146.5658124446055C1043.4933419572826 138.5808124446053 1045.5183419572827 125.3258124446053 1039.3333419572825 115.0158124446054L916.4733419572824 -89.7491875553946C909.3683419572826 -101.5891875553945 894.0133419572826 -105.4291875553947 882.1733419572824 -98.3241875553946C880.4233419572827 -97.2741875553945 878.8033419572826 -96.0091875553946 877.3583419572826 -94.5641875553946L764.6433419572825 18.1508124446054C755.2683419572825 27.5258124446054 742.5483419572824 32.7958124446054 729.2883419572825 32.7958124446054H470.7113419572825C457.4503419572825 32.7958124446054 444.7328419572826 27.5258124446054 435.3558419572825 18.1508124446054L322.6418419572826 -94.5641875553946C312.8783419572826 -104.3291875553945 297.0493419572826 -104.3291875553945 287.2863419572826 -94.5641875553946C285.8408419572826 -93.1191875553947 284.5783419572826 -91.5041875553947 283.5268419572826 -89.7491875553946L160.6658419572826 115.0158124446054C154.4803419572826 125.3258124446053 156.5088419572826 138.5808124446053 165.4943419572826 146.5658124446055L266.4998419572826 236.3508124446053zM599.9983419572825 382.7958124446054C655.2283419572825 382.7958124446054 699.9983419572825 427.5658124446054 699.9983419572825 482.7958124446054C699.9983419572825 538.0223124446054 655.2283419572825 582.7938124446052 599.9983419572825 582.7938124446052C544.7733419572826 582.7938124446052 499.9983419572826 538.0223124446054 499.9983419572826 482.7958124446054C499.9983419572826 427.5658124446054 544.7733419572826 382.7958124446054 599.9983419572825 382.7958124446054z" /><glyph glyph-name="rocket-line"
            unicode="&#xF096;"
            horiz-adv-x="1200" d="M250.0002777388664 382.3041845632545C250.0002777388664 636.7001845632545 395.1322777388664 854.1191845632544 600.0012777388663 941.3996845632544C804.8662777388664 854.1191845632544 950.0012777388664 636.7001845632545 950.0012777388664 382.3041845632545C950.0012777388664 341.1541845632545 946.2012777388665 300.9791845632544 938.9712777388664 262.1641845632545L1035.9912777388663 170.5341845632545C1044.2462777388662 162.7341845632544 1046.2112777388663 150.3541845632545 1040.7712777388663 140.3841845632545L916.0012777388664 -88.3658154367455C909.3862777388664 -100.4858154367456 894.2012777388665 -104.9558154367456 882.0812777388664 -98.3408154367456C879.9862777388663 -97.2008154367455 878.0612777388664 -95.7608154367455 876.3762777388664 -94.0708154367454L764.6462777388664 17.6591845632545C755.2662777388664 27.0341845632545 742.5512777388664 32.3041845632545 729.2912777388664 32.3041845632545H470.7107777388663C457.4497777388664 32.3041845632545 444.7322777388664 27.0341845632545 435.3552777388664 17.6591845632545L323.6257777388663 -94.0708154367454C313.8627777388664 -103.8358154367455 298.0337777388663 -103.8358154367455 288.2702777388664 -94.0708154367454C286.5822777388664 -92.3858154367455 285.1442777388663 -90.4608154367455 284.0007777388664 -88.3658154367455L159.2272777388664 140.3841845632545C153.7897777388664 150.3541845632545 155.7532777388664 162.7341845632544 164.0087777388664 170.5341845632545L261.0282777388664 262.1641845632545C253.7967777388664 300.9791845632544 250.0002777388664 341.1541845632545 250.0002777388664 382.3041845632545zM323.7922777388664 47.5141845632545L364.6447777388663 88.3691845632545C392.7752777388664 116.4991845632545 430.9282777388665 132.3041845632545 470.7107777388663 132.3041845632545H729.2912777388664C769.0712777388663 132.3041845632545 807.2262777388664 116.4991845632545 835.3562777388664 88.3691845632545L876.2062777388664 47.5141845632545L925.3012777388664 137.5241845632546L870.3112777388664 189.4591845632545C845.6062777388664 212.7941845632545 834.4412777388665 247.0741845632545 840.6612777388664 280.4791845632544C846.8512777388663 313.6891845632545 850.0012777388664 347.7441845632544 850.0012777388664 382.3041845632545C850.0012777388664 575.7806845632546 750.2462777388664 747.3166845632544 600.0012777388663 830.2826845632545C449.7522777388664 747.3166845632544 350.0002777388663 575.7806845632546 350.0002777388663 382.3041845632545C350.0002777388663 347.7441845632544 353.1487777388664 313.6891845632545 359.3367777388663 280.4791845632544C365.5602777388664 247.0741845632545 354.3942777388663 212.7941845632545 329.6902777388664 189.4591845632545L274.6977777388663 137.5241845632546L323.7922777388664 47.5141845632545zM600.0012777388663 382.3041845632545C544.7712777388664 382.3041845632545 500.0002777388663 427.0741845632545 500.0002777388663 482.3041845632545C500.0002777388663 537.5306845632545 544.7712777388664 582.3021845632544 600.0012777388663 582.3021845632544C655.2262777388664 582.3021845632544 700.0012777388663 537.5306845632545 700.0012777388663 482.3041845632545C700.0012777388663 427.0741845632545 655.2262777388664 382.3041845632545 600.0012777388663 382.3041845632545z" /><glyph glyph-name="add-line"
            unicode="&#xEA13;"
            horiz-adv-x="1200" d="M550 470V770H650V470H950V370H650V70H550V370H250V470H550z" /><glyph glyph-name="user-settings-line"
            unicode="&#xF26E;"
            horiz-adv-x="1200" d="M540.0699999999999 307.5V207.5C374.3844999999999 207.5 240.07 73.1850000000001 240.07 -92.5H140.0699999999999C140.0699999999999 128.415 319.156 307.5 540.0699999999999 307.5zM540.0699999999999 357.5C374.32 357.5 240.07 491.75 240.07 657.5C240.07 823.25 374.32 957.5 540.0699999999999 957.5C705.8199999999999 957.5 840.0699999999999 823.25 840.0699999999999 657.5C840.0699999999999 491.75 705.8199999999999 357.5 540.0699999999999 357.5zM540.0699999999999 457.5C650.5699999999999 457.5 740.0699999999999 547 740.0699999999999 657.5C740.0699999999999 768 650.5699999999999 857.5 540.0699999999999 857.5C429.5699999999999 857.5 340.07 768 340.07 657.5C340.07 547 429.5699999999999 457.5 540.0699999999999 457.5zM669.8 66.9250000000001C666.7049999999999 79.9449999999999 665.0699999999999 93.5300000000001 665.0699999999999 107.5C665.0699999999999 121.4649999999999 666.7049999999999 135.05 669.795 148.0699999999999L620.2149999999999 176.6950000000001L670.2149999999999 263.3L719.8299999999999 234.6550000000001C739.485 253.245 763.4499999999999 267.3300000000001 790.0699999999999 275.255V332.5H890.0699999999999V275.255C916.69 267.3300000000001 940.65 253.245 960.3049999999998 234.6550000000001L1009.925 263.305L1059.93 176.7000000000001L1010.345 148.0749999999999C1013.435 135.05 1015.07 121.4649999999999 1015.07 107.5C1015.07 93.5350000000001 1013.435 79.9500000000001 1010.345 66.9300000000001L1059.93 38.305L1009.93 -48.3L960.31 -19.6499999999999C940.655 -38.2449999999999 916.695 -52.3299999999999 890.0749999999999 -60.25V-117.5H790.0749999999999V-60.2550000000001C763.4549999999999 -52.335 739.49 -38.25 719.8349999999999 -19.655L670.2199999999999 -48.3050000000001L620.2149999999999 38.3L669.8 66.9250000000001zM840.0699999999999 32.5C881.4899999999999 32.5 915.07 66.08 915.07 107.5C915.07 148.92 881.4899999999999 182.5 840.0699999999999 182.5C798.65 182.5 765.0699999999999 148.92 765.0699999999999 107.5C765.0699999999999 66.08 798.65 32.5 840.0699999999999 32.5z" /><glyph glyph-name="user-settings-fill"
            unicode="&#xF26D;"
            horiz-adv-x="1200" d="M540.0699999999999 307.5V-92.5H140.0699999999999C140.0699999999999 128.415 319.156 307.5 540.0699999999999 307.5zM540.0699999999999 357.5C374.32 357.5 240.07 491.75 240.07 657.5C240.07 823.25 374.32 957.5 540.0699999999999 957.5C705.8199999999999 957.5 840.0699999999999 823.25 840.0699999999999 657.5C840.0699999999999 491.75 705.8199999999999 357.5 540.0699999999999 357.5zM669.8 66.9250000000001C666.7049999999999 79.9449999999999 665.0699999999999 93.5300000000001 665.0699999999999 107.5C665.0699999999999 121.4649999999999 666.7049999999999 135.05 669.795 148.0699999999999L620.2149999999999 176.6950000000001L670.2149999999999 263.3L719.8299999999999 234.6550000000001C739.485 253.245 763.4499999999999 267.3300000000001 790.0699999999999 275.255V332.5H890.0699999999999V275.255C916.69 267.3300000000001 940.65 253.245 960.3049999999998 234.6550000000001L1009.925 263.305L1059.93 176.7000000000001L1010.345 148.0749999999999C1013.435 135.05 1015.07 121.4649999999999 1015.07 107.5C1015.07 93.5350000000001 1013.435 79.9500000000001 1010.345 66.9300000000001L1059.93 38.305L1009.93 -48.3L960.31 -19.6499999999999C940.655 -38.2449999999999 916.695 -52.3299999999999 890.0749999999999 -60.25V-117.5H790.0749999999999V-60.2550000000001C763.4549999999999 -52.335 739.49 -38.25 719.8349999999999 -19.655L670.2199999999999 -48.3050000000001L620.2149999999999 38.3L669.8 66.9250000000001zM840.0699999999999 157.5C812.455 157.5 790.0699999999999 135.1149999999999 790.0699999999999 107.5C790.0699999999999 79.8850000000001 812.455 57.5 840.0699999999999 57.5C867.6849999999998 57.5 890.0699999999999 79.8850000000001 890.0699999999999 107.5C890.0699999999999 135.1149999999999 867.6849999999998 157.5 840.0699999999999 157.5z" /><glyph glyph-name="tools-fill"
            unicode="&#xF21A;"
            horiz-adv-x="1200" d="M275.1991525871922 850.9409235214182C336.8536525871922 872.8599235214181 408.3426525871922 859.1454235214183 457.6911525871922 809.7969235214182C507.0536525871921 760.4344235214182 520.7626525871922 688.9189235214183 498.8166525871923 627.2524235214182L1041.0526525871921 85.0119235214182L934.9876525871924 -21.053076478582L392.6956525871922 521.1654235214182C331.0411525871922 499.2469235214182 259.5521525871922 512.9619235214182 210.2036525871922 562.3094235214182C160.8411525871922 611.6719235214182 147.1326525871922 683.1874235214182 169.0781525871922 744.8539235214182L280.9141525871923 633.0199235214181C310.2036525871922 603.7309235214182 357.6911525871922 603.7309235214182 386.9801525871922 633.0199235214181C416.2696525871923 662.3094235214182 416.2696525871923 709.7969235214182 386.9801525871922 739.0859235214182L275.1991525871922 850.9409235214182zM793.5676525871922 756.7639235214183L952.6676525871922 845.1524235214181L1023.3776525871922 774.4414235214181L934.9876525871924 615.3424235214181L846.5976525871922 597.6649235214181L740.5326525871923 491.5969235214182L669.8226525871922 562.3094235214182L775.8876525871922 668.3754235214183L793.5676525871922 756.7639235214183zM440.0136525871922 367.8569235214182L546.0776525871922 261.7869235214182L298.5921525871923 14.3019235214181C269.3026525871922 -14.9880764785817 221.8151525871922 -14.9880764785817 192.5261525871922 14.3019235214181C164.9596525871922 41.8669235214182 163.3381525871922 85.5569235214181 187.6611525871922 115.0169235214183L192.5261525871922 120.3669235214182L440.0136525871922 367.8569235214182z" /><glyph glyph-name="settings-5-fill"
            unicode="&#xF0E9;"
            horiz-adv-x="1200" d="M106.5786250690988 338.469624930901C97.4751250690988 393.2646249309011 97.7756250690987 448.3096249309011 106.6231250690987 501.534624930901C161.6836250690988 500.194624930901 211.2021250690988 526.6106249309012 230.4476250690988 573.074124930901C249.6936250690988 619.5376249309011 233.3576250690988 673.231124930901 193.4781250690987 711.219124930901C224.8576250690987 755.110624930901 263.5676250690988 794.245624930901 308.7506250690988 826.554124930901C346.7401250690988 786.6516249309011 400.4501250690987 770.3016249309011 446.9261250690987 789.5526249309011C493.4021250690988 808.803624930901 519.8201250690988 858.3436249309011 518.4651250690988 913.421624930901C573.2601250690988 922.525124930901 628.3051250690987 922.224624930901 681.5301250690987 913.3771249309012C680.1951250690988 858.3171249309011 706.6101250690988 808.798624930901 753.0751250690987 789.5526249309011C799.5351250690987 770.3066249309011 853.2301250690987 786.6431249309011 891.2201250690988 826.5221249309011C935.1101250690986 795.1426249309011 974.2451250690988 756.433124930901 1006.5551250690988 711.2496249309011C966.6501250690987 673.260124930901 950.3001250690988 619.5501249309011 969.5501250690988 573.074124930901C988.8001250690988 526.598124930901 1038.3401250690988 500.1796249309011 1093.4201250690987 501.534624930901C1102.5251250690987 446.7396249309011 1102.2251250690988 391.694624930901 1093.3751250690989 338.469624930901C1038.3151250690987 339.804624930901 988.7951250690988 313.3896249309011 969.5501250690988 266.929624930901C950.3051250690988 220.4646249309011 966.6401250690988 166.769624930901 1006.5201250690986 128.7846249309011C975.1401250690988 84.8896249309011 936.4301250690988 45.7546249309011 891.2501250690988 13.4496249309011C853.2601250690989 53.349624930901 799.5501250690987 69.6996249309011 753.0751250690987 50.449624930901C706.5951250690988 31.1996249309011 680.1801250690988 -18.3403750690988 681.5301250690987 -73.420375069099C626.7351250690988 -82.5253750690988 571.6901250690988 -82.2253750690988 518.4701250690987 -73.3753750690989C519.8051250690987 -18.315375069099 493.3896250690988 31.2046249309011 446.9261250690987 50.449624930901C400.4626250690988 69.6946249309011 346.7691250690988 53.3596249309012 308.7811250690988 13.479624930901C264.8896250690988 44.8596249309011 225.7546250690987 83.5696249309011 193.4461250690988 128.7496249309011C233.3486250690987 166.7396249309011 249.6986250690988 220.4496249309012 230.4476250690988 266.929624930901C211.1966250690987 313.4046249309011 161.6571250690988 339.8196249309011 106.5786250690988 338.469624930901zM600.0001250690988 269.9996249309011C682.8401250690987 269.9996249309011 750.0001250690988 337.1596249309011 750.0001250690988 419.9996249309011C750.0001250690988 502.8446249309011 682.8401250690987 570.000624930901 600.0001250690988 570.000624930901C517.1551250690987 570.000624930901 449.9996250690988 502.8446249309011 449.9996250690988 419.9996249309011C449.9996250690988 337.1596249309011 517.1551250690987 269.9996249309011 600.0001250690988 269.9996249309011z" /><glyph glyph-name="settings-5-line"
            unicode="&#xF0EA;"
            horiz-adv-x="1200" d="M110.6317093377623 317.0036874309566C95.9797093377623 386.2336874309566 96.5732093377623 456.2936874309565 110.6737093377623 522.9896874309566C166.1697093377623 516.4536874309566 214.6092093377623 534.8336874309566 230.4482093377623 573.0731874309565C246.2877093377623 611.3126874309565 225.0317093377623 658.5606874309566 181.1692093377623 693.1811874309566C218.3607093377623 750.3136874309566 267.4812093377623 800.2731874309566 326.7927093377623 838.8641874309566C361.4157093377622 794.9791874309566 408.6777093377623 773.7081874309565 446.9267093377622 789.5516874309566C485.1757093377623 805.3951874309565 503.5557093377623 853.8546874309566 497.0052093377623 909.3681874309566C566.2307093377622 924.0201874309566 636.2907093377622 923.4266874309566 702.9907093377623 909.3266874309566C696.4557093377623 853.8306874309566 714.8357093377623 805.3911874309565 753.0757093377622 789.5516874309566C791.3107093377623 773.7121874309565 838.5607093377623 794.9686874309566 873.1807093377622 838.8306874309566C930.3157093377624 801.6391874309566 980.2757093377622 752.5186874309566 1018.8657093377622 693.2076874309566C974.9807093377622 658.5841874309566 953.7107093377622 611.3221874309565 969.5507093377622 573.0731874309565C985.3957093377622 534.8241874309565 1033.8557093377622 516.4436874309565 1089.3707093377623 522.9946874309567C1104.0207093377624 453.7686874309566 1103.4257093377623 383.7086874309565 1089.3257093377622 317.0086874309566C1033.8307093377623 323.5436874309566 985.3907093377622 305.1636874309566 969.5507093377622 266.9286874309566C953.7107093377622 228.6886874309567 974.9707093377622 181.4386874309566 1018.8307093377624 146.8186874309566C981.6407093377622 89.6886874309565 932.5207093377622 39.7286874309566 873.2057093377622 1.1336874309565C838.5857093377622 45.0186874309566 791.3207093377623 66.2936874309565 753.0757093377622 50.4486874309565C714.8257093377623 34.6036874309565 696.4457093377622 -13.8563125690434 702.9957093377623 -69.3663125690434C633.7657093377622 -84.0213125690434 563.7057093377622 -83.4263125690434 497.0102093377623 -69.3263125690435C503.5457093377623 -13.8313125690433 485.1662093377623 34.6086874309567 446.9267093377622 50.4486874309565C408.6872093377623 66.2886874309565 361.4397093377624 45.0336874309566 326.8187093377623 1.1686874309567C269.6862093377623 38.3586874309566 219.7267093377623 87.4786874309565 181.1362093377623 146.7936874309566C225.0207093377623 181.4136874309567 246.2917093377623 228.6786874309567 230.4482093377623 266.9286874309566C214.6052093377623 305.1736874309567 166.1452093377623 323.5536874309566 110.6317093377623 317.0036874309566zM200.0032093377623 409.4886874309566C254.9937093377623 394.2686874309566 300.3747093377623 359.4236874309566 322.8362093377623 305.1936874309565C345.2977093377623 250.9686874309565 337.8492093377622 194.2386874309566 309.7262093377623 144.5936874309566C314.5542093377623 139.5086874309566 319.5147093377623 134.5486874309567 324.6022093377623 129.7286874309566C374.2457093377623 157.8486874309565 430.9717093377623 165.2936874309566 485.1952093377623 142.8336874309565C539.4207093377622 120.3736874309566 574.2657093377622 74.9986874309565 589.4857093377623 20.0136874309566C596.4907093377623 19.8236874309566 603.5007093377623 19.8186874309566 610.5107093377623 20.0036874309566C625.7307093377623 74.9936874309565 660.5757093377622 120.3736874309566 714.8057093377622 142.8336874309565C769.0307093377622 165.2986874309565 825.7607093377623 157.8486874309565 875.4057093377622 129.7236874309565C880.4957093377623 134.5536874309567 885.4507093377623 139.5136874309566 890.2707093377622 144.6036874309566C862.1507093377622 194.2436874309566 854.7057093377623 250.9736874309566 877.1657093377622 305.1936874309565C899.6257093377623 359.4186874309566 945.0007093377621 394.2636874309566 999.9857093377622 409.4836874309566C1000.1757093377622 416.4886874309566 1000.1807093377622 423.5036874309566 999.9957093377622 430.5136874309566C945.0057093377623 445.7286874309566 899.6257093377623 480.5786874309565 877.1657093377622 534.8051874309566C854.7007093377622 589.0321874309566 862.1507093377622 645.7616874309565 890.2757093377622 695.4066874309565C885.4457093377623 700.4931874309566 880.4857093377623 705.4486874309566 875.3957093377622 710.2691874309565C825.7557093377623 682.1501874309565 769.0307093377622 674.7036874309565 714.8057093377622 697.1636874309565C660.5807093377622 719.6236874309566 625.7357093377623 765.0006874309565 610.5157093377622 819.9866874309565C603.5107093377623 820.1756874309566 596.5007093377623 820.1791874309565 589.4857093377623 819.9966874309566C574.2707093377622 765.0061874309565 539.4207093377622 719.6251874309565 485.1952093377623 697.1636874309565C430.9677093377623 674.7021874309565 374.2387093377623 682.1511874309565 324.5932093377623 710.2736874309566C319.5067093377623 705.4456874309566 314.5512093377623 700.4851874309566 309.7312093377623 695.3976874309566C337.8497093377623 645.7541874309566 345.2962093377623 589.0281874309566 322.8362093377623 534.8051874309566C300.3762093377623 480.5836874309565 254.9992093377623 445.7336874309566 200.0132093377623 430.5136874309566C199.8242093377623 423.5086874309566 199.8207093377623 416.4986874309566 200.0032093377623 409.4886874309566zM600.0007093377623 269.9986874309566C517.1557093377622 269.9986874309566 450.0002093377623 337.1586874309566 450.0002093377623 419.9986874309566C450.0002093377623 502.8436874309566 517.1557093377622 569.9996874309566 600.0007093377623 569.9996874309566C682.8407093377622 569.9996874309566 750.0007093377623 502.8436874309566 750.0007093377623 419.9986874309566C750.0007093377623 337.1586874309566 682.8407093377622 269.9986874309566 600.0007093377623 269.9986874309566zM600.0007093377623 369.9986874309566C627.6157093377623 369.9986874309566 650.0007093377623 392.3836874309566 650.0007093377623 419.9986874309566C650.0007093377623 447.6136874309566 627.6157093377623 469.9986874309566 600.0007093377623 469.9986874309566C572.3857093377623 469.9986874309566 550.0007093377623 447.6136874309566 550.0007093377623 419.9986874309566C550.0007093377623 392.3836874309566 572.3857093377623 369.9986874309566 600.0007093377623 369.9986874309566z" /><glyph glyph-name="code-box-fill"
            unicode="&#xEBA6;"
            horiz-adv-x="1200" d="M150 870H1050C1077.615 870 1100 847.614 1100 820V20C1100 -7.615 1077.615 -30 1050 -30H150C122.386 -30 100 -7.615 100 20V820C100 847.614 122.386 870 150 870zM823.225 243.2249999999999L1000 420L823.225 596.7764999999999L752.515 526.066L858.58 420L752.515 313.9350000000001L823.225 243.2249999999999zM341.4215 420L447.4875 526.066L376.7765 596.7764999999999L200 420L376.7765 243.2249999999999L447.4875 313.9350000000001L341.4215 420zM562.215 170L744.2 670H637.785L455.7985 170H562.215z" /><glyph glyph-name="code-box-line"
            unicode="&#xEBA7;"
            horiz-adv-x="1200" d="M150 870H1050C1077.615 870 1100 847.614 1100 820V20C1100 -7.615 1077.615 -30 1050 -30H150C122.386 -30 100 -7.615 100 20V820C100 847.614 122.386 870 150 870zM200 770V70H1000V770H200zM1000 420L823.225 243.2249999999999L752.515 313.9350000000001L858.58 420L752.515 526.066L823.225 596.7764999999999L1000 420zM341.4215 420L447.4875 313.9350000000001L376.7765 243.2249999999999L200 420L376.7765 596.7764999999999L447.4875 526.066L341.4215 420zM562.215 170H455.7985L637.785 670H744.2L562.215 170z" /><glyph glyph-name="vuejs-fill"
            unicode="&#xF2A5;"
            horiz-adv-x="1200" d="M49.9995 895H249.9995L600.0005 295L950.0005000000002 895H1150.0004999999999L600.0005 -55L49.9995 895zM483.3325 895L600.0005 695L716.6655000000001 895H918.4205L600.0005 345L281.5785 895H483.3325z" /><glyph glyph-name="reactjs-line"
            unicode="&#xF058;"
            horiz-adv-x="1200" d="M600.0005 344.9980044036688C558.5755 344.9980044036688 525.0005 378.5780044036688 525.0005 419.9980044036688C525.0005 461.4230044036687 558.5755 494.9980044036687 600.0005 494.9980044036687C641.4205000000001 494.9980044036687 675.0005 461.4230044036687 675.0005 419.9980044036688C675.0005 378.5780044036688 641.4205000000001 344.9980044036688 600.0005 344.9980044036688zM573.6155 195.2780044036688C582.3455 184.7530044036689 591.1455000000001 174.6030044036687 600.0005 164.8530044036687C608.8505000000001 174.6030044036687 617.6555000000001 184.7530044036689 626.3805000000001 195.2780044036688C617.6405 195.0930044036687 608.8455 194.9980044036688 600.0005 194.9980044036688C591.1505000000001 194.9980044036688 582.3555 195.0930044036687 573.6155 195.2780044036688zM473.869 201.5330044036688C433.7605000000001 205.7730044036687 395.468 211.9880044036688 359.5845000000001 219.9230044036687C355.8665000000001 202.4430044036688 353.0175000000001 185.4830044036688 351.072 169.1730044036687C341.6295000000001 90.0030044036686 354.853 41.9180044036688 374.9995000000001 30.2880044036687C395.1455000000001 18.6580044036687 443.3970000000001 31.2480044036689 507.2405 79.0080044036687C520.3905 88.8480044036687 533.6555 99.7930044036688 546.9355 111.7580044036687C522.1205000000001 138.8630044036687 497.5940000000001 168.9180044036688 473.869 201.5330044036688zM840.4155000000001 219.9230044036687C804.5305 211.9880044036688 766.2355 205.7730044036687 726.1305 201.5330044036688C702.4055 168.9180044036688 677.8755000000001 138.8630044036687 653.0605 111.7580044036687C666.3455 99.7930044036688 679.6055 88.8480044036687 692.7605 79.0080044036687C756.6005 31.2480044036689 804.8555 18.6580044036687 825.0005000000001 30.2880044036687C845.1455000000001 41.9180044036688 858.3705 90.0030044036686 848.9255000000002 169.1730044036687C846.9805 185.4830044036688 844.1305000000001 202.4430044036688 840.4155000000001 219.9230044036687zM912.9405 239.3230044036688C941.7705 107.3730044036686 926.5905000000002 2.3380044036687 862.5005000000001 -34.6619955963312C798.4055 -71.6669955963313 699.8555000000001 -32.2969955963312 600.0005 58.6480044036687C500.1405 -32.2969955963312 401.5915 -71.6669955963313 337.4995000000001 -34.6619955963312C273.4070000000001 2.3380044036687 258.228 107.3730044036686 287.0590000000001 239.3230044036688C158.3715 280.3280044036688 74.9995 345.9930044036688 74.9995 419.9980044036688C74.9995 494.0080044036687 158.3715 559.6690044036686 287.0590000000001 600.6760044036687C258.228 732.6260044036687 273.4070000000001 837.6595044036687 337.4995000000001 874.6630044036688C401.5915 911.6665044036688 500.1405 872.2955044036687 600.0005 781.3520044036688C699.8555000000001 872.2955044036687 798.4055 911.6665044036688 862.5005000000001 874.6630044036688C926.5905000000002 837.6595044036687 941.7705 732.6260044036687 912.9405 600.6760044036687C1041.6254999999999 559.6690044036686 1125.0004999999999 494.0080044036687 1125.0004999999999 419.9980044036688C1125.0004999999999 345.9930044036688 1041.6254999999999 280.3280044036688 912.9405 239.3230044036688zM546.9355 728.2425044036688C533.6555 740.2045044036688 520.3905 751.1515044036687 507.2405 760.9910044036687C443.3970000000001 808.7535044036688 395.1455000000001 821.3425044036687 374.9995000000001 809.7110044036688C354.853 798.0795044036688 341.6295000000001 749.9980044036688 351.072 670.8280044036687C353.0175000000001 654.5185044036687 355.8665000000001 637.5580044036687 359.5845000000001 620.0745044036687C395.468 628.0105044036686 433.7605000000001 634.2250044036687 473.869 638.4640044036687C497.5940000000001 671.0790044036687 522.1205000000001 701.1345044036686 546.9355 728.2425044036688zM726.1305 638.4640044036687C766.2355 634.2250044036687 804.5305 628.0105044036686 840.4155000000001 620.0745044036687C844.1305000000001 637.5580044036687 846.9805 654.5185044036687 848.9255000000002 670.8280044036687C858.3705 749.9980044036688 845.1455000000001 798.0795044036688 825.0005000000001 809.7110044036688C804.8555 821.3425044036687 756.6005 808.7535044036688 692.7605 760.9910044036687C679.6055 751.1515044036687 666.3455 740.2045044036688 653.0605 728.2425044036688C677.8755000000001 701.1345044036686 702.4055 671.0790044036687 726.1305 638.4640044036687zM626.3805000000001 644.7205044036687C617.6555000000001 655.2455044036687 608.8505000000001 665.3975044036688 600.0005 675.1475044036688C591.1455000000001 665.3975044036688 582.3455 655.2455044036687 573.6155 644.7205044036687C582.3555 644.9060044036687 591.1505000000001 644.9995044036687 600.0005 644.9995044036687C608.8455 644.9995044036687 617.6405 644.9060044036687 626.3805000000001 644.7205044036687zM418.5765 284.7930044036687C414.0460000000001 292.2680044036688 409.5670000000001 299.8380044036688 405.1435 307.4980044036688C400.7200000000001 315.1630044036687 396.4035 322.8280044036688 392.1945 330.4880044036688C387.4430000000001 317.6680044036688 383.053 304.9680044036687 379.0350000000001 292.4280044036687C391.9045000000001 289.6330044036688 405.098 287.0880044036687 418.5765 284.7930044036687zM515.1955 273.1180044036688C542.8455 271.0630044036688 571.2055 269.9980044036688 600.0005 269.9980044036688C628.7955000000001 269.9980044036688 657.1505000000001 271.0630044036688 684.8004999999999 273.1180044036688C700.4055000000001 296.0380044036687 715.5055 320.0630044036688 729.9055000000001 344.9980044036688C744.3005 369.9380044036687 757.5605 395.0280044036687 769.6005000000001 419.9980044036688C757.5605 444.9730044036688 744.3005 470.0630044036688 729.9055000000001 494.9980044036687C715.5055 519.9380044036686 700.4055000000001 543.9625044036686 684.8004999999999 566.8800044036686C657.1505000000001 568.9365044036688 628.7955000000001 569.9995044036687 600.0005 569.9995044036687C571.2055 569.9995044036687 542.8455 568.9365044036688 515.1955 566.8800044036686C499.592 543.9625044036686 484.4935 519.9380044036686 470.0955000000001 494.9980044036687C455.6975 470.0630044036688 442.4405000000001 444.9730044036688 430.3965 419.9980044036688C442.4405000000001 395.0280044036687 455.6975 369.9380044036687 470.0955000000001 344.9980044036688C484.4935 320.0630044036688 499.592 296.0380044036687 515.1955 273.1180044036688zM807.8055 509.5130044036688C812.5554999999999 522.3330044036686 816.9455 535.0330044036687 820.9655000000001 547.5735044036687C808.0955 550.3640044036688 794.9005 552.9120044036688 781.4205000000001 555.2075044036687C785.9505 547.7315044036686 790.4305 540.1615044036687 794.8555 532.4995044036687C799.2805 524.8380044036687 803.5955 517.1730044036688 807.8055 509.5130044036688zM306.5220000000001 528.1675044036688C289.5215 522.6460044036687 273.4090000000001 516.6330044036688 258.312 510.1630044036688C185.0275 478.7530044036687 149.9995 443.2630044036688 149.9995 419.9980044036688C149.9995 396.7380044036688 185.0275 361.2430044036688 258.312 329.8380044036688C273.4090000000001 323.3680044036688 289.5215 317.3530044036687 306.5220000000001 311.8330044036688C317.591 346.8780044036688 331.3555 383.1480044036687 347.7385000000001 419.9980044036688C331.3555 456.8530044036688 317.591 493.1230044036687 306.5220000000001 528.1675044036688zM379.0350000000001 547.5735044036687C383.053 535.0330044036687 387.4430000000001 522.3330044036686 392.1945 509.5130044036688C396.4035 517.1730044036688 400.7200000000001 524.8380044036687 405.1435 532.4995044036687C409.5670000000001 540.1615044036687 414.0460000000001 547.7315044036686 418.5765 555.2075044036687C405.098 552.9120044036688 391.9045000000001 550.3640044036688 379.0350000000001 547.5735044036687zM893.4755 311.8330044036688C910.4755 317.3530044036687 926.5905000000002 323.3680044036688 941.6855000000002 329.8380044036688C1014.9705 361.2430044036688 1050.0004999999999 396.7380044036688 1050.0004999999999 419.9980044036688C1050.0004999999999 443.2630044036688 1014.9705 478.7530044036687 941.6855000000002 510.1630044036688C926.5905000000002 516.6330044036688 910.4755 522.6460044036687 893.4755 528.1675044036688C882.4055000000001 493.1230044036687 868.6455 456.8530044036688 852.2605 419.9980044036688C868.6455 383.1480044036687 882.4055000000001 346.8780044036688 893.4755 311.8330044036688zM820.9655000000001 292.4280044036687C816.9455 304.9680044036687 812.5554999999999 317.6680044036688 807.8055 330.4880044036688C803.5955 322.8280044036688 799.2805 315.1630044036687 794.8555 307.4980044036688C790.4305 299.8380044036688 785.9505 292.2680044036688 781.4205000000001 284.7930044036687C794.9005 287.0880044036687 808.0955 289.6330044036688 820.9655000000001 292.4280044036687z" /><glyph glyph-name="tailwind-css-fill"
            unicode="&#xF517;"
            horiz-adv-x="1200" d="M599.9997649999999 777.00025C441.333765 777.00025 342.166765 697.66725 302.500265 539.00025C362.000265 618.33375 431.416765 648.08375 510.749765 628.25025C556.019765 616.94525 588.349765 584.1212499999999 624.194765 547.7272499999999C682.5547650000001 488.52475 750.0397650000001 419.99975 897.499765 419.99975C1056.164765 419.99975 1155.334765 499.33475 1194.999765 658.0007499999999C1135.499765 578.66725 1066.084765 548.91725 986.749765 568.75025C941.479765 580.0552499999999 909.154765 612.8797500000001 873.3047649999999 649.2737500000001C814.9947649999999 708.4762499999999 747.509765 777.00025 599.9997649999999 777.00025zM302.500265 419.99975C143.833765 419.99975 44.666915 340.66475 5.000235 181.9997499999999C64.500265 261.3347500000001 133.916765 291.08475 213.250265 271.24975C258.519765 259.94475 290.8482649999999 227.11975 326.696765 190.72475C385.056265 131.52475 452.5392649999999 62.99975 599.9997649999999 62.99975C758.664765 62.99975 857.8347650000001 142.3347500000001 897.499765 300.99975C837.9997649999999 221.6647500000001 768.584765 191.9147500000001 689.249765 211.74975C643.979765 223.05475 611.649765 255.87975 575.8047650000001 292.27475C517.494765 351.4747500000001 450.010765 419.99975 302.500265 419.99975z" /><glyph glyph-name="zhihu-line"
            unicode="&#xF2D9;"
            horiz-adv-x="1200" d="M630.04675 134.0950000000001L545.68175 80.4100000000001L439.0887499999999 247.9100000000001C417.0967499999999 177.8100000000001 380.5167499999999 114.6350000000001 332.1697499999999 56.645C312.0612499999999 32.5249999999999 291.2017499999999 10.765 267.1072499999999 -12.1199999999998C259.3732499999999 -19.4650000000001 228.3782499999999 -47.94 223.2182499999999 -53.1000000000001L152.5077499999999 17.6100000000001C159.44975 24.5500000000001 191.8642499999999 54.3350000000001 198.2457499999999 60.395C219.7357499999999 80.8000000000001 238.0122499999999 99.8700000000001 255.3617499999999 120.68C318.67825 196.625 356.82025 281.2350000000001 362.2037499999999 382.2550000000001H162.8627499999999V482.2550000000001H362.8627499999999V682.2535H319.4637499999999C285.0327499999999 618.9504999999999 241.5472499999999 571.1545000000001 188.5877499999999 539.3785L137.1382499999999 625.1279999999999C206.9332499999999 667.0050000000001 258.4272499999999 755.2805000000001 289.0537499999999 893.1000000000001L386.6722499999999 871.4069999999999C379.6397499999999 839.76 371.4977499999999 810.0345 362.2272499999999 782.2535H587.8617499999999V682.2535H462.8627499999998V482.2550000000001H587.8617499999999V382.2550000000001H472.1282499999999L630.04675 134.0950000000001zM821.9867499999999 137.615L877.7867499999999 182.2550000000001H962.86175V682.2535H762.8617499999999V182.2550000000001H799.66675L821.9867499999999 137.615zM662.8617499999999 782.2535H1062.86175V82.2550000000001H912.86175L787.8617499999999 -17.7449999999998L737.8617499999999 82.2550000000001H662.8617499999999V782.2535z" /><glyph glyph-name="stack-overflow-line"
            unicode="&#xF183;"
            horiz-adv-x="1200" d="M900.0005 25.3757499999999V275.49575H1000.0005V-74.62425H199.9995V275.49575H299.9995V25.3757499999999H900.0005zM374.9995 125.49575V225.49575H825.0005V125.49575H374.9995zM378.8505 344.51575L396.2154999999999 443.00075L839.3804999999999 364.85575L822.0154999999999 266.37575L378.8505 344.51575zM460.5285 619.6967499999998L510.5305 706.29925L900.2405 481.3007499999999L850.2405 394.6957500000001L460.5285 619.6967499999998zM631.3954999999999 850.34575L708.0004999999999 914.62425L997.2555 569.90425L920.6505 505.62575L631.3954999999999 850.34575z" /><glyph glyph-name="meta-fill"
            unicode="&#xF342;"
            horiz-adv-x="1200" d="M845.6893249999998 795C753.1493249999999 795 680.804325 725.298 615.3193249999999 636.755C525.3243249999999 751.3385 450.0653249999999 795 360.000825 795C176.380325 795 35.6906749999999 556.0345 35.6906749999999 303.105C35.6906749999999 144.8300000000001 112.262325 45 240.518325 45C332.828825 45 399.218325 88.52 517.2443249999999 294.8300000000001C517.2443249999999 294.8300000000001 566.4393249999999 381.7099999999999 600.2843249999999 441.5550000000001C612.1443249999999 422.41 624.609325 401.8050000000001 637.759325 379.655L693.1043249999999 286.55C800.914325 106.14 860.9843249999999 45 969.829325 45C1094.7743249999999 45 1164.309325 146.1950000000001 1164.309325 307.76C1164.309325 572.586 1020.449325 795 845.6893249999998 795zM427.242325 350.69C331.552825 200.6900000000001 298.449325 167.0700000000001 245.1733249999999 167.0700000000001C190.3458249999999 167.0700000000001 157.7598249999999 215.2049999999999 157.7598249999999 301.035C157.7598249999999 484.6550000000001 249.311325 672.414 358.449325 672.414C417.550325 672.414 466.9398249999999 638.281 542.5893249999999 529.979C470.7568249999999 419.7950000000001 427.242325 350.69 427.242325 350.69zM788.3893249999999 369.5750000000001L722.2143249999999 479.9350000000001C704.309325 509.06 687.149325 535.8199999999999 670.5893249999999 560.357C730.2293249999999 652.4085 779.424325 698.2760000000001 837.934325 698.2760000000001C959.4843249999998 698.2760000000001 1056.724325 519.31 1056.724325 299.485C1056.724325 215.69 1029.279325 167.0700000000001 972.414325 167.0700000000001C917.909325 167.0700000000001 891.8743249999999 203.0650000000001 788.3893249999999 369.5750000000001z" /><glyph glyph-name="openai-fill"
            unicode="&#xF34A;"
            horiz-adv-x="1200" d="M1029.6872518867876 510.625C1042.1872518867876 545 1045.3122518867876 579.375 1042.1872518867876 613.75C1039.0622518867876 648.125 1026.5622518867876 682.5 1010.9372518867876 713.75C982.8122518867876 760.625 942.1872518867876 798.125 895.3122518867875 820C845.3122518867875 841.875 792.1872518867875 848.125 739.0622518867875 835.625C714.0622518867875 860.625 685.9372518867875 882.5 654.6872518867875 898.125C623.4372518867875 913.75 585.9372518867875 920 551.5622518867875 920C498.4372518867875 920 445.3122518867875 904.375 401.5622518867875 873.125C357.8122518867875 841.875 326.5622518867875 798.125 310.9372518867875 748.125C273.4372518867875 738.75 242.1872518867875 723.125 210.9372518867875 704.375C182.8122518867875 682.5 160.9372518867875 654.375 142.1872518867875 626.25C114.0627518867875 579.375 104.6877518867875 526.25 110.9377518867875 473.125C117.1877518867875 420 139.0622518867875 370 173.4372518867875 329.375C160.9372518867875 295 157.8122518867875 260.625 160.9372518867875 226.25C164.0622518867875 191.875 176.5622518867875 157.5 192.1872518867875 126.25C220.3122518867875 79.375 260.9372518867875 41.875 307.8122518867875 20C357.8122518867875 -1.875 410.9372518867875 -8.125 464.0622518867875 4.375C489.0622518867875 -20.625 517.1872518867875 -42.5 548.4372518867875 -58.125C579.6872518867875 -73.75 617.1872518867875 -80 651.5622518867875 -80C704.6872518867875 -80 757.8122518867875 -64.375 801.5622518867875 -33.125C845.3122518867875 -1.875 876.5622518867875 41.875 892.1872518867875 91.875C926.5622518867876 98.125 960.9372518867876 113.75 989.0622518867876 135.625C1017.1872518867876 157.5 1042.1872518867876 182.5 1057.8122518867876 213.75C1085.9372518867876 260.625 1095.3122518867876 313.75 1089.0622518867876 366.875C1082.8122518867876 420 1064.0622518867876 470 1029.6872518867876 510.625zM654.6872518867875 -14.375C604.6872518867875 -14.375 567.1872518867875 1.25 532.8122518867875 29.375C532.8122518867875 29.375 535.9372518867875 32.5 539.0622518867875 32.5L739.0622518867875 148.125C745.3122518867875 151.25 748.4372518867875 154.375 751.5622518867875 160.625C754.6872518867875 166.875 754.6872518867875 170 754.6872518867875 176.25V457.5L839.0622518867875 407.5V176.25C842.1872518867875 66.875 754.6872518867875 -14.375 654.6872518867875 -14.375zM251.5622518867875 157.5C229.6872518867875 195 220.3122518867875 238.75 229.6872518867875 282.5C229.6872518867875 282.5 232.8122518867875 279.375 235.9372518867875 279.375L435.9372518867875 163.75C442.1872518867875 160.625 445.3122518867875 160.625 451.5622518867875 160.625C457.8122518867875 160.625 464.0622518867875 160.625 467.1872518867875 163.75L710.9372518867875 304.375V207.5L507.8122518867875 88.75C464.0622518867875 63.75 414.0622518867875 57.5 367.1872518867875 70C317.1872518867875 82.5 276.5622518867875 113.75 251.5622518867875 157.5zM198.4372518867875 591.875C220.3122518867875 629.375 254.6872518867875 657.5 295.3122518867875 673.125V666.875V435.625C295.3122518867875 429.375 295.3122518867875 423.125 298.4372518867875 420C301.5622518867875 413.75 304.6872518867875 410.625 310.9372518867875 407.5L554.6872518867875 266.875L470.3122518867875 216.875L270.3122518867875 332.5C226.5622518867875 357.5 195.3122518867875 398.125 182.8122518867875 445C170.3122518867875 491.875 173.4372518867875 548.125 198.4372518867875 591.875zM889.0622518867875 432.5L645.3122518867875 573.125L729.6872518867875 623.125L929.6872518867876 507.5C960.9372518867876 488.75 985.9372518867876 463.75 1001.5622518867876 432.5C1017.1872518867876 401.25 1026.5622518867876 366.875 1023.4372518867876 329.375C1020.3122518867876 295 1007.8122518867876 260.625 985.9372518867876 232.5C964.0622518867876 204.375 935.9372518867876 182.5 901.5622518867876 170V407.5C901.5622518867876 413.75 901.5622518867876 420 898.4372518867875 423.125C898.4372518867875 423.125 895.3122518867875 429.375 889.0622518867875 432.5zM973.4372518867876 557.5C973.4372518867876 557.5 970.3122518867876 560.625 967.1872518867876 560.625L767.1872518867875 676.25C760.9372518867875 679.375 757.8122518867875 679.375 751.5622518867875 679.375C745.3122518867875 679.375 739.0622518867875 679.375 735.9372518867875 676.25L492.1872518867875 535.625V632.5L695.3122518867875 751.25C726.5622518867875 770 760.9372518867875 776.25 798.4372518867875 776.25C832.8122518867875 776.25 867.1872518867875 763.75 898.4372518867875 741.875C926.5622518867876 720 951.5622518867876 691.875 964.0622518867876 660.625C976.5622518867876 629.375 979.6872518867876 591.875 973.4372518867876 557.5zM448.4372518867875 382.5L364.0622518867875 432.5V666.875C364.0622518867875 701.25 373.4372518867875 738.75 392.1872518867875 766.875C410.9372518867875 798.125 439.0622518867875 820 470.3122518867875 835.625C501.5622518867875 851.25 539.0622518867875 857.5 573.4372518867875 851.25C607.8122518867875 848.125 642.1872518867875 832.5 670.3122518867875 810.625C670.3122518867875 810.625 667.1872518867875 807.5 664.0622518867875 807.5L464.0622518867875 691.875C457.8122518867875 688.75 454.6872518867875 685.625 451.5622518867875 679.375C448.4372518867875 673.125 448.4372518867875 670 448.4372518867875 663.75V382.5zM492.1872518867875 482.5L601.5622518867875 545L710.9372518867875 482.5V357.5L601.5622518867875 295L492.1872518867875 357.5V482.5z" /><glyph glyph-name="ie-fill"
            unicode="&#xEE42;"
            horiz-adv-x="1200" d="M455.6005692719767 -5.9760566061892C318.4105692719768 -80.5210566061893 199.9650692719768 -95.9510566061893 134.4980692719768 -30.5410566061893C67.3081192719768 36.5189433938107 103.0865692719767 212.0489433938107 200.1500692719768 388.1539433938107C247.5480692719768 474.1489433938107 309.5595692719768 560.2844433938106 381.3315692719768 633.9954433938107C390.7065692719768 643.3559433938107 437.5815692719768 690.1604433938106 440.7065692719768 690.1604433938106C440.7065692719768 690.1604433938106 415.7065692719768 674.5589433938106 412.5815692719768 674.5589433938106C315.0800692719767 619.7974433938107 229.4620692719768 520.5414433938107 210.7615692719768 498.2639433938108C213.6495692719768 511.2279433938107 217.0975692719768 523.9829433938106 221.0775692719767 536.4999433938107C278.8855692719767 718.2869433938107 449.0615692719768 849.9849433938107 649.9980692719766 849.9849433938107C661.4930692719768 849.9849433938107 672.8830692719769 849.5539433938108 684.1630692719768 848.7074433938106C838.8880692719767 918.8454433938106 982.8530692719768 935.0199433938106 1043.7480692719769 874.2564433938107C1099.9980692719769 818.0914433938107 1096.8730692719769 724.4834433938107 1049.9980692719769 612.1534433938107C1049.543069271977 611.0654433938106 1049.093069271977 609.9934433938107 1048.6480692719767 608.9369433938107C1081.4430692719768 546.4974433938107 1099.9980692719769 475.4089433938107 1099.9980692719769 399.9839433938107C1099.9980692719769 381.0189433938107 1098.8230692719767 362.3339433938108 1096.5480692719768 343.9839433938107H1056.323069271977C1053.7680692719769 343.8939433938107 1051.4030692719768 343.8539433938107 1049.2280692719767 343.8539433938107H459.4565692719768V334.4889433938107C462.5395692719767 234.6439433938107 550.0380692719768 147.2739433938107 656.2880692719768 147.2739433938107C731.2880692719768 147.2739433938107 803.1630692719768 187.8389433938107 834.4130692719768 247.1239433938107H1073.3680692719768C1072.9930692719768 246.0739433938106 1072.6030692719767 245.0289433938107 1072.208069271977 243.9839433938107C1008.7830692719768 72.3489433938106 843.6830692719768 -50.0160566061892 649.9980692719766 -50.0160566061892C580.3730692719766 -50.0160566061892 514.4430692719768 -34.2060566061895 455.6005692719767 -5.9760566061892zM425.2595692719768 10.0339433938108C333.9680692719768 62.7639433938108 262.9190692719767 146.6289433938107 226.6285692719768 247.1139433938107C168.5985692719768 133.0289433938107 153.6525692719768 37.6189433938108 203.2065692719768 -11.8610566061892C243.8315692719768 -52.4660566061892 325.0815692719768 -43.0610566061893 425.0815692719768 9.9389433938107L425.2595692719768 10.0339433938108zM1033.5930692719767 635.3799433938108C1033.853069271977 635.9434433938108 1034.1130692719767 636.5079433938107 1034.3730692719769 637.0739433938107C1071.8730692719769 718.2009433938107 1074.9980692719769 786.8054433938107 1040.6230692719769 827.3689433938107C997.1630692719766 870.7634433938107 913.6130692719767 864.8929433938107 814.4830692719768 818.9744433938107C905.9180692719768 783.0504433938107 982.7480692719766 718.0604433938107 1033.5930692719767 635.3799433938108zM853.1630692719768 462.3389433938107V465.4589433938107C846.9130692719768 568.4279433938107 765.6630692719768 646.4349433938106 665.6630692719768 646.4349433938106C559.4130692719768 646.4349433938106 468.8315692719768 562.1874433938107 462.5815692719768 465.4589433938107V462.3389433938107H853.1630692719768z" /><glyph glyph-name="chrome-fill"
            unicode="&#xEB8C;"
            horiz-adv-x="1200" d="M491.3630000000001 -68.165C267.456 -18.5599999999999 100 181.165 100 420C100 511.105 124.367 596.521 166.939 670.0830000000001L381.0945 299.155C423.698 222.145 505.76 170 600 170C610.115 170 620.09 170.6 629.89 171.77L491.3630000000001 -68.165zM600 -80L814.3399999999999 291.245C836.98 328.855 850 372.905 850 420C850 476.28 831.405 528.217 800.02 570H1077.1100000000001C1091.98 522.648 1100 472.26 1100 420C1100 143.86 876.14 -80 600 -80zM728.605 342.75C702.365 299.16 654.5849999999999 270 600 270C544.485 270 496.012 300.16 470.0745000000001 344.99L468.6565 347.495C456.7675 368.985 450 393.7000000000001 450 420C450 502.845 517.155 570 600 570C682.845 570 750 502.845 750 420C750 392.675 742.6949999999999 367.0550000000001 729.925 344.99L728.605 342.75zM231.61 758.0705C323.004 857.6085 454.216 920 600 920C785.0699999999999 920 946.655 819.4505 1033.11 670H600C496.8174999999999 670 408.235 607.4905 370.056 518.2750000000001L231.61 758.0705z" /><glyph glyph-name="baidu-fill"
            unicode="&#xEA8B;"
            horiz-adv-x="1200" d="M296.4099784564254 394.4584202574478C399.5524784564255 416.6084202574478 385.4994784564253 539.8684202574477 382.4124784564255 566.8089202574477C377.3609784564254 608.3424202574477 328.5099784564254 680.9394202574476 262.1729784564255 675.1969202574477C178.6959784564254 667.7064202574477 166.4994784564254 547.1214202574477 166.4994784564254 547.1214202574477C155.2094784564254 491.3834202574477 193.5264784564254 372.2884202574477 296.4099784564254 394.4584202574478zM405.9424784564254 180.0584202574477C402.9199784564254 171.3984202574477 396.1849784564254 149.2284202574478 402.0134784564254 129.9334202574478C413.5194784564253 86.6284202574477 451.1024784564254 84.6834202574477 451.1024784564254 84.6834202574477H505.1119784564254V216.7134202574477H447.2814784564254C421.2904784564254 208.9634202574478 408.7484784564255 188.7334202574476 405.9424784564254 180.0584202574477zM487.8434784564254 601.1539202574477C544.8119784564253 601.1539202574477 590.8569784564254 666.7134202574478 590.8569784564254 747.7724202574477C590.8569784564254 828.7454202574477 544.8119784564253 894.2834202574477 487.8434784564254 894.2834202574477C430.9614784564255 894.2834202574477 384.8084784564254 828.7454202574477 384.8084784564254 747.7724202574477C384.8084784564254 666.7134202574478 430.9834784564254 601.1539202574477 487.8434784564254 601.1539202574477zM733.2019784564254 591.4614202574477C809.3369784564253 581.5744202574476 858.2969784564254 662.8279202574477 868.0319784564253 724.4154202574477C877.9619784564255 785.9169202574477 828.8319784564254 857.3479202574476 774.9269784564254 869.6309202574477C720.9169784564253 882.0219202574477 653.4819784564254 795.5014202574476 647.3269784564254 739.0944202574476C639.9869784564254 670.1459202574476 657.1919784564254 601.2399202574477 733.2019784564254 591.4614202574477zM733.1769784564254 419.0884202574478C639.9669784564254 564.3264202574477 507.5519784564254 505.2234202574476 463.2559784564254 431.3484202574478C419.1534784564255 357.5034202574477 350.4204784564254 310.7884202574477 340.6634784564253 298.4184202574477C330.7549784564254 286.2434202574477 198.3619784564254 214.7684202574477 227.7634784564254 84.2334202574476C257.1434784564254 -46.2165797425523 360.3724784564254 -43.7365797425523 360.3724784564254 -43.7365797425523C360.3724784564254 -43.7365797425523 436.4449784564254 -51.2265797425523 524.6919784564254 -31.4765797425523C612.9819784564254 -11.8965797425524 688.9919784564254 -36.3515797425523 688.9919784564254 -36.3515797425523C688.9919784564254 -36.3515797425523 895.2119784564254 -105.4115797425522 951.6419784564254 27.5234202574477C1008.0019784564254 160.4984202574477 919.7569784564254 229.4484202574478 919.7569784564254 229.4484202574478C919.7569784564254 229.4484202574478 801.9569784564253 320.5884202574477 733.1769784564254 419.0884202574478zM432.8399784564255 31.6034202574477C374.9434784564254 43.1534202574477 351.8884784564254 82.6584202574476 348.9744784564254 89.3934202574477C346.1249784564254 96.2334202574477 329.6754784564254 127.9884202574476 338.3749784564253 182.0184202574477C363.3944784564254 262.9734202574477 434.7394784564254 268.7784202574477 434.7394784564254 268.7784202574477H506.1069784564254V356.5084202574477L566.8969784564254 355.5784202574477V31.6034202574477H432.8399784564255zM662.3319784564254 32.5334202574477C602.5369784564253 47.9434202574477 599.7519784564254 90.4284202574477 599.7519784564254 90.4284202574477V261.0284202574477L662.3319784564254 262.0434202574477V108.7134202574476C666.1519784564254 92.3484202574477 686.4669784564254 89.3934202574477 686.4669784564254 89.3934202574477H750.0369784564255V261.0284202574477H816.6119784564255V32.5334202574477H662.3319784564254zM1035.0069784564253 488.0384202574477C1035.0069784564253 517.5034202574477 1010.5269784564254 606.2269202574478 919.7569784564254 606.2269202574478C828.8319784564254 606.2269202574478 816.6769784564254 522.4909202574477 816.6769784564254 463.2984202574477C816.6769784564254 406.8084202574477 821.4469784564254 327.9484202574477 934.3919784564254 330.4534202574477C1047.3769784564251 332.9584202574478 1035.0069784564253 458.4184202574477 1035.0069784564253 488.0384202574477z" /><glyph glyph-name="alipay-fill"
            unicode="&#xEA2B;"
            horiz-adv-x="1200" d="M1071.12 252.12C879.645 309.76 768.335 344.12 737.2 355.2000000000001C765.6 404 788.4000000000001 460 803.2 521.1999999999999H640V576.4H840V610.4H640V702.8H563.1999999999999C549.2 702.8 547.6 690.4000000000001 547.6 690.4000000000001V610.8H360V576.8H547.6V521.6H394V490.8000000000001H705.1999999999999C694 452 678.8000000000001 415.2000000000001 660.8 382C590.4 405.2000000000001 551.1999999999999 421.2 465.2 429.2C302.4 444.8000000000001 264.8 355.2000000000001 258.8 300.4C250 216.8 324 148.8000000000001 434.4000000000001 148.8000000000001C544.8000000000001 148.8000000000001 618.4 200.0000000000001 688.4000000000001 284.8C746.73 256.905 855.295 208.5350000000001 1014.095 139.69C924.175 7.115 772.26 -80 600 -80C323.8575 -80 100 143.86 100 420C100 696.1424999999999 323.8575 920 600 920C876.14 920 1100 696.1424999999999 1100 420C1100 361.11 1089.82 304.5950000000001 1071.12 252.12zM421.6 201.6C304.8 201.6 286.4 275.6 292.4 306.4C298.4 337.2 332.4 377.2000000000001 397.6 377.2000000000001C472.4 377.2000000000001 539.2 358 619.6 319.2000000000001C562.8 245.2 493.6 201.6 421.6 201.6z" /><glyph glyph-name="edit-line"
            unicode="&#xEC86;"
            horiz-adv-x="1200" d="M320.7105 220.7355L827.815 727.8430000000001L757.105 798.554L250 291.4455000000001V220.7355H320.7105zM362.132 120.7355H150V332.8705L721.75 904.62C741.28 924.146 772.9350000000001 924.146 792.46 904.62L933.8850000000002 763.1985C953.41 743.6725 953.41 712.014 933.8850000000002 692.488L362.132 120.7355zM150 20.7355H1050V-79.2645H150V20.7355z" /><glyph glyph-name="edit-fill"
            unicode="&#xEC85;"
            horiz-adv-x="1200" d="M362.132 120.73525H150V332.8702500000001L721.75 904.62025C741.28 924.14625 772.9350000000001 924.14625 792.46 904.62025L933.8850000000002 763.19875C953.41 743.67275 953.41 712.01425 933.8850000000002 692.48825L362.132 120.73525zM150 20.73525H1050V-79.26475H150V20.73525z" /><glyph glyph-name="delete-bin-line"
            unicode="&#xEC2A;"
            horiz-adv-x="1200" d="M850 720H1100V620H1000V-30C1000 -57.615 977.6149999999998 -80 950 -80H250C222.386 -80 200 -57.615 200 -30V620H100V720H350V870C350 897.614 372.386 920 400 920H800C827.6149999999999 920 850 897.614 850 870V720zM900 620H300V20H900V620zM450 470H550V170H450V470zM650 470H750V170H650V470zM450 820V720H750V820H450z" /><glyph glyph-name="menu-fold-line"
            unicode="&#xEF3D;"
            horiz-adv-x="1200" d="M1075 117.5955V17.5955H175V117.5955H1075zM354.8095 822.4045000000001L425.5205000000001 751.694L266.4215000000001 592.595L425.5205000000001 433.4955L354.8095 362.7854999999999L125 592.595L354.8095 822.4045000000001zM1075 467.5955V367.5955H625V467.5955H1075zM1075 817.595V717.595H625V817.595H1075z" /><glyph glyph-name="menu-unfold-line"
            unicode="&#xEF40;"
            horiz-adv-x="1200" d="M1025 117.5955V17.5955H125V117.5955H1025zM845.19 822.4045000000001L1075 592.595L845.19 362.7854999999999L774.48 433.4955L933.58 592.595L774.48 751.694L845.19 822.4045000000001zM575 467.5955V367.5955H125V467.5955H575zM575 817.595V717.595H125V817.595H575z" /><glyph glyph-name="menu-line"
            unicode="&#xEF3E;"
            horiz-adv-x="1200" d="M150 820H1050V720H150V820zM150 470H1050V370H150V470zM150 120H1050V20H150V120z" /><glyph glyph-name="volume-up-line"
            unicode="&#xF2A2;"
            horiz-adv-x="1200" d="M330.141 519.9969009432918L500 658.9739009432919V181.021900943292L330.141 319.9969009432919H150V519.9969009432918H330.141zM100 219.9969009432919H294.4445L559.1700000000001 3.4069009432919C563.635 -0.2480990567081 569.23 -2.2430990567081 575 -2.2430990567081C588.805 -2.2430990567081 600 8.946900943292 600 22.7569009432919V817.2424009432918C600 823.0134009432918 598.005 828.606900943292 594.35 833.073400943292C585.605 843.7594009432919 569.855 845.3344009432919 559.1700000000001 836.591400943292L294.4445 619.9984009432919H100C72.386 619.9984009432919 50 597.6129009432918 50 569.9984009432919V269.9969009432919C50 242.3819009432919 72.386 219.9969009432919 100 219.9969009432919zM1150 420.0019009432919C1150 255.4019009432919 1077.695 107.6869009432919 963.11 6.8919009432919L892.225 77.7819009432919C988.79 160.316900943292 1050 283.0119009432919 1050 420.0019009432919C1050 556.9939009432919 988.79 679.687400943292 892.225 762.2234009432918L963.11 833.112400943292C1077.695 732.317900943292 1150 584.6044009432919 1150 420.0019009432919zM900 420.0019009432919C900 515.586900943292 855.3000000000001 600.7279009432921 785.665 655.6654009432918L714.21 584.2099009432918C766.065 548.074400943292 800 488.0019009432919 800 420.0019009432919C800 352.0019009432919 766.065 291.9319009432919 714.21 255.7969009432919L785.665 184.3419009432918C855.3000000000001 239.2769009432919 900 324.4219009432919 900 420.0019009432919z" /><glyph glyph-name="volume-down-line"
            unicode="&#xF29C;"
            horiz-adv-x="1200" d="M625 658.9759009432919L455.141 520.0004009432919H275V320.0004009432919H455.141L625 181.025400943292V658.9759009432919zM419.4445 220.0004009432919H225C197.386 220.0004009432919 175 242.3854009432919 175 270.0004009432919V569.9999009432919C175 597.6144009432919 197.386 619.9999009432919 225 619.9999009432919H419.4445L684.1700000000001 836.5929009432919C694.855 845.3359009432919 710.605 843.7609009432919 719.35 833.0749009432918C723.005 828.6084009432918 725 823.0149009432919 725 817.2439009432919V22.7554009432919C725 8.9504009432919 713.805 -2.2445990567081 700 -2.2445990567081C694.23 -2.2445990567081 688.635 -0.2495990567081 684.1700000000001 3.4054009432919L419.4445 220.0004009432919zM918.155 190.4454009432918L847.055 261.5504009432919C894.4599999999999 298.1204009432919 925 355.4954009432919 925 420.0004009432919C925 491.5154009432919 887.465 554.2659009432919 831.015 589.6204009432919L902.945 661.5504009432918C976.98 606.920400943292 1025 519.0654009432918 1025 420.0004009432919C1025 327.8904009432919 983.4899999999998 245.4804009432919 918.155 190.4454009432918z" /><glyph glyph-name="file-copy-2-line"
            unicode="&#xECD3;"
            horiz-adv-x="1200" d="M349.995 720V870C349.995 897.614 372.381 920 399.995 920H999.995C1027.6100000000001 920 1049.995 897.614 1049.995 870V170C1049.995 142.3850000000001 1027.6100000000001 120 999.995 120H849.995V-29.9549999999999C849.995 -57.595 827.5 -80 799.655 -80H200.338C172.5345 -80 150.005 -57.77 150.005 -29.9549999999999L150.135 669.9565C150.14 697.5945 172.637 720 200.476 720H349.995zM250.126 620L250.0145 20H749.995V620H250.126zM449.995 720H849.995V220H949.995V820H449.995V720zM350.005 470H650.005V370H350.005V470zM350.005 270H650.005V170H350.005V270z" /><glyph glyph-name="clipboard-line"
            unicode="&#xEB91;"
            horiz-adv-x="1200" d="M350 820V920H850V820H1000.33C1027.76 820 1050 797.7524999999999 1050 770.3299999999999V-30.3299999999999C1050 -57.76 1027.7549999999999 -80 1000.33 -80H199.67C172.238 -80 150 -57.7549999999999 150 -30.3299999999999V770.3299999999999C150 797.7620000000001 172.2475 820 199.67 820H350zM350 720H250V20H950V720H850V620H350V720zM450 820V720H750V820H450z" /><glyph glyph-name="javascript-line"
            unicode="&#xF33B;"
            horiz-adv-x="1200" d="M666.72 217.25L623.82 157.85C664.52 121.55 715.12 103.4 775.62 103.4C821.8199999999999 104.5000000000001 857.02 116.415 881.22 139.15C905.785 162.25 918.07 189.75 918.07 221.65C918.07 252.815 909.455 278.485 892.22 298.65C874.985 318.8150000000001 846.02 334.95 805.32 347.0500000000001C771.5849999999999 357.315 747.755 366.665 733.8199999999999 375.1C719.885 383.9 712.92 394.535 712.92 407C712.92 418.365 718.605 427.5350000000001 729.9699999999999 434.5C741.335 441.4650000000001 756.555 444.9500000000001 775.62 444.9500000000001C789.5550000000001 444.9500000000001 805.32 442.2000000000001 822.9200000000001 436.7C840.5200000000001 431.935 856.105 424.235 869.67 413.6L908.17 473.55C874.4350000000001 500.6849999999999 829.705 514.25 773.97 514.25C734.005 514.25 701.185 503.985 675.52 483.45C649.12 462.915 635.9200000000001 437.435 635.9200000000001 407C636.285 374.735 646.92 349.615 667.82 331.65C689.085 313.685 719.3349999999999 299.015 758.57 287.65C791.2049999999999 277.385 813.3850000000001 267.115 825.1200000000001 256.85C836.485 246.5850000000001 842.17 234.115 842.17 219.4500000000001C842.17 205.15 836.485 194.15 825.1200000000001 186.4500000000001C813.3850000000001 178.385 796.52 174.35 774.52 174.35C738.5849999999999 173.9849999999999 702.655 188.285 666.72 217.25zM390.2025 185.3499999999999C379.2025000000001 191.9500000000001 368.9360000000001 201.665 359.4025 214.5L307.7025 172.15C323.1025 146.115 342.1695000000001 127.9650000000002 364.9025 117.7000000000001C386.1695000000001 108.1650000000001 410.5525 103.4 438.0525 103.4C453.086 103.4 468.6695 105.7849999999999 484.8025 110.55C500.9350000000001 115.3150000000001 515.785 123.3849999999999 529.355 134.7500000000001C553.1850000000001 153.8150000000001 565.655 184.9850000000001 566.755 228.25V507.65H492.5025V242.5500000000001C492.5025 217.25 486.8195 199.465 475.4525 189.2000000000001C464.086 179.3 449.786 174.35 432.5525 174.35C416.0525 174.35 401.936 178.015 390.2025 185.3499999999999zM150 720C150 802.8425 217.1575 870 300 870H900C982.845 870 1050 802.8425 1050 720V120C1050 37.155 982.845 -30 900 -30H300C217.1575 -30 150 37.155 150 120V720zM300 770C272.386 770 250 747.614 250 720V120C250 92.3850000000001 272.386 70 300 70H900C927.6149999999998 70 950 92.3850000000001 950 120V720C950 747.614 927.6149999999998 770 900 770H300z" /></font>
</defs>
</svg>
