<svg xmlns="http://www.w3.org/2000/svg" xmlns:xlink="http://www.w3.org/1999/xlink" width="0" height="0" style="display:none;"><symbol viewBox="0 0 24 24" id="bold"><path d="M8 11H12.5C13.8807 11 15 9.88071 15 8.5C15 7.11929 13.8807 6 12.5 6H8V11ZM18 15.5C18 17.9853 15.9853 20 13.5 20H6V4H12.5C14.9853 4 17 6.01472 17 8.5C17 9.70431 16.5269 10.7981 15.7564 11.6058C17.0979 12.3847 18 13.837 18 15.5ZM8 13V18H13.5C14.8807 18 16 16.8807 16 15.5C16 14.1193 14.8807 13 13.5 13H8Z"></path></symbol><symbol viewBox="0 0 24 24" id="italic"><path d="M15 20H7V18H9.92661L12.0425 6H9V4H17V6H14.0734L11.9575 18H15V20Z"></path></symbol><symbol viewBox="0 0 24 24" id="text"><path d="M13 6V21H11V6H5V4H19V6H13Z"></path></symbol><symbol viewBox="0 0 24 24" id="heading"><path d="M17 11V4H19V21H17V13H7V21H5V4H7V11H17Z"></path></symbol><symbol viewBox="0 0 24 24" id="font-family"><path d="M5.55397 22H3.3999L10.9999 3H12.9999L20.5999 22H18.4458L16.0458 16H7.95397L5.55397 22ZM8.75397 14H15.2458L11.9999 5.88517L8.75397 14Z"></path></symbol><symbol viewBox="0 0 24 24" id="font-sans-serif"><path d="M5 4H19V8H17.5C17 6 17 5 15 5H10V12H13C14 12 15 11.5 15 10H16V15H15C15 13.5 14 13 13 13H10V17.5C10 20 13.5 20 13.5 20V21H5V20C7 19.5 7 18.5 7 17.5V7.5C7 6.5 7 5.5 5 5V4Z"></path></symbol><symbol viewBox="0 0 24 24" id="font-sans"><path d="M7 4H19V6H10V12H18V14H10V21H7V4Z"></path></symbol><symbol viewBox="0 0 24 24" id="font-mono"><path d="M6 4H19V6H8V12H18V14H8V21H6V4Z"></path></symbol><symbol viewBox="0 0 24 24" id="font-color"><path d="M15.2459 14H8.75407L7.15407 18H5L11 3H13L19 18H16.8459L15.2459 14ZM14.4459 12L12 5.88516L9.55407 12H14.4459ZM3 20H21V22H3V20Z"></path></symbol><symbol viewBox="0 0 24 24" id="font-size"><path d="M11.246 15H4.75416L2.75416 20H0.600098L7.0001 4H9.0001L15.4001 20H13.246L11.246 15ZM10.446 13L8.0001 6.88516L5.55416 13H10.446ZM21.0001 12.5351V12H23.0001V20H21.0001V19.4649C20.4118 19.8052 19.7287 20 19.0001 20C16.791 20 15.0001 18.2091 15.0001 16C15.0001 13.7909 16.791 12 19.0001 12C19.7287 12 20.4118 12.1948 21.0001 12.5351ZM19.0001 18C20.1047 18 21.0001 17.1046 21.0001 16C21.0001 14.8954 20.1047 14 19.0001 14C17.8955 14 17.0001 14.8954 17.0001 16C17.0001 17.1046 17.8955 18 19.0001 18Z"></path></symbol><symbol viewBox="0 0 24 24" id="underline"><path d="M8 3V12C8 14.2091 9.79086 16 12 16C14.2091 16 16 14.2091 16 12V3H18V12C18 15.3137 15.3137 18 12 18C8.68629 18 6 15.3137 6 12V3H8ZM4 20H20V22H4V20Z"></path></symbol><symbol viewBox="0 0 24 24" id="overline"><path d="M15.2459 18H8.75407L7.15407 22H5L11 7H13L19 22H16.8459L15.2459 18ZM14.4459 16L12 9.88516L9.55407 16H14.4459ZM4 3H20V5H4V3Z"></path></symbol><symbol viewBox="0 0 24 24" id="strikethrough"><path d="M17.1538 14C17.3846 14.5161 17.5 15.0893 17.5 15.7196C17.5 17.0625 16.9762 18.1116 15.9286 18.867C14.8809 19.6223 13.4335 20 11.5862 20C9.94674 20 8.32335 19.6185 6.71592 18.8555V16.6009C8.23538 17.4783 9.7908 17.917 11.3822 17.917C13.9333 17.917 15.2128 17.1846 15.2208 15.7196C15.2208 15.0939 15.0049 14.5598 14.5731 14.1173C14.5339 14.0772 14.4939 14.0381 14.4531 14H3V12H21V14H17.1538ZM13.076 11H7.62908C7.4566 10.8433 7.29616 10.6692 7.14776 10.4778C6.71592 9.92084 6.5 9.24559 6.5 8.45207C6.5 7.21602 6.96583 6.165 7.89749 5.299C8.82916 4.43299 10.2706 4 12.2219 4C13.6934 4 15.1009 4.32808 16.4444 4.98426V7.13591C15.2448 6.44921 13.9293 6.10587 12.4978 6.10587C10.0187 6.10587 8.77917 6.88793 8.77917 8.45207C8.77917 8.87172 8.99709 9.23796 9.43293 9.55079C9.86878 9.86362 10.4066 10.1135 11.0463 10.3004C11.6665 10.4816 12.3431 10.7148 13.076 11H13.076Z"></path></symbol><symbol viewBox="0 0 24 24" id="list-ordered"><path d="M8 4H21V6H8V4ZM5 3V6H6V7H3V6H4V4H3V3H5ZM3 14V11.5H5V11H3V10H6V12.5H4V13H6V14H3ZM5 19.5H3V18.5H5V18H3V17H6V21H3V20H5V19.5ZM8 11H21V13H8V11ZM8 18H21V20H8V18Z"></path></symbol><symbol viewBox="0 0 24 24" id="list-unordered"><path d="M8 4H21V6H8V4ZM4.5 6.5C3.67157 6.5 3 5.82843 3 5C3 4.17157 3.67157 3.5 4.5 3.5C5.32843 3.5 6 4.17157 6 5C6 5.82843 5.32843 6.5 4.5 6.5ZM4.5 13.5C3.67157 13.5 3 12.8284 3 12C3 11.1716 3.67157 10.5 4.5 10.5C5.32843 10.5 6 11.1716 6 12C6 12.8284 5.32843 13.5 4.5 13.5ZM4.5 20.4C3.67157 20.4 3 19.7284 3 18.9C3 18.0716 3.67157 17.4 4.5 17.4C5.32843 17.4 6 18.0716 6 18.9C6 19.7284 5.32843 20.4 4.5 20.4ZM8 11H21V13H8V11ZM8 18H21V20H8V18Z"></path></symbol><symbol viewBox="0 0 24 24" id="code-view"><path d="M16.95 8.46448L18.3642 7.05026L23.3139 12L18.3642 16.9498L16.95 15.5355L20.4855 12L16.95 8.46448ZM7.05048 8.46448L3.51495 12L7.05048 15.5355L5.63627 16.9498L0.686523 12L5.63627 7.05026L7.05048 8.46448Z"></path></symbol><symbol viewBox="0 0 24 24" id="paragraph"><path d="M12 6V21H10V16C6.68629 16 4 13.3137 4 10C4 6.68629 6.68629 4 10 4H20V6H17V21H15V6H12ZM10 6C7.79086 6 6 7.79086 6 10C6 12.2091 7.79086 14 10 14V6Z"></path></symbol><symbol viewBox="0 0 24 24" id="quote-text"><path d="M21 4H3V6H21V4ZM21 11H8V13H21V11ZM21 18H8V20H21V18ZM5 11H3V20H5V11Z"></path></symbol><symbol viewBox="0 0 24 24" id="h-1"><path d="M13 20H11V13H4V20H2V4H4V11H11V4H13V20ZM21.0005 8V20H19.0005L19 10.204L17 10.74V8.67L19.5005 8H21.0005Z"></path></symbol><symbol viewBox="0 0 24 24" id="h-2"><path d="M4 4V11H11V4H13V20H11V13H4V20H2V4H4ZM18.5 8C20.5711 8 22.25 9.67893 22.25 11.75C22.25 12.6074 21.9623 13.3976 21.4781 14.0292L21.3302 14.2102L18.0343 18H22V20H15L14.9993 18.444L19.8207 12.8981C20.0881 12.5908 20.25 12.1893 20.25 11.75C20.25 10.7835 19.4665 10 18.5 10C17.5818 10 16.8288 10.7071 16.7558 11.6065L16.75 11.75H14.75C14.75 9.67893 16.4289 8 18.5 8Z"></path></symbol><symbol viewBox="0 0 24 24" id="h-3"><path d="M22 8L21.9984 10L19.4934 12.883C21.0823 13.3184 22.25 14.7728 22.25 16.5C22.25 18.5711 20.5711 20.25 18.5 20.25C16.674 20.25 15.1528 18.9449 14.8184 17.2166L16.7821 16.8352C16.9384 17.6413 17.6481 18.25 18.5 18.25C19.4665 18.25 20.25 17.4665 20.25 16.5C20.25 15.5335 19.4665 14.75 18.5 14.75C18.214 14.75 17.944 14.8186 17.7056 14.9403L16.3992 13.3932L19.3484 10H15V8H22ZM4 4V11H11V4H13V20H11V13H4V20H2V4H4Z"></path></symbol><symbol viewBox="0 0 24 24" id="h-4"><path d="M13 20H11V13H4V20H2V4H4V11H11V4H13V20ZM22 8V16H23.5V18H22V20H20V18H14.5V16.66L19.5 8H22ZM20 11.133L17.19 16H20V11.133Z"></path></symbol><symbol viewBox="0 0 24 24" id="h-5"><path d="M22 8V10H17.6769L17.2126 12.6358C17.5435 12.5472 17.8912 12.5 18.25 12.5C20.4591 12.5 22.25 14.2909 22.25 16.5C22.25 18.7091 20.4591 20.5 18.25 20.5C16.4233 20.5 14.8827 19.2756 14.4039 17.6027L16.3271 17.0519C16.5667 17.8881 17.3369 18.5 18.25 18.5C19.3546 18.5 20.25 17.6046 20.25 16.5C20.25 15.3954 19.3546 14.5 18.25 14.5C17.6194 14.5 17.057 14.7918 16.6904 15.2478L14.8803 14.3439L16 8H22ZM4 4V11H11V4H13V20H11V13H4V20H2V4H4Z"></path></symbol><symbol viewBox="0 0 24 24" id="h-6"><path d="M21.097 8L18.499 12.5C20.7091 12.5 22.5 14.2909 22.5 16.5C22.5 18.7091 20.7091 20.5 18.5 20.5C16.2909 20.5 14.5 18.7091 14.5 16.5C14.5 15.7636 14.699 15.0737 15.0461 14.4811L18.788 8H21.097ZM4 4V11H11V4H13V20H11V13H4V20H2V4H4ZM18.5 14.5C17.3954 14.5 16.5 15.3954 16.5 16.5C16.5 17.6046 17.3954 18.5 18.5 18.5C19.6046 18.5 20.5 17.6046 20.5 16.5C20.5 15.3954 19.6046 14.5 18.5 14.5Z"></path></symbol><symbol viewBox="0 0 24 24" id="slash-commands"><path d="M3 3H5V7H3V3ZM9.78839 21H7.66003L14.2115 3H16.3398L9.78839 21ZM21 3H19V7H21V3Z"></path></symbol><symbol viewBox="0 0 24 24" id="formula"><path d="M10 2C7.79086 2 6 3.79086 6 6V9H3V11H6V18C6 19.1046 5.10457 20 4 20H3V22H4C6.20914 22 8 20.2091 8 18V11H11V9H8V6C8 4.89543 8.89543 4 10 4H11V2H10ZM15.2022 16.9971L11.8907 21H14.4864L16.5 18.5659L18.5137 21H21.1093L17.7979 16.9971L21.1046 13H18.5089L16.5 15.4283L14.4912 13H11.8955L15.2022 16.9971Z"></path></symbol><symbol viewBox="0 0 24 24" id="square-root"><path d="M15.382 4H22V6H16.618L9 21.2361L5.38197 14H2V12H6.61803L9 16.7639L15.382 4Z"></path></symbol><symbol viewBox="0 0 24 24" id="sketching"><path d="M10.0357 7.69802C8.38492 9.55932 6.5134 12.2442 4.89465 15.4817C4.64766 15.9757 4.04698 16.1759 3.55301 15.9289C3.05903 15.6819 2.8588 15.0812 3.10579 14.5873C4.79739 11.2041 6.76494 8.37171 8.53943 6.37095C9.4251 5.37234 10.2797 4.56162 11.0449 3.99131C11.4272 3.7063 11.8049 3.46806 12.1677 3.29756C12.5193 3.13234 12.921 3 13.3336 3C13.5496 3 13.7872 3.0535 14.007 3.19476C14.2233 3.33371 14.3629 3.51925 14.4495 3.69083C14.6066 4.00215 14.624 4.33473 14.6201 4.55938C14.6118 5.03651 14.4847 5.6328 14.3216 6.23975C13.9874 7.48318 13.3994 9.13104 12.8149 10.7577L12.7329 10.9858C12.1671 12.5598 11.6101 14.1093 11.248 15.3466C11.1505 15.68 11.0706 15.9792 11.0094 16.2414C11.7035 15.6835 12.5581 14.8454 13.466 13.9534L13.4956 13.9243C14.3772 13.0581 15.3098 12.1418 16.0967 11.5127C16.4872 11.2006 16.9082 10.904 17.3138 10.7322C17.6544 10.5878 18.4343 10.3532 19.0407 10.9596C19.4251 11.344 19.5318 11.8438 19.5594 12.2164C19.5883 12.6064 19.5429 13.0267 19.4725 13.4261C19.3315 14.2258 19.0483 15.159 18.7894 16.0009L18.7478 16.136C18.5165 16.8874 18.3102 17.5577 18.1926 18.0965C18.4529 17.8352 18.7734 17.4216 19.1475 16.811C19.436 16.34 20.0517 16.1921 20.5226 16.4806C20.9935 16.7691 21.1414 17.3848 20.8529 17.8557C20.3099 18.7422 19.748 19.4622 19.1519 19.9092C18.5283 20.377 17.7121 20.6407 16.8863 20.2278C16.2779 19.9235 16.1398 19.3173 16.1091 18.9819C16.0759 18.6192 16.1284 18.2233 16.1979 17.8667C16.3288 17.1944 16.5829 16.3698 16.823 15.5907L16.8777 15.4129C17.1447 14.5451 17.3873 13.734 17.5028 13.0789C17.5117 13.0284 17.5196 12.9802 17.5266 12.9341C17.4697 12.977 17.4094 13.0239 17.3455 13.0749C16.6477 13.6328 15.785 14.4788 14.8677 15.38L14.8381 15.4091C13.9566 16.2752 13.024 17.1915 12.2371 17.8206C11.8466 18.1328 11.4255 18.4293 11.02 18.6012C10.6794 18.7455 9.89947 18.9801 9.29311 18.3738C8.9843 18.065 8.9052 17.6753 8.87972 17.4382C8.8515 17.1755 8.86901 16.8971 8.90269 16.6351C8.9706 16.1069 9.12934 15.4656 9.32855 14.7849C9.70829 13.4872 10.2842 11.8852 10.8411 10.3362L10.9327 10.0814C11.5263 8.42931 12.082 6.8674 12.3901 5.72074C12.4172 5.61968 12.4418 5.52435 12.4638 5.43468C12.3924 5.48361 12.3178 5.53695 12.2401 5.59489C11.6173 6.05907 10.8627 6.76559 10.0357 7.69802Z"></path></symbol><symbol viewBox="0 0 24 24" id="draggable"><path d="M8.5 7C9.32843 7 10 6.32843 10 5.5C10 4.67157 9.32843 4 8.5 4C7.67157 4 7 4.67157 7 5.5C7 6.32843 7.67157 7 8.5 7ZM8.5 13.5C9.32843 13.5 10 12.8284 10 12C10 11.1716 9.32843 10.5 8.5 10.5C7.67157 10.5 7 11.1716 7 12C7 12.8284 7.67157 13.5 8.5 13.5ZM10 18.5C10 19.3284 9.32843 20 8.5 20C7.67157 20 7 19.3284 7 18.5C7 17.6716 7.67157 17 8.5 17C9.32843 17 10 17.6716 10 18.5ZM15.5 7C16.3284 7 17 6.32843 17 5.5C17 4.67157 16.3284 4 15.5 4C14.6716 4 14 4.67157 14 5.5C14 6.32843 14.6716 7 15.5 7ZM17 12C17 12.8284 16.3284 13.5 15.5 13.5C14.6716 13.5 14 12.8284 14 12C14 11.1716 14.6716 10.5 15.5 10.5C16.3284 10.5 17 11.1716 17 12ZM15.5 20C16.3284 20 17 19.3284 17 18.5C17 17.6716 16.3284 17 15.5 17C14.6716 17 14 17.6716 14 18.5C14 19.3284 14.6716 20 15.5 20Z"></path></symbol><symbol viewBox="0 0 24 24" id="table-view"><path d="M3 3C2.44772 3 2 3.44772 2 4V20C2 20.5523 2.44772 21 3 21H21C21.5523 21 22 20.5523 22 20V4C22 3.44772 21.5523 3 21 3H3ZM8 5V8H4V5H8ZM4 14V10H8V14H4ZM4 16H8V19H4V16ZM10 16H20V19H10V16ZM20 14H10V10H20V14ZM20 5V8H10V5H20Z"></path></symbol><symbol viewBox="0 0 24 24" id="list-view"><path d="M2 4C2 3.44772 2.44772 3 3 3H21C21.5523 3 22 3.44772 22 4V20C22 20.5523 21.5523 21 21 21H3C2.44772 21 2 20.5523 2 20V4ZM4 5V19H20V5H4ZM6 7H8V9H6V7ZM8 11H6V13H8V11ZM6 15H8V17H6V15ZM18 7H10V9H18V7ZM10 15H18V17H10V15ZM18 11H10V13H18V11Z"></path></symbol><symbol viewBox="0 0 24 24" id="code-block"><path d="M3.41436 5.99995L5.70726 3.70706L4.29304 2.29285L0.585938 5.99995L4.29304 9.70706L5.70726 8.29285L3.41436 5.99995ZM9.58594 5.99995L7.29304 3.70706L8.70726 2.29285L12.4144 5.99995L8.70726 9.70706L7.29304 8.29285L9.58594 5.99995ZM14.0002 2.99995H21.0002C21.5524 2.99995 22.0002 3.44767 22.0002 3.99995V20C22.0002 20.5522 21.5524 21 21.0002 21H3.00015C2.44787 21 2.00015 20.5522 2.00015 20V12H4.00015V19H20.0002V4.99995H14.0002V2.99995Z"></path></symbol><symbol viewBox="0 0 24 24" id="list-check"><path d="M8 4H21V6H8V4ZM3 3.5H6V6.5H3V3.5ZM3 10.5H6V13.5H3V10.5ZM3 17.5H6V20.5H3V17.5ZM8 11H21V13H8V11ZM8 18H21V20H8V18Z"></path></symbol><symbol viewBox="0 0 24 24" id="separator"><path d="M2 11H4V13H2V11ZM6 11H18V13H6V11ZM20 11H22V13H20V11Z"></path></symbol><symbol viewBox="0 0 24 24" id="text-wrap"><path d="M15 18H16.5C17.8807 18 19 16.8807 19 15.5C19 14.1193 17.8807 13 16.5 13H3V11H16.5C18.9853 11 21 13.0147 21 15.5C21 17.9853 18.9853 20 16.5 20H15V22L11 19L15 16V18ZM3 4H21V6H3V4ZM9 18V20H3V18H9Z"></path></symbol><symbol viewBox="0 0 24 24" id="arrow-right-s-line"><path d="M13.1717 12.0007L8.22192 7.05093L9.63614 5.63672L16.0001 12.0007L9.63614 18.3646L8.22192 16.9504L13.1717 12.0007Z"></path></symbol><symbol viewBox="0 0 24 24" id="search-line"><path d="M18.031 16.6168L22.3137 20.8995L20.8995 22.3137L16.6168 18.031C15.0769 19.263 13.124 20 11 20C6.032 20 2 15.968 2 11C2 6.032 6.032 2 11 2C15.968 2 20 6.032 20 11C20 13.124 19.263 15.0769 18.031 16.6168ZM16.0247 15.8748C17.2475 14.6146 18 12.8956 18 11C18 7.1325 14.8675 4 11 4C7.1325 4 4 7.1325 4 11C4 14.8675 7.1325 18 11 18C12.8956 18 14.6146 17.2475 15.8748 16.0247L16.0247 15.8748Z"></path></symbol><symbol viewBox="0 0 24 24" id="book-open-line"><path d="M13 21V23H11V21H3C2.44772 21 2 20.5523 2 20V4C2 3.44772 2.44772 3 3 3H9C10.1947 3 11.2671 3.52375 12 4.35418C12.7329 3.52375 13.8053 3 15 3H21C21.5523 3 22 3.44772 22 4V20C22 20.5523 21.5523 21 21 21H13ZM20 19V5H15C13.8954 5 13 5.89543 13 7V19H20ZM11 19V7C11 5.89543 10.1046 5 9 5H4V19H11Z"></path></symbol><symbol viewBox="0 0 24 24" id="hashtag"><path d="M7.78428 14L8.2047 10H4V8H8.41491L8.94043 3H10.9514L10.4259 8H14.4149L14.9404 3H16.9514L16.4259 8H20V10H16.2157L15.7953 14H20V16H15.5851L15.0596 21H13.0486L13.5741 16H9.58509L9.05957 21H7.04855L7.57407 16H4V14H7.78428ZM9.7953 14H13.7843L14.2047 10H10.2157L9.7953 14Z"></path></symbol><symbol viewBox="0 0 24 24" id="home-8-line"><path d="M19 21H5C4.44772 21 4 20.5523 4 20V11L1 11L11.3273 1.6115C11.7087 1.26475 12.2913 1.26475 12.6727 1.6115L23 11L20 11V20C20 20.5523 19.5523 21 19 21ZM6 19H18V9.15745L12 3.7029L6 9.15745V19ZM9 9.99998H15V16H9V9.99998ZM11 12V14H13V12H11Z"></path></symbol><symbol viewBox="0 0 24 24" id="circle-line"><path d="M12 22C6.47715 22 2 17.5228 2 12C2 6.47715 6.47715 2 12 2C17.5228 2 22 6.47715 22 12C22 17.5228 17.5228 22 12 22ZM12 20C16.4183 20 20 16.4183 20 12C20 7.58172 16.4183 4 12 4C7.58172 4 4 7.58172 4 12C4 16.4183 7.58172 20 12 20Z"></path></symbol><symbol viewBox="0 0 24 24" id="corner-down-left-line"><path d="M19.0001 13.9999L19.0002 5L17.0002 4.99997L17.0001 11.9999L6.8283 12L10.778 8.05024L9.36381 6.63603L2.99985 13L9.36381 19.364L10.778 17.9497L6.82825 14L19.0001 13.9999Z"></path></symbol><symbol viewBox="0 0 24 24" id="arrow-down-s-line"><path d="M11.9999 13.1714L16.9497 8.22168L18.3639 9.63589L11.9999 15.9999L5.63599 9.63589L7.0502 8.22168L11.9999 13.1714Z"></path></symbol><symbol viewBox="0 0 24 24" id="arrow-down-line"><path d="M13.0001 16.1716L18.3641 10.8076L19.7783 12.2218L12.0001 20L4.22192 12.2218L5.63614 10.8076L11.0001 16.1716V4H13.0001V16.1716Z"></path></symbol><symbol viewBox="0 0 24 24" id="arrow-up-line"><path d="M13.0001 7.82843V20H11.0001V7.82843L5.63614 13.1924L4.22192 11.7782L12.0001 4L19.7783 11.7782L18.3641 13.1924L13.0001 7.82843Z"></path></symbol><symbol viewBox="0 0 24 24" id="arrow-up-s-line"><path d="M11.9999 10.8284L7.0502 15.7782L5.63599 14.364L11.9999 8L18.3639 14.364L16.9497 15.7782L11.9999 10.8284Z"></path></symbol><symbol viewBox="0 0 24 24" id="close-line"><path d="M11.9997 10.5865L16.9495 5.63672L18.3637 7.05093L13.4139 12.0007L18.3637 16.9504L16.9495 18.3646L11.9997 13.4149L7.04996 18.3646L5.63574 16.9504L10.5855 12.0007L5.63574 7.05093L7.04996 5.63672L11.9997 10.5865Z"></path></symbol><symbol viewBox="0 0 24 24" id="robot-2-line"><path d="M13.5 2C13.5 2.44425 13.3069 2.84339 13 3.11805V5H18C19.6569 5 21 6.34315 21 8V18C21 19.6569 19.6569 21 18 21H6C4.34315 21 3 19.6569 3 18V8C3 6.34315 4.34315 5 6 5H11V3.11805C10.6931 2.84339 10.5 2.44425 10.5 2C10.5 1.17157 11.1716 0.5 12 0.5C12.8284 0.5 13.5 1.17157 13.5 2ZM6 7C5.44772 7 5 7.44772 5 8V18C5 18.5523 5.44772 19 6 19H18C18.5523 19 19 18.5523 19 18V8C19 7.44772 18.5523 7 18 7H13H11H6ZM2 10H0V16H2V10ZM22 10H24V16H22V10ZM9 14.5C9.82843 14.5 10.5 13.8284 10.5 13C10.5 12.1716 9.82843 11.5 9 11.5C8.17157 11.5 7.5 12.1716 7.5 13C7.5 13.8284 8.17157 14.5 9 14.5ZM15 14.5C15.8284 14.5 16.5 13.8284 16.5 13C16.5 12.1716 15.8284 11.5 15 11.5C14.1716 11.5 13.5 12.1716 13.5 13C13.5 13.8284 14.1716 14.5 15 14.5Z"></path></symbol><symbol viewBox="0 0 24 24" id="robot-3-line"><path d="M11 1V2H7C5.34315 2 4 3.34315 4 5V8C4 10.7614 6.23858 13 9 13H15C17.7614 13 20 10.7614 20 8V5C20 3.34315 18.6569 2 17 2H13V1H11ZM6 5C6 4.44772 6.44772 4 7 4H17C17.5523 4 18 4.44772 18 5V8C18 9.65685 16.6569 11 15 11H9C7.34315 11 6 9.65685 6 8V5ZM9.5 9C10.3284 9 11 8.32843 11 7.5C11 6.67157 10.3284 6 9.5 6C8.67157 6 8 6.67157 8 7.5C8 8.32843 8.67157 9 9.5 9ZM14.5 9C15.3284 9 16 8.32843 16 7.5C16 6.67157 15.3284 6 14.5 6C13.6716 6 13 6.67157 13 7.5C13 8.32843 13.6716 9 14.5 9ZM6 22C6 18.6863 8.68629 16 12 16C15.3137 16 18 18.6863 18 22H20C20 17.5817 16.4183 14 12 14C7.58172 14 4 17.5817 4 22H6Z"></path></symbol><symbol viewBox="0 0 24 24" id="robot-2-fill"><path d="M13.5 2C13.5 2.44425 13.3069 2.84339 13 3.11805V5H18C19.6569 5 21 6.34315 21 8V18C21 19.6569 19.6569 21 18 21H6C4.34315 21 3 19.6569 3 18V8C3 6.34315 4.34315 5 6 5H11V3.11805C10.6931 2.84339 10.5 2.44425 10.5 2C10.5 1.17157 11.1716 0.5 12 0.5C12.8284 0.5 13.5 1.17157 13.5 2ZM0 10H2V16H0V10ZM24 10H22V16H24V10ZM9 14.5C9.82843 14.5 10.5 13.8284 10.5 13C10.5 12.1716 9.82843 11.5 9 11.5C8.17157 11.5 7.5 12.1716 7.5 13C7.5 13.8284 8.17157 14.5 9 14.5ZM16.5 13C16.5 12.1716 15.8284 11.5 15 11.5C14.1716 11.5 13.5 12.1716 13.5 13C13.5 13.8284 14.1716 14.5 15 14.5C15.8284 14.5 16.5 13.8284 16.5 13Z"></path></symbol><symbol viewBox="0 0 24 24" id="robot-3-fill"><path d="M17 2H13V1H11V2H7C5.34315 2 4 3.34315 4 5V8C4 10.7614 6.23858 13 9 13H15C17.7614 13 20 10.7614 20 8V5C20 3.34315 18.6569 2 17 2ZM11 7.5C11 8.32843 10.3284 9 9.5 9C8.67157 9 8 8.32843 8 7.5C8 6.67157 8.67157 6 9.5 6C10.3284 6 11 6.67157 11 7.5ZM16 7.5C16 8.32843 15.3284 9 14.5 9C13.6716 9 13 8.32843 13 7.5C13 6.67157 13.6716 6 14.5 6C15.3284 6 16 6.67157 16 7.5ZM4 22C4 17.5817 7.58172 14 12 14C16.4183 14 20 17.5817 20 22H4Z"></path></symbol><symbol viewBox="0 0 24 24" id="book-2-fill"><path d="M21 18H6C5.44772 18 5 18.4477 5 19C5 19.5523 5.44772 20 6 20H21V22H6C4.34315 22 3 20.6569 3 19V4C3 2.89543 3.89543 2 5 2H21V18ZM16 9V7H8V9H16Z"></path></symbol><symbol viewBox="0 0 24 24" id="book-2-line"><path d="M21 18H6C5.44772 18 5 18.4477 5 19C5 19.5523 5.44772 20 6 20H21V22H6C4.34315 22 3 20.6569 3 19V4C3 2.89543 3.89543 2 5 2H21V18ZM5 16.05C5.16156 16.0172 5.32877 16 5.5 16H19V4H5V16.05ZM16 9H8V7H16V9Z"></path></symbol><symbol viewBox="0 0 24 24" id="book-shelf-line"><path d="M4 3C3.44772 3 3 3.44772 3 4V20C3 20.5523 3.44772 21 4 21H14C14.5523 21 15 20.5523 15 20V15.2973L15.9995 19.9996C16.1143 20.5398 16.6454 20.8847 17.1856 20.7699L21.0982 19.9382C21.6384 19.8234 21.9832 19.2924 21.8684 18.7522L18.9576 5.0581C18.8428 4.51788 18.3118 4.17304 17.7716 4.28786L14.9927 4.87853C14.9328 4.38353 14.5112 4 14 4H10C10 3.44772 9.55228 3 9 3H4ZM10 6H13V14H10V6ZM10 19V16H13V19H10ZM8 5V15H5V5H8ZM8 17V19H5V17H8ZM17.3321 16.6496L19.2884 16.2338L19.7042 18.1898L17.7479 18.6057L17.3321 16.6496ZM16.9163 14.6933L15.253 6.86789L17.2092 6.45207L18.8726 14.2775L16.9163 14.6933Z"></path></symbol><symbol viewBox="0 0 24 24" id="calendar-2-line"><path d="M9 1V3H15V1H17V3H21C21.5523 3 22 3.44772 22 4V20C22 20.5523 21.5523 21 21 21H3C2.44772 21 2 20.5523 2 20V4C2 3.44772 2.44772 3 3 3H7V1H9ZM20 11H4V19H20V11ZM8 13V15H6V13H8ZM13 13V15H11V13H13ZM18 13V15H16V13H18ZM7 5H4V9H20V5H17V7H15V5H9V7H7V5Z"></path></symbol><symbol viewBox="0 0 24 24" id="calendar-2-fill"><path d="M17 3H21C21.5523 3 22 3.44772 22 4V20C22 20.5523 21.5523 21 21 21H3C2.44772 21 2 20.5523 2 20V4C2 3.44772 2.44772 3 3 3H7V1H9V3H15V1H17V3ZM4 9V19H20V9H4ZM6 11H8V13H6V11ZM11 11H13V13H11V11ZM16 11H18V13H16V11Z"></path></symbol><symbol viewBox="0 0 24 24" id="mail-line"><path d="M3 3H21C21.5523 3 22 3.44772 22 4V20C22 20.5523 21.5523 21 21 21H3C2.44772 21 2 20.5523 2 20V4C2 3.44772 2.44772 3 3 3ZM20 7.23792L12.0718 14.338L4 7.21594V19H20V7.23792ZM4.51146 5L12.0619 11.662L19.501 5H4.51146Z"></path></symbol><symbol viewBox="0 0 24 24" id="mail-fill"><path d="M3 3H21C21.5523 3 22 3.44772 22 4V20C22 20.5523 21.5523 21 21 21H3C2.44772 21 2 20.5523 2 20V4C2 3.44772 2.44772 3 3 3ZM12.0606 11.6829L5.64722 6.2377L4.35278 7.7623L12.0731 14.3171L19.6544 7.75616L18.3456 6.24384L12.0606 11.6829Z"></path></symbol><symbol viewBox="0 0 24 24" id="send-plane-fill"><path d="M1.94619 9.31543C1.42365 9.14125 1.41953 8.86022 1.95694 8.68108L21.0431 2.31901C21.5716 2.14285 21.8747 2.43866 21.7266 2.95694L16.2734 22.0432C16.1224 22.5716 15.8178 22.59 15.5945 22.0876L12 14L18 6.00005L10 12L1.94619 9.31543Z"></path></symbol><symbol viewBox="0 0 24 24" id="send-plane-line"><path d="M21.7267 2.95694L16.2734 22.0432C16.1225 22.5716 15.7979 22.5956 15.5563 22.1126L11 13L1.9229 9.36919C1.41322 9.16532 1.41953 8.86022 1.95695 8.68108L21.0432 2.31901C21.5716 2.14285 21.8747 2.43866 21.7267 2.95694ZM19.0353 5.09647L6.81221 9.17085L12.4488 11.4255L15.4895 17.5068L19.0353 5.09647Z"></path></symbol><symbol viewBox="0 0 24 24" id="chat-1-line"><path d="M10 3H14C18.4183 3 22 6.58172 22 11C22 15.4183 18.4183 19 14 19V22.5C9 20.5 2 17.5 2 11C2 6.58172 5.58172 3 10 3ZM12 17H14C17.3137 17 20 14.3137 20 11C20 7.68629 17.3137 5 14 5H10C6.68629 5 4 7.68629 4 11C4 14.61 6.46208 16.9656 12 19.4798V17Z"></path></symbol><symbol viewBox="0 0 24 24" id="chat-1-fill"><path d="M10 3H14C18.4183 3 22 6.58172 22 11C22 15.4183 18.4183 19 14 19V22.5C9 20.5 2 17.5 2 11C2 6.58172 5.58172 3 10 3Z"></path></symbol><symbol viewBox="0 0 24 24" id="chat-voice-line"><path d="M2 12C2 6.47715 6.47715 2 12 2C17.5228 2 22 6.47715 22 12C22 17.5228 17.5228 22 12 22H2L4.92893 19.0711C3.11929 17.2614 2 14.7614 2 12ZM6.82843 20H12C16.4183 20 20 16.4183 20 12C20 7.58172 16.4183 4 12 4C7.58172 4 4 7.58172 4 12C4 14.1524 4.85124 16.1649 6.34315 17.6569L7.75736 19.0711L6.82843 20ZM11 6H13V18H11V6ZM7 9H9V15H7V9ZM15 9H17V15H15V9Z"></path></symbol><symbol viewBox="0 0 24 24" id="chat-voice-fill"><path d="M4.92893 19.0711C3.11929 17.2614 2 14.7614 2 12C2 6.47715 6.47715 2 12 2C17.5228 2 22 6.47715 22 12C22 17.5228 17.5228 22 12 22H2L4.92893 19.0711ZM11 6V18H13V6H11ZM7 9V15H9V9H7ZM15 9V15H17V9H15Z"></path></symbol><symbol viewBox="0 0 24 24" id="speak-line"><path d="M16.9337 8.96494C16.426 5.03562 13.0675 2 9 2 4.58172 2 1 5.58172 1 10 1 11.8924 1.65707 13.6313 2.7555 15.0011 3.56351 16.0087 4.00033 17.1252 4.00025 18.3061L4 22H13L13.001 19H15C16.1046 19 17 18.1046 17 17V14.071L18.9593 13.2317C19.3025 13.0847 19.3324 12.7367 19.1842 12.5037L16.9337 8.96494ZM3 10C3 6.68629 5.68629 4 9 4 12.0243 4 14.5665 6.25141 14.9501 9.22118L15.0072 9.66262 16.5497 12.0881 15 12.7519V17H11.0017L11.0007 20H6.00013L6.00025 18.3063C6.00036 16.6672 5.40965 15.114 4.31578 13.7499 3.46818 12.6929 3 11.3849 3 10ZM21.1535 18.1024 19.4893 16.9929C20.4436 15.5642 21 13.8471 21 12.0001 21 10.153 20.4436 8.4359 19.4893 7.00722L21.1535 5.89771C22.32 7.64386 23 9.74254 23 12.0001 23 14.2576 22.32 16.3562 21.1535 18.1024Z"></path></symbol><symbol viewBox="0 0 24 24" id="translate"><path d="M5 15V17C5 18.0544 5.81588 18.9182 6.85074 18.9945L7 19H10V21H7C4.79086 21 3 19.2091 3 17V15H5ZM18 10L22.4 21H20.245L19.044 18H14.954L13.755 21H11.601L16 10H18ZM17 12.8852L15.753 16H18.245L17 12.8852ZM8 2V4H12V11H8V14H6V11H2V4H6V2H8ZM17 3C19.2091 3 21 4.79086 21 7V9H19V7C19 5.89543 18.1046 5 17 5H14V3H17ZM6 6H4V9H6V6ZM10 6H8V9H10V6Z"></path></symbol><symbol viewBox="0 0 24 24" id="arrow-left-right-line"><path d="M16.0503 12.0498L21 16.9996L16.0503 21.9493L14.636 20.5351L17.172 17.9988L4 17.9996V15.9996L17.172 15.9988L14.636 13.464L16.0503 12.0498ZM7.94975 2.0498L9.36396 3.46402L6.828 5.9988L20 5.99955V7.99955L6.828 7.9988L9.36396 10.5351L7.94975 11.9493L3 6.99955L7.94975 2.0498Z"></path></symbol><symbol viewBox="0 0 24 24" id="rocket-fill"><path d="M5.33053 15.9288C5.115 14.9914 5.00054 14.0103 5.00054 12.9999C5.00054 7.91198 7.90319 3.5636 12.0005 1.81799C16.0979 3.5636 19.0005 7.91198 19.0005 12.9999C19.0005 14.0103 18.8861 14.9914 18.6706 15.9288L20.6907 17.7245C20.8704 17.8842 20.9109 18.1493 20.7872 18.3555L18.33 22.4508C18.1879 22.6876 17.8808 22.7644 17.644 22.6223C17.609 22.6013 17.5766 22.576 17.5477 22.5471L15.2934 20.2928C15.1059 20.1053 14.8515 19.9999 14.5863 19.9999H9.41476C9.14954 19.9999 8.89519 20.1053 8.70765 20.2928L6.45337 22.5471C6.2581 22.7424 5.94152 22.7424 5.74626 22.5471C5.71735 22.5182 5.6921 22.4859 5.67107 22.4508L3.21385 18.3555C3.09014 18.1493 3.13071 17.8842 3.31042 17.7245L5.33053 15.9288ZM12.0005 12.9999C13.1051 12.9999 14.0005 12.1045 14.0005 10.9999C14.0005 9.89537 13.1051 8.99994 12.0005 8.99994C10.896 8.99994 10.0005 9.89537 10.0005 10.9999C10.0005 12.1045 10.896 12.9999 12.0005 12.9999Z"></path></symbol><symbol viewBox="0 0 24 24" id="rocket-line"><path d="M4.99958 12.9999C4.99958 7.91198 7.90222 3.5636 11.9996 1.81799C16.0969 3.5636 18.9996 7.91198 18.9996 12.9999C18.9996 13.8229 18.9236 14.6264 18.779 15.4027L20.7194 17.2353C20.8845 17.3913 20.9238 17.6389 20.815 17.8383L18.3196 22.4133C18.1873 22.6557 17.8836 22.7451 17.6412 22.6128C17.5993 22.59 17.5608 22.5612 17.5271 22.5274L15.2925 20.2928C15.1049 20.1053 14.8506 19.9999 14.5854 19.9999H9.41379C9.14857 19.9999 8.89422 20.1053 8.70668 20.2928L6.47209 22.5274C6.27683 22.7227 5.96025 22.7227 5.76498 22.5274C5.73122 22.4937 5.70246 22.4552 5.67959 22.4133L3.18412 17.8383C3.07537 17.6389 3.11464 17.3913 3.27975 17.2353L5.22014 15.4027C5.07551 14.6264 4.99958 13.8229 4.99958 12.9999ZM6.47542 19.6957L7.29247 18.8786C7.85508 18.316 8.61814 17.9999 9.41379 17.9999H14.5854C15.381 17.9999 16.1441 18.316 16.7067 18.8786L17.5237 19.6957L18.5056 17.8955L17.4058 16.8568C16.9117 16.3901 16.6884 15.7045 16.8128 15.0364C16.9366 14.3722 16.9996 13.6911 16.9996 12.9999C16.9996 9.13037 15.0045 5.69965 11.9996 4.04033C8.99462 5.69965 6.99958 9.13037 6.99958 12.9999C6.99958 13.6911 7.06255 14.3722 7.18631 15.0364C7.31078 15.7045 7.08746 16.3901 6.59338 16.8568L5.49353 17.8955L6.47542 19.6957ZM11.9996 12.9999C10.895 12.9999 9.99958 12.1045 9.99958 10.9999C9.99958 9.89537 10.895 8.99994 11.9996 8.99994C13.1041 8.99994 13.9996 9.89537 13.9996 10.9999C13.9996 12.1045 13.1041 12.9999 11.9996 12.9999Z"></path></symbol><symbol viewBox="0 0 24 24" id="add-line"><path d="M11 11V5H13V11H19V13H13V19H11V13H5V11H11Z"></path></symbol><symbol viewBox="0 0 24 24" id="user-settings-line"><path d="M12 14V16C8.68629 16 6 18.6863 6 22H4C4 17.5817 7.58172 14 12 14ZM12 13C8.685 13 6 10.315 6 7C6 3.685 8.685 1 12 1C15.315 1 18 3.685 18 7C18 10.315 15.315 13 12 13ZM12 11C14.21 11 16 9.21 16 7C16 4.79 14.21 3 12 3C9.79 3 8 4.79 8 7C8 9.21 9.79 11 12 11ZM14.5946 18.8115C14.5327 18.5511 14.5 18.2794 14.5 18C14.5 17.7207 14.5327 17.449 14.5945 17.1886L13.6029 16.6161L14.6029 14.884L15.5952 15.4569C15.9883 15.0851 16.4676 14.8034 17 14.6449V13.5H19V14.6449C19.5324 14.8034 20.0116 15.0851 20.4047 15.4569L21.3971 14.8839L22.3972 16.616L21.4055 17.1885C21.4673 17.449 21.5 17.7207 21.5 18C21.5 18.2793 21.4673 18.551 21.4055 18.8114L22.3972 19.3839L21.3972 21.116L20.4048 20.543C20.0117 20.9149 19.5325 21.1966 19.0001 21.355V22.5H17.0001V21.3551C16.4677 21.1967 15.9884 20.915 15.5953 20.5431L14.603 21.1161L13.6029 19.384L14.5946 18.8115ZM18 19.5C18.8284 19.5 19.5 18.8284 19.5 18C19.5 17.1716 18.8284 16.5 18 16.5C17.1716 16.5 16.5 17.1716 16.5 18C16.5 18.8284 17.1716 19.5 18 19.5Z"></path></symbol><symbol viewBox="0 0 24 24" id="user-settings-fill"><path d="M12 14V22H4C4 17.5817 7.58172 14 12 14ZM12 13C8.685 13 6 10.315 6 7C6 3.685 8.685 1 12 1C15.315 1 18 3.685 18 7C18 10.315 15.315 13 12 13ZM14.5946 18.8115C14.5327 18.5511 14.5 18.2794 14.5 18C14.5 17.7207 14.5327 17.449 14.5945 17.1886L13.6029 16.6161L14.6029 14.884L15.5952 15.4569C15.9883 15.0851 16.4676 14.8034 17 14.6449V13.5H19V14.6449C19.5324 14.8034 20.0116 15.0851 20.4047 15.4569L21.3971 14.8839L22.3972 16.616L21.4055 17.1885C21.4673 17.449 21.5 17.7207 21.5 18C21.5 18.2793 21.4673 18.551 21.4055 18.8114L22.3972 19.3839L21.3972 21.116L20.4048 20.543C20.0117 20.9149 19.5325 21.1966 19.0001 21.355V22.5H17.0001V21.3551C16.4677 21.1967 15.9884 20.915 15.5953 20.5431L14.603 21.1161L13.6029 19.384L14.5946 18.8115ZM18 17C17.4477 17 17 17.4477 17 18C17 18.5523 17.4477 19 18 19C18.5523 19 19 18.5523 19 18C19 17.4477 18.5523 17 18 17Z"></path></symbol><symbol viewBox="0 0 24 24" id="tools-fill"><path d="M5.32943 3.27152C6.56252 2.83314 7.9923 3.10743 8.97927 4.0944C9.96652 5.08165 10.2407 6.51196 9.80178 7.74529L20.6465 18.5901L18.5252 20.7114L7.67936 9.86703C6.44627 10.3054 5.01649 10.0311 4.02952 9.04415C3.04227 8.0569 2.7681 6.62659 3.20701 5.39326L5.44373 7.62994C6.02952 8.21572 6.97927 8.21572 7.56505 7.62994C8.15084 7.04415 8.15084 6.0944 7.56505 5.50862L5.32943 3.27152ZM15.6968 5.15506L18.8788 3.38729L20.293 4.80151L18.5252 7.98349L16.7574 8.33704L14.6361 10.4584L13.2219 9.04415L15.3432 6.92283L15.6968 5.15506ZM8.62572 12.9332L10.747 15.0546L5.79729 20.0043C5.2115 20.5901 4.26175 20.5901 3.67597 20.0043C3.12464 19.453 3.09221 18.5792 3.57867 17.99L3.67597 17.883L8.62572 12.9332Z"></path></symbol><symbol viewBox="0 0 24 24" id="settings-5-fill"><path d="M2.13127 13.6308C1.9492 12.5349 1.95521 11.434 2.13216 10.3695C3.23337 10.3963 4.22374 9.86798 4.60865 8.93871C4.99357 8.00944 4.66685 6.93557 3.86926 6.17581C4.49685 5.29798 5.27105 4.51528 6.17471 3.86911C6.9345 4.66716 8.0087 4.99416 8.93822 4.60914C9.86774 4.22412 10.3961 3.23332 10.369 2.13176C11.4649 1.94969 12.5658 1.9557 13.6303 2.13265C13.6036 3.23385 14.1319 4.22422 15.0612 4.60914C15.9904 4.99406 17.0643 4.66733 17.8241 3.86975C18.7019 4.49734 19.4846 5.27153 20.1308 6.1752C19.3327 6.93499 19.0057 8.00919 19.3907 8.93871C19.7757 9.86823 20.7665 10.3966 21.8681 10.3695C22.0502 11.4654 22.0442 12.5663 21.8672 13.6308C20.766 13.6041 19.7756 14.1324 19.3907 15.0616C19.0058 15.9909 19.3325 17.0648 20.1301 17.8245C19.5025 18.7024 18.7283 19.4851 17.8247 20.1312C17.0649 19.3332 15.9907 19.0062 15.0612 19.3912C14.1316 19.7762 13.6033 20.767 13.6303 21.8686C12.5344 22.0507 11.4335 22.0447 10.3691 21.8677C10.3958 20.7665 9.86749 19.7761 8.93822 19.3912C8.00895 19.0063 6.93508 19.333 6.17532 20.1306C5.29749 19.503 4.51479 18.7288 3.86862 17.8252C4.66667 17.0654 4.99367 15.9912 4.60865 15.0616C4.22363 14.1321 3.23284 13.6038 2.13127 13.6308ZM11.9997 15.0002C13.6565 15.0002 14.9997 13.657 14.9997 12.0002C14.9997 10.3433 13.6565 9.00018 11.9997 9.00018C10.3428 9.00018 8.99969 10.3433 8.99969 12.0002C8.99969 13.657 10.3428 15.0002 11.9997 15.0002Z"></path></symbol><symbol viewBox="0 0 24 24" id="settings-5-line"><path d="M2.21232 14.0601C1.91928 12.6755 1.93115 11.2743 2.21316 9.94038C3.32308 10.0711 4.29187 9.7035 4.60865 8.93871C4.92544 8.17392 4.50032 7.22896 3.62307 6.53655C4.3669 5.3939 5.34931 4.39471 6.53554 3.62289C7.228 4.50059 8.17324 4.92601 8.93822 4.60914C9.7032 4.29227 10.0708 3.32308 9.93979 2.21281C11.3243 1.91977 12.7255 1.93164 14.0595 2.21364C13.9288 3.32356 14.2964 4.29235 15.0612 4.60914C15.8259 4.92593 16.7709 4.5008 17.4633 3.62356C18.606 4.36739 19.6052 5.3498 20.377 6.53602C19.4993 7.22849 19.0739 8.17373 19.3907 8.93871C19.7076 9.70369 20.6768 10.0713 21.7871 9.94028C22.0801 11.3248 22.0682 12.726 21.7862 14.06C20.6763 13.9293 19.7075 14.2969 19.3907 15.0616C19.0739 15.8264 19.4991 16.7714 20.3763 17.4638C19.6325 18.6064 18.6501 19.6056 17.4638 20.3775C16.7714 19.4998 15.8261 19.0743 15.0612 19.3912C14.2962 19.7081 13.9286 20.6773 14.0596 21.7875C12.675 22.0806 11.2738 22.0687 9.93989 21.7867C10.0706 20.6768 9.70301 19.708 8.93822 19.3912C8.17343 19.0744 7.22848 19.4995 6.53606 20.3768C5.39341 19.633 4.39422 18.6506 3.62241 17.4643C4.5001 16.7719 4.92552 15.8266 4.60865 15.0616C4.29179 14.2967 3.32259 13.9291 2.21232 14.0601ZM3.99975 12.2104C5.09956 12.5148 6.00718 13.2117 6.45641 14.2963C6.90564 15.3808 6.75667 16.5154 6.19421 17.5083C6.29077 17.61 6.38998 17.7092 6.49173 17.8056C7.4846 17.2432 8.61912 17.0943 9.70359 17.5435C10.7881 17.9927 11.485 18.9002 11.7894 19.9999C11.9295 20.0037 12.0697 20.0038 12.2099 20.0001C12.5143 18.9003 13.2112 17.9927 14.2958 17.5435C15.3803 17.0942 16.5149 17.2432 17.5078 17.8057C17.6096 17.7091 17.7087 17.6099 17.8051 17.5081C17.2427 16.5153 17.0938 15.3807 17.543 14.2963C17.9922 13.2118 18.8997 12.5149 19.9994 12.2105C20.0032 12.0704 20.0033 11.9301 19.9996 11.7899C18.8998 11.4856 17.9922 10.7886 17.543 9.70407C17.0937 8.61953 17.2427 7.48494 17.8052 6.49204C17.7086 6.39031 17.6094 6.2912 17.5076 6.19479C16.5148 6.75717 15.3803 6.9061 14.2958 6.4569C13.2113 6.0077 12.5144 5.10016 12.21 4.00044C12.0699 3.99666 11.9297 3.99659 11.7894 4.00024C11.4851 5.10005 10.7881 6.00767 9.70359 6.4569C8.61904 6.90613 7.48446 6.75715 6.49155 6.1947C6.38982 6.29126 6.29071 6.39047 6.19431 6.49222C6.75668 7.48509 6.90561 8.61961 6.45641 9.70407C6.00721 10.7885 5.09967 11.4855 3.99995 11.7899C3.99617 11.93 3.9961 12.0702 3.99975 12.2104ZM11.9997 15.0002C10.3428 15.0002 8.99969 13.657 8.99969 12.0002C8.99969 10.3433 10.3428 9.00018 11.9997 9.00018C13.6565 9.00018 14.9997 10.3433 14.9997 12.0002C14.9997 13.657 13.6565 15.0002 11.9997 15.0002ZM11.9997 13.0002C12.552 13.0002 12.9997 12.5525 12.9997 12.0002C12.9997 11.4479 12.552 11.0002 11.9997 11.0002C11.4474 11.0002 10.9997 11.4479 10.9997 12.0002C10.9997 12.5525 11.4474 13.0002 11.9997 13.0002Z"></path></symbol><symbol viewBox="0 0 24 24" id="code-box-fill"><path d="M3 3H21C21.5523 3 22 3.44772 22 4V20C22 20.5523 21.5523 21 21 21H3C2.44772 21 2 20.5523 2 20V4C2 3.44772 2.44772 3 3 3ZM16.4645 15.5355L20 12L16.4645 8.46447L15.0503 9.87868L17.1716 12L15.0503 14.1213L16.4645 15.5355ZM6.82843 12L8.94975 9.87868L7.53553 8.46447L4 12L7.53553 15.5355L8.94975 14.1213L6.82843 12ZM11.2443 17L14.884 7H12.7557L9.11597 17H11.2443Z"></path></symbol><symbol viewBox="0 0 24 24" id="code-box-line"><path d="M3 3H21C21.5523 3 22 3.44772 22 4V20C22 20.5523 21.5523 21 21 21H3C2.44772 21 2 20.5523 2 20V4C2 3.44772 2.44772 3 3 3ZM4 5V19H20V5H4ZM20 12L16.4645 15.5355L15.0503 14.1213L17.1716 12L15.0503 9.87868L16.4645 8.46447L20 12ZM6.82843 12L8.94975 14.1213L7.53553 15.5355L4 12L7.53553 8.46447L8.94975 9.87868L6.82843 12ZM11.2443 17H9.11597L12.7557 7H14.884L11.2443 17Z"></path></symbol><symbol viewBox="0 0 24 24" id="vuejs-fill"><path d="M1.00098 3H5.00098L12.001 15L19.001 3H23.001L12.001 22L1.00098 3ZM9.66764 3L12.001 7L14.3343 3H18.3694L12.001 14L5.63256 3H9.66764Z"></path></symbol><symbol viewBox="0 0 24 24" id="reactjs-line"><path d="M12.001 13.5001C11.1725 13.5001 10.501 12.8285 10.501 12.0001C10.501 11.1716 11.1725 10.5001 12.001 10.5001C12.8294 10.5001 13.501 11.1716 13.501 12.0001C13.501 12.8285 12.8294 13.5001 12.001 13.5001ZM11.4733 16.4945C11.6479 16.705 11.8239 16.908 12.001 17.103C12.178 16.908 12.3541 16.705 12.5286 16.4945C12.3538 16.4982 12.1779 16.5001 12.001 16.5001C11.824 16.5001 11.6481 16.4982 11.4733 16.4945ZM9.47837 16.3694C8.6762 16.2846 7.91035 16.1603 7.19268 16.0016C7.11832 16.3512 7.06134 16.6904 7.02243 17.0166C6.83358 18.6 7.09805 19.5617 7.50098 19.7943C7.9039 20.0269 8.86893 19.7751 10.1458 18.8199C10.4088 18.6231 10.6741 18.4042 10.9397 18.1649C10.4434 17.6228 9.95287 17.0217 9.47837 16.3694ZM16.8093 16.0016C16.0916 16.1603 15.3257 16.2846 14.5236 16.3694C14.0491 17.0217 13.5585 17.6228 13.0622 18.1649C13.3279 18.4042 13.5931 18.6231 13.8562 18.8199C15.133 19.7751 16.0981 20.0269 16.501 19.7943C16.9039 19.5617 17.1684 18.6 16.9795 17.0166C16.9406 16.6904 16.8836 16.3512 16.8093 16.0016ZM18.2598 15.6136C18.8364 18.2526 18.5328 20.3533 17.251 21.0933C15.9691 21.8334 13.9981 21.046 12.001 19.2271C10.0038 21.046 8.03282 21.8334 6.75098 21.0933C5.46913 20.3533 5.16555 18.2526 5.74217 15.6136C3.16842 14.7935 1.50098 13.4802 1.50098 12.0001C1.50098 10.5199 3.16842 9.20668 5.74217 8.38654C5.16555 5.74754 5.46913 3.64687 6.75098 2.9068C8.03282 2.16673 10.0038 2.95415 12.001 4.77302C13.9981 2.95415 15.9691 2.16673 17.251 2.9068C18.5328 3.64687 18.8364 5.74754 18.2598 8.38654C20.8335 9.20668 22.501 10.5199 22.501 12.0001C22.501 13.4802 20.8335 14.7935 18.2598 15.6136ZM10.9397 5.83521C10.6741 5.59597 10.4088 5.37703 10.1458 5.18024C8.86893 4.22499 7.9039 3.97321 7.50098 4.20584C7.09805 4.43847 6.83358 5.4001 7.02243 6.9835C7.06134 7.30969 7.11832 7.6489 7.19268 7.99857C7.91035 7.83985 8.6762 7.71556 9.47837 7.63078C9.95287 6.97848 10.4434 6.37737 10.9397 5.83521ZM14.5236 7.63078C15.3257 7.71556 16.0916 7.83985 16.8093 7.99857C16.8836 7.6489 16.9406 7.30969 16.9795 6.9835C17.1684 5.4001 16.9039 4.43847 16.501 4.20584C16.0981 3.97321 15.133 4.22499 13.8562 5.18024C13.5931 5.37703 13.3279 5.59597 13.0622 5.83521C13.5585 6.37737 14.0491 6.97848 14.5236 7.63078ZM12.5286 7.50565C12.3541 7.29515 12.178 7.09211 12.001 6.89711C11.8239 7.09211 11.6479 7.29515 11.4733 7.50565C11.6481 7.50194 11.824 7.50007 12.001 7.50007C12.1779 7.50007 12.3538 7.50194 12.5286 7.50565ZM8.37252 14.7042C8.28191 14.5547 8.19233 14.4033 8.10386 14.2501C8.01539 14.0968 7.92906 13.9435 7.84488 13.7903C7.74985 14.0467 7.66205 14.3007 7.58169 14.5515C7.83908 14.6074 8.10295 14.6583 8.37252 14.7042ZM10.3049 14.9377C10.8579 14.9788 11.4251 15.0001 12.001 15.0001C12.5769 15.0001 13.144 14.9788 13.697 14.9377C14.0091 14.4793 14.3111 13.9988 14.5991 13.5001C14.887 13.0013 15.1522 12.4995 15.393 12.0001C15.1522 11.5006 14.887 10.9988 14.5991 10.5001C14.3111 10.0013 14.0091 9.52081 13.697 9.06246C13.144 9.02133 12.5769 9.00007 12.001 9.00007C11.4251 9.00007 10.8579 9.02133 10.3049 9.06246C9.99283 9.52081 9.69086 10.0013 9.4029 10.5001C9.11494 10.9988 8.8498 11.5006 8.60892 12.0001C8.8498 12.4995 9.11494 13.0013 9.4029 13.5001C9.69086 13.9988 9.99283 14.4793 10.3049 14.9377ZM16.1571 10.2098C16.2521 9.9534 16.3399 9.6994 16.4203 9.44859C16.1629 9.39278 15.899 9.34182 15.6294 9.29591C15.72 9.44543 15.8096 9.59683 15.8981 9.75007C15.9866 9.9033 16.0729 10.0566 16.1571 10.2098ZM6.13143 9.83671C5.79142 9.94714 5.46917 10.0674 5.16723 10.1968C3.70154 10.825 3.00098 11.5348 3.00098 12.0001C3.00098 12.4653 3.70154 13.1752 5.16723 13.8033C5.46917 13.9327 5.79142 14.053 6.13143 14.1634C6.35281 13.4625 6.6281 12.7371 6.95576 12.0001C6.6281 11.263 6.35281 10.5376 6.13143 9.83671ZM7.58169 9.44859C7.66205 9.6994 7.74985 9.9534 7.84488 10.2098C7.92906 10.0566 8.01539 9.9033 8.10386 9.75007C8.19233 9.59683 8.28191 9.44543 8.37252 9.29591C8.10295 9.34182 7.83908 9.39278 7.58169 9.44859ZM17.8705 14.1634C18.2105 14.053 18.5328 13.9327 18.8347 13.8033C20.3004 13.1752 21.001 12.4653 21.001 12.0001C21.001 11.5348 20.3004 10.825 18.8347 10.1968C18.5328 10.0674 18.2105 9.94714 17.8705 9.83671C17.6491 10.5376 17.3739 11.263 17.0462 12.0001C17.3739 12.7371 17.6491 13.4625 17.8705 14.1634ZM16.4203 14.5515C16.3399 14.3007 16.2521 14.0467 16.1571 13.7903C16.0729 13.9435 15.9866 14.0968 15.8981 14.2501C15.8096 14.4033 15.72 14.5547 15.6294 14.7042C15.899 14.6583 16.1629 14.6074 16.4203 14.5515Z"></path></symbol><symbol viewBox="0 0 24 24" id="tailwind-css-fill"><path d="M11.9996 4.85999C8.82628 4.85999 6.84294 6.44665 6.04961 9.61999C7.23961 8.03332 8.62794 7.43832 10.2146 7.83499C11.12 8.06109 11.7666 8.71757 12.4835 9.44545C13.6507 10.6295 15.0004 12 17.9496 12C21.1229 12 23.1063 10.4133 23.8996 7.23998C22.7096 8.82665 21.3213 9.42165 19.7346 9.02499C18.8292 8.79889 18.1827 8.1424 17.4657 7.41452C16.2995 6.23047 14.9498 4.85999 11.9996 4.85999ZM6.04961 12C2.87628 12 0.892943 13.5867 0.0996094 16.76C1.28961 15.1733 2.67794 14.5783 4.26461 14.975C5.17 15.2011 5.81657 15.8576 6.53354 16.5855C7.70073 17.7695 9.05039 19.14 11.9996 19.14C15.1729 19.14 17.1563 17.5533 17.9496 14.38C16.7596 15.9667 15.3713 16.5617 13.7846 16.165C12.8792 15.9389 12.2326 15.2824 11.5157 14.5545C10.3495 13.3705 8.99982 12 6.04961 12Z"></path></symbol><symbol viewBox="0 0 24 24" id="zhihu-line"><path d="M12.3445 17.9633L10.6572 19.037L8.52534 15.687C8.0855 17.089 7.3539 18.3525 6.38696 19.5123C5.98479 19.9947 5.5676 20.4299 5.08571 20.8876C4.93103 21.0345 4.31113 21.604 4.20793 21.7072L2.79372 20.293C2.93256 20.1542 3.58085 19.5585 3.70848 19.4373C4.13828 19.0292 4.50381 18.6478 4.8508 18.2316C6.11713 16.7127 6.87997 15.0205 6.98764 13.0001H3.00082V11.0001H7.00082V7.00013H6.13284C5.44422 8.26619 4.57451 9.22211 3.51532 9.85763L2.48633 8.14264C3.88223 7.3051 4.91211 5.53959 5.52464 2.7832L7.47701 3.21706C7.33636 3.85 7.17352 4.44451 6.98811 5.00013H11.5008V7.00013H9.00082V11.0001H11.5008V13.0001H9.18613L12.3445 17.9633ZM16.1833 17.8929L17.2993 17.0001H19.0008V7.00013H15.0008V17.0001H15.7369L16.1833 17.8929ZM13.0008 5.00013H21.0008V19.0001H18.0008L15.5008 21.0001L14.5008 19.0001H13.0008V5.00013Z"></path></symbol><symbol viewBox="0 0 24 24" id="stack-overflow-line"><path d="M18.001 20.0025V15.0001H20.001V22.0025H4.00098V15.0001H6.00098V20.0025H18.001ZM7.50098 18.0001V16.0001H16.501V18.0001H7.50098ZM7.578 13.6197L7.9253 11.65L16.7886 13.2129L16.4413 15.1825L7.578 13.6197ZM9.21156 8.11608L10.2116 6.38403L18.0058 10.884L17.0058 12.6161L9.21156 8.11608ZM12.6289 3.5031L14.161 2.21753L19.9461 9.11193L18.414 10.3975L12.6289 3.5031Z"></path></symbol><symbol viewBox="0 0 24 24" id="meta-fill"><path d="M16.9197 4.5C15.0689 4.5 13.622 5.89404 12.3123 7.6649C10.5124 5.37323 9.00722 4.5 7.20593 4.5C3.53352 4.5 0.719727 9.27931 0.719727 14.3379C0.719727 17.5034 2.25116 19.5 4.81628 19.5C6.66249 19.5 7.99028 18.6296 10.3508 14.5034C10.3508 14.5034 11.3347 12.7658 12.0116 11.5689C12.2488 11.9518 12.4981 12.3639 12.7611 12.8069L13.868 14.669C16.0242 18.2772 17.2256 19.5 19.4025 19.5C21.9014 19.5 23.2921 17.4761 23.2921 14.2448C23.2921 8.94828 20.4149 4.5 16.9197 4.5ZM8.55076 13.3862C6.63697 16.3862 5.9749 17.0586 4.90938 17.0586C3.81283 17.0586 3.16111 16.0959 3.16111 14.3793C3.16111 10.7069 4.99214 6.95172 7.1749 6.95172C8.35692 6.95172 9.34471 7.63438 10.8577 9.80042C9.42105 12.0041 8.55076 13.3862 8.55076 13.3862ZM15.7737 13.0085L14.4502 10.8013C14.0921 10.2188 13.7489 9.6836 13.4177 9.19286C14.6105 7.35183 15.5944 6.43448 16.7646 6.43448C19.1956 6.43448 21.1404 10.0138 21.1404 14.4103C21.1404 16.0862 20.5915 17.0586 19.4542 17.0586C18.3641 17.0586 17.8434 16.3387 15.7737 13.0085Z"></path></symbol><symbol viewBox="0 0 24 24" id="openai-fill"><path d="M20.5624 10.1875C20.8124 9.5 20.8749 8.8125 20.8124 8.125C20.7499 7.4375 20.4999 6.75 20.1874 6.125C19.6249 5.1875 18.8124 4.4375 17.8749 4C16.8749 3.5625 15.8124 3.4375 14.7499 3.6875C14.2499 3.1875 13.6874 2.75 13.0624 2.4375C12.4374 2.125 11.6874 2 10.9999 2C9.9374 2 8.8749 2.3125 7.9999 2.9375C7.1249 3.5625 6.4999 4.4375 6.1874 5.4375C5.4374 5.625 4.8124 5.9375 4.1874 6.3125C3.6249 6.75 3.1874 7.3125 2.8124 7.875C2.24991 8.8125 2.06241 9.875 2.18741 10.9375C2.31241 12 2.7499 13 3.4374 13.8125C3.1874 14.5 3.1249 15.1875 3.1874 15.875C3.2499 16.5625 3.4999 17.25 3.8124 17.875C4.3749 18.8125 5.1874 19.5625 6.1249 20C7.1249 20.4375 8.1874 20.5625 9.2499 20.3125C9.7499 20.8125 10.3124 21.25 10.9374 21.5625C11.5624 21.875 12.3124 22 12.9999 22C14.0624 22 15.1249 21.6875 15.9999 21.0625C16.8749 20.4375 17.4999 19.5625 17.8124 18.5625C18.4999 18.4375 19.1874 18.125 19.7499 17.6875C20.3124 17.25 20.8124 16.75 21.1249 16.125C21.6874 15.1875 21.8749 14.125 21.7499 13.0625C21.6249 12 21.2499 11 20.5624 10.1875ZM13.0624 20.6875C12.0624 20.6875 11.3124 20.375 10.6249 19.8125C10.6249 19.8125 10.6874 19.75 10.7499 19.75L14.7499 17.4375C14.8749 17.375 14.9374 17.3125 14.9999 17.1875C15.0624 17.0625 15.0624 17 15.0624 16.875V11.25L16.7499 12.25V16.875C16.8124 19.0625 15.0624 20.6875 13.0624 20.6875ZM4.9999 17.25C4.5624 16.5 4.3749 15.625 4.5624 14.75C4.5624 14.75 4.6249 14.8125 4.6874 14.8125L8.6874 17.125C8.8124 17.1875 8.8749 17.1875 8.9999 17.1875C9.1249 17.1875 9.2499 17.1875 9.3124 17.125L14.1874 14.3125V16.25L10.1249 18.625C9.2499 19.125 8.2499 19.25 7.3124 19C6.3124 18.75 5.4999 18.125 4.9999 17.25ZM3.9374 8.5625C4.3749 7.8125 5.0624 7.25 5.8749 6.9375V7.0625V11.6875C5.8749 11.8125 5.8749 11.9375 5.9374 12C5.9999 12.125 6.0624 12.1875 6.1874 12.25L11.0624 15.0625L9.3749 16.0625L5.3749 13.75C4.4999 13.25 3.8749 12.4375 3.6249 11.5C3.3749 10.5625 3.4374 9.4375 3.9374 8.5625ZM17.7499 11.75L12.8749 8.9375L14.5624 7.9375L18.5624 10.25C19.1874 10.625 19.6874 11.125 19.9999 11.75C20.3124 12.375 20.4999 13.0625 20.4374 13.8125C20.3749 14.5 20.1249 15.1875 19.6874 15.75C19.2499 16.3125 18.6874 16.75 17.9999 17V12.25C17.9999 12.125 17.9999 12 17.9374 11.9375C17.9374 11.9375 17.8749 11.8125 17.7499 11.75ZM19.4374 9.25C19.4374 9.25 19.3749 9.1875 19.3124 9.1875L15.3124 6.875C15.1874 6.8125 15.1249 6.8125 14.9999 6.8125C14.8749 6.8125 14.7499 6.8125 14.6874 6.875L9.8124 9.6875V7.75L13.8749 5.375C14.4999 5 15.1874 4.875 15.9374 4.875C16.6249 4.875 17.3124 5.125 17.9374 5.5625C18.4999 6 18.9999 6.5625 19.2499 7.1875C19.4999 7.8125 19.5624 8.5625 19.4374 9.25ZM8.9374 12.75L7.2499 11.75V7.0625C7.2499 6.375 7.4374 5.625 7.8124 5.0625C8.1874 4.4375 8.7499 4 9.3749 3.6875C9.9999 3.375 10.7499 3.25 11.4374 3.375C12.1249 3.4375 12.8124 3.75 13.3749 4.1875C13.3749 4.1875 13.3124 4.25 13.2499 4.25L9.2499 6.5625C9.1249 6.625 9.0624 6.6875 8.9999 6.8125C8.9374 6.9375 8.9374 7 8.9374 7.125V12.75ZM9.8124 10.75L11.9999 9.5L14.1874 10.75V13.25L11.9999 14.5L9.8124 13.25V10.75Z"></path></symbol><symbol viewBox="0 0 24 24" id="ie-fill"><path d="M8.61295 20.1193C5.86915 21.6102 3.50024 21.9188 2.1909 20.6106C0.847101 19.2694 1.56267 15.7588 3.50394 12.2367C4.4519 10.5168 5.69213 8.79409 7.12757 7.31987C7.31507 7.13266 8.25257 6.19657 8.31507 6.19657C8.31507 6.19657 7.81507 6.5086 7.75257 6.5086C5.80254 7.60383 4.09018 9.58895 3.71617 10.0345C3.77393 9.77522 3.84289 9.52012 3.92249 9.26978C5.07865 5.63404 8.48217 3.00008 12.5009 3.00008C12.7308 3.00008 12.9586 3.0087 13.1842 3.02563C16.2787 1.62287 19.158 1.29938 20.3759 2.51465C21.5009 3.63795 21.4384 5.51011 20.5009 7.75671C20.4918 7.77847 20.4828 7.79991 20.4739 7.82104C21.1298 9.06983 21.5009 10.4916 21.5009 12.0001C21.5009 12.3794 21.4774 12.7531 21.4319 13.1201H20.6274C20.5763 13.1219 20.529 13.1227 20.4855 13.1227H8.69007V13.31C8.75173 15.3069 10.5017 17.0543 12.6267 17.0543C14.1267 17.0543 15.5642 16.243 16.1892 15.0573H20.9683C20.9608 15.0783 20.953 15.0992 20.9451 15.1201C19.6766 18.5528 16.3746 21.0001 12.5009 21.0001C11.1084 21.0001 9.7898 20.6839 8.61295 20.1193ZM8.00613 19.7991C6.1803 18.7445 4.75932 17.0672 4.03351 15.0575C2.87291 17.3392 2.57399 19.2474 3.56507 20.237C4.37757 21.0491 6.00257 20.861 8.00257 19.801L8.00613 19.7991ZM20.1728 7.29218C20.178 7.28091 20.1832 7.26962 20.1884 7.2583C20.9384 5.63576 21.0009 4.26367 20.3134 3.4524C19.4442 2.58451 17.7732 2.70192 15.7906 3.62029C17.6193 4.33877 19.1559 5.63857 20.1728 7.29218ZM16.5642 10.753V10.6906C16.4392 8.63122 14.8142 7.07108 12.8142 7.07108C10.6892 7.07108 8.87757 8.75603 8.75257 10.6906V10.753H16.5642Z"></path></symbol><symbol viewBox="0 0 24 24" id="chrome-fill"><path d="M9.82726 21.7633C5.34912 20.7712 2 16.7767 2 12C2 10.1779 2.48734 8.46958 3.33878 6.99834L7.62189 14.4169C8.47396 15.9571 10.1152 17 12 17C12.2023 17 12.4018 16.988 12.5978 16.9646L9.82726 21.7633ZM12 22L16.2868 14.5751C16.7396 13.8229 17 12.9419 17 12C17 10.8744 16.6281 9.83566 16.0004 9H21.5422C21.8396 9.94704 22 10.9548 22 12C22 17.5228 17.5228 22 12 22ZM14.5721 13.545C14.0473 14.4168 13.0917 15 12 15C10.8897 15 9.92024 14.3968 9.40149 13.5002L9.37313 13.4501C9.13535 13.0203 9 12.526 9 12C9 10.3431 10.3431 9 12 9C13.6569 9 15 10.3431 15 12C15 12.5465 14.8539 13.0589 14.5985 13.5002L14.5721 13.545ZM4.6322 5.23859C6.46008 3.24783 9.08432 2 12 2C15.7014 2 18.9331 4.01099 20.6622 7H12C9.93635 7 8.1647 8.25019 7.40112 10.0345L4.6322 5.23859Z"></path></symbol><symbol viewBox="0 0 24 24" id="baidu-fill"><path d="M5.92636 12.4965C7.98921 12.0535 7.70815 9.5883 7.64641 9.04949C7.54538 8.21882 6.56836 6.76688 5.24162 6.88173C3.57208 7.03154 3.32815 9.44324 3.32815 9.44324C3.10235 10.558 3.86869 12.9399 5.92636 12.4965ZM8.11701 16.7845C8.05656 16.9577 7.92186 17.4011 8.03843 17.787C8.26855 18.6531 9.02021 18.692 9.02021 18.692H10.1004V16.0514H8.94379C8.42397 16.2064 8.17313 16.611 8.11701 16.7845ZM9.75503 8.36259C10.8944 8.36259 11.8153 7.0514 11.8153 5.43022C11.8153 3.81076 10.8944 2.5 9.75503 2.5C8.61739 2.5 7.69433 3.81076 7.69433 5.43022C7.69433 7.0514 8.61783 8.36259 9.75503 8.36259ZM14.6622 8.55644C16.1849 8.75418 17.1641 7.12911 17.3588 5.89736C17.5574 4.66733 16.5748 3.23871 15.4967 2.99305C14.4165 2.74523 13.0678 4.47564 12.9447 5.60378C12.7979 6.98275 13.142 8.36087 14.6622 8.55644ZM14.6617 12.0039C12.7975 9.09914 10.1492 10.2812 9.26328 11.7587C8.38123 13.2356 7.00657 14.1699 6.81143 14.4173C6.61326 14.6608 3.9654 16.0903 4.55343 18.701C5.14103 21.31 7.20561 21.2604 7.20561 21.2604C7.20561 21.2604 8.72706 21.4102 10.492 21.0152C12.2578 20.6236 13.778 21.1127 13.778 21.1127C13.778 21.1127 17.9024 22.4939 19.031 19.8352C20.1582 17.1757 18.3933 15.7967 18.3933 15.7967C18.3933 15.7967 16.0373 13.9739 14.6617 12.0039ZM8.65496 19.7536C7.49703 19.5226 7.03593 18.7325 6.97765 18.5978C6.92066 18.461 6.59167 17.8259 6.76566 16.7453C7.26605 15.1262 8.69295 15.0101 8.69295 15.0101H10.1203V13.2555L11.3361 13.2741V19.7536H8.65496ZM13.2448 19.735C12.0489 19.4268 11.9932 18.5771 11.9932 18.5771V15.1651L13.2448 15.1448V18.2114C13.3212 18.5387 13.7275 18.5978 13.7275 18.5978H14.9989V15.1651H16.3304V19.735H13.2448ZM20.6983 10.6249C20.6983 10.0356 20.2087 8.26113 18.3933 8.26113C16.5748 8.26113 16.3317 9.93585 16.3317 11.1197C16.3317 12.2495 16.4271 13.8267 18.686 13.7766C20.9457 13.7265 20.6983 11.2173 20.6983 10.6249Z"></path></symbol><symbol viewBox="0 0 24 24" id="alipay-fill"><path d="M21.4224 15.3576C17.5929 14.2048 15.3667 13.5176 14.744 13.296C15.312 12.32 15.768 11.2 16.064 9.976H12.8V8.872H16.8V8.192H12.8V6.344H11.264C10.984 6.344 10.952 6.592 10.952 6.592V8.184H7.2V8.864H10.952V9.968H7.88V10.584H14.104C13.88 11.36 13.576 12.096 13.216 12.76C11.808 12.296 11.024 11.976 9.304 11.816C6.048 11.504 5.296 13.296 5.176 14.392C5 16.064 6.48 17.424 8.688 17.424C10.896 17.424 12.368 16.4 13.768 14.704C14.9346 15.2619 17.1059 16.2293 20.2819 17.6062C18.4835 20.2577 15.4452 22 12 22C6.47715 22 2 17.5228 2 12C2 6.47715 6.47715 2 12 2C17.5228 2 22 6.47715 22 12C22 13.1778 21.7964 14.3081 21.4224 15.3576ZM8.432 16.368C6.096 16.368 5.728 14.888 5.848 14.272C5.968 13.656 6.648 12.856 7.952 12.856C9.448 12.856 10.784 13.24 12.392 14.016C11.256 15.496 9.872 16.368 8.432 16.368Z"></path></symbol><symbol viewBox="0 0 24 24" id="edit-line"><path d="M6.41421 15.89L16.5563 5.74785L15.1421 4.33363L5 14.4758V15.89H6.41421ZM7.24264 17.89H3V13.6473L14.435 2.21231C14.8256 1.82179 15.4587 1.82179 15.8492 2.21231L18.6777 5.04074C19.0682 5.43126 19.0682 6.06443 18.6777 6.45495L7.24264 17.89ZM3 19.89H21V21.89H3V19.89Z"></path></symbol><symbol viewBox="0 0 24 24" id="edit-fill"><path d="M7.24264 17.9967H3V13.754L14.435 2.319C14.8256 1.92848 15.4587 1.92848 15.8492 2.319L18.6777 5.14743C19.0682 5.53795 19.0682 6.17112 18.6777 6.56164L7.24264 17.9967ZM3 19.9967H21V21.9967H3V19.9967Z"></path></symbol><symbol viewBox="0 0 24 24" id="delete-bin-line"><path d="M17 6H22V8H20V21C20 21.5523 19.5523 22 19 22H5C4.44772 22 4 21.5523 4 21V8H2V6H7V3C7 2.44772 7.44772 2 8 2H16C16.5523 2 17 2.44772 17 3V6ZM18 8H6V20H18V8ZM9 11H11V17H9V11ZM13 11H15V17H13V11ZM9 4V6H15V4H9Z"></path></symbol><symbol viewBox="0 0 24 24" id="menu-fold-line"><path d="M21 17.9995V19.9995H3V17.9995H21ZM6.59619 3.90332L8.01041 5.31753L4.82843 8.49951L8.01041 11.6815L6.59619 13.0957L2 8.49951L6.59619 3.90332ZM21 10.9995V12.9995H12V10.9995H21ZM21 3.99951V5.99951H12V3.99951H21Z"></path></symbol><symbol viewBox="0 0 24 24" id="menu-unfold-line"><path d="M21 17.9995V19.9995H3V17.9995H21ZM17.4038 3.90332L22 8.49951L17.4038 13.0957L15.9896 11.6815L19.1716 8.49951L15.9896 5.31753L17.4038 3.90332ZM12 10.9995V12.9995H3V10.9995H12ZM12 3.99951V5.99951H3V3.99951H12Z"></path></symbol><symbol viewBox="0 0 24 24" id="menu-line"><path d="M3 4H21V6H3V4ZM3 11H21V13H3V11ZM3 18H21V20H3V18Z"></path></symbol><symbol viewBox="0 0 24 24" id="volume-up-line"><path d="M6.60282 10.0001L10 7.22056V16.7796L6.60282 14.0001H3V10.0001H6.60282ZM2 16.0001H5.88889L11.1834 20.3319C11.2727 20.405 11.3846 20.4449 11.5 20.4449C11.7761 20.4449 12 20.2211 12 19.9449V4.05519C12 3.93977 11.9601 3.8279 11.887 3.73857C11.7121 3.52485 11.3971 3.49335 11.1834 3.66821L5.88889 8.00007H2C1.44772 8.00007 1 8.44778 1 9.00007V15.0001C1 15.5524 1.44772 16.0001 2 16.0001ZM23 12C23 15.292 21.5539 18.2463 19.2622 20.2622L17.8445 18.8444C19.7758 17.1937 21 14.7398 21 12C21 9.26016 19.7758 6.80629 17.8445 5.15557L19.2622 3.73779C21.5539 5.75368 23 8.70795 23 12ZM18 12C18 10.0883 17.106 8.38548 15.7133 7.28673L14.2842 8.71584C15.3213 9.43855 16 10.64 16 12C16 13.36 15.3213 14.5614 14.2842 15.2841L15.7133 16.7132C17.106 15.6145 18 13.9116 18 12Z"></path></symbol><symbol viewBox="0 0 24 24" id="volume-down-line"><path d="M13 7.22049L9.60282 10H6V14H9.60282L13 16.7795V7.22049ZM8.88889 16H5C4.44772 16 4 15.5523 4 15V9.00001C4 8.44772 4.44772 8.00001 5 8.00001H8.88889L14.1834 3.66815C14.3971 3.49329 14.7121 3.52479 14.887 3.73851C14.9601 3.82784 15 3.93971 15 4.05513V19.9449C15 20.221 14.7761 20.4449 14.5 20.4449C14.3846 20.4449 14.2727 20.405 14.1834 20.3319L8.88889 16ZM18.8631 16.5911L17.4411 15.169C18.3892 14.4376 19 13.2901 19 12C19 10.5697 18.2493 9.31469 17.1203 8.6076L18.5589 7.169C20.0396 8.2616 21 10.0187 21 12C21 13.8422 20.1698 15.4904 18.8631 16.5911Z"></path></symbol><symbol viewBox="0 0 24 24" id="file-copy-2-line"><path d="M6.9998 6V3C6.9998 2.44772 7.44752 2 7.9998 2H19.9998C20.5521 2 20.9998 2.44772 20.9998 3V17C20.9998 17.5523 20.5521 18 19.9998 18H16.9998V20.9991C16.9998 21.5519 16.5499 22 15.993 22H4.00666C3.45059 22 3 21.5554 3 20.9991L3.0026 7.00087C3.0027 6.44811 3.45264 6 4.00942 6H6.9998ZM5.00242 8L5.00019 20H14.9998V8H5.00242ZM8.9998 6H16.9998V16H18.9998V4H8.9998V6ZM7 11H13V13H7V11ZM7 15H13V17H7V15Z"></path></symbol><symbol viewBox="0 0 24 24" id="clipboard-line"><path d="M7 4V2H17V4H20.0066C20.5552 4 21 4.44495 21 4.9934V21.0066C21 21.5552 20.5551 22 20.0066 22H3.9934C3.44476 22 3 21.5551 3 21.0066V4.9934C3 4.44476 3.44495 4 3.9934 4H7ZM7 6H5V20H19V6H17V8H7V6ZM9 4V6H15V4H9Z"></path></symbol><symbol viewBox="0 0 24 24" id="javascript-line"><path d="M13.3344 16.055 12.4764 17.243C13.2904 17.969 14.3024 18.332 15.5124 18.332 16.4364 18.31 17.1404 18.0717 17.6244 17.617 18.1157 17.155 18.3614 16.605 18.3614 15.967 18.3614 15.3437 18.1891 14.8303 17.8444 14.427 17.4997 14.0237 16.9204 13.701 16.1064 13.459 15.4317 13.2537 14.9551 13.0667 14.6764 12.898 14.3977 12.722 14.2584 12.5093 14.2584 12.26 14.2584 12.0327 14.3721 11.8493 14.5994 11.71 14.8267 11.5707 15.1311 11.501 15.5124 11.501 15.7911 11.501 16.1064 11.556 16.4584 11.666 16.8104 11.7613 17.1221 11.9153 17.3934 12.128L18.1634 10.929C17.4887 10.3863 16.5941 10.115 15.4794 10.115 14.6801 10.115 14.0237 10.3203 13.5104 10.731 12.9824 11.1417 12.7184 11.6513 12.7184 12.26 12.7257 12.9053 12.9384 13.4077 13.3564 13.767 13.7817 14.1263 14.3867 14.4197 15.1714 14.647 15.8241 14.8523 16.2677 15.0577 16.5024 15.263 16.7297 15.4683 16.8434 15.7177 16.8434 16.011 16.8434 16.297 16.7297 16.517 16.5024 16.671 16.2677 16.8323 15.9304 16.913 15.4904 16.913 14.7717 16.9203 14.0531 16.6343 13.3344 16.055ZM7.80405 16.693C7.58405 16.561 7.37872 16.3667 7.18805 16.11L6.15405 16.957C6.46205 17.4777 6.84339 17.8407 7.29805 18.046 7.72339 18.2367 8.21105 18.332 8.76105 18.332 9.06172 18.332 9.37339 18.2843 9.69605 18.189 10.0187 18.0937 10.3157 17.9323 10.5871 17.705 11.0637 17.3237 11.3131 16.7003 11.3351 15.835V10.247H9.85005V15.549C9.85005 16.055 9.73639 16.4107 9.50905 16.616 9.28172 16.814 8.99572 16.913 8.65105 16.913 8.32105 16.913 8.03872 16.8397 7.80405 16.693ZM3 6C3 4.34315 4.34315 3 6 3H18C19.6569 3 21 4.34315 21 6V18C21 19.6569 19.6569 21 18 21H6C4.34315 21 3 19.6569 3 18V6ZM6 5C5.44772 5 5 5.44772 5 6V18C5 18.5523 5.44772 19 6 19H18C18.5523 19 19 18.5523 19 18V6C19 5.44772 18.5523 5 18 5H6Z"></path></symbol><symbol viewBox="0 0 24 24" id="javascript-fill"><path d="M6 3C4.34315 3 3 4.34315 3 6V18C3 19.6569 4.34315 21 6 21H18C19.6569 21 21 19.6569 21 18V6C21 4.34315 19.6569 3 18 3H6ZM13.3344 16.055C14.0531 16.6343 14.7717 16.9203 15.4904 16.913C15.9304 16.913 16.2677 16.8323 16.5024 16.671C16.7297 16.517 16.8434 16.297 16.8434 16.011C16.8434 15.7177 16.7297 15.4683 16.5024 15.263C16.2677 15.0577 15.8241 14.8523 15.1714 14.647C14.3867 14.4197 13.7817 14.1263 13.3564 13.767C12.9384 13.4077 12.7257 12.9053 12.7184 12.26C12.7184 11.6513 12.9824 11.1417 13.5104 10.731C14.0237 10.3203 14.6801 10.115 15.4794 10.115C16.5941 10.115 17.4887 10.3863 18.1634 10.929L17.3934 12.128C17.1221 11.9153 16.8104 11.7613 16.4584 11.666C16.1064 11.556 15.7911 11.501 15.5124 11.501C15.1311 11.501 14.8267 11.5707 14.5994 11.71C14.3721 11.8493 14.2584 12.0327 14.2584 12.26C14.2584 12.5093 14.3977 12.722 14.6764 12.898C14.9551 13.0667 15.4317 13.2537 16.1064 13.459C16.9204 13.701 17.4997 14.0237 17.8444 14.427C18.1891 14.8303 18.3614 15.3437 18.3614 15.967C18.3614 16.605 18.1157 17.155 17.6244 17.617C17.1404 18.0717 16.4364 18.31 15.5124 18.332C14.3024 18.332 13.2904 17.969 12.4764 17.243L13.3344 16.055ZM7.80405 16.693C8.03872 16.8397 8.32105 16.913 8.65105 16.913C8.99572 16.913 9.28172 16.814 9.50905 16.616C9.73639 16.4107 9.85005 16.055 9.85005 15.549V10.247H11.3351V15.835C11.3131 16.7003 11.0637 17.3237 10.5871 17.705C10.3157 17.9323 10.0187 18.0937 9.69605 18.189C9.37339 18.2843 9.06172 18.332 8.76105 18.332C8.21105 18.332 7.72339 18.2367 7.29805 18.046C6.84339 17.8407 6.46205 17.4777 6.15405 16.957L7.18805 16.11C7.37872 16.3667 7.58405 16.561 7.80405 16.693Z"></path></symbol><symbol viewBox="0 0 24 24" id="user-voice-line"><path d="M1 22C1 17.5817 4.58172 14 9 14C13.4183 14 17 17.5817 17 22H15C15 18.6863 12.3137 16 9 16C5.68629 16 3 18.6863 3 22H1ZM9 13C5.685 13 3 10.315 3 7.00002C3 3.68502 5.685 1.00002 9 1.00002C12.315 1.00002 15 3.68502 15 7.00002C15 10.315 12.315 13 9 13ZM9 11C11.21 11 13 9.21002 13 7.00002C13 4.79002 11.21 3.00002 9 3.00002C6.79 3.00002 5 4.79002 5 7.00002C5 9.21002 6.79 11 9 11ZM21.5476 0.783569C22.4773 2.65651 23 4.76723 23 7.00002C23 9.23281 22.4773 11.3435 21.5476 13.2165L19.9027 12.0201C20.6071 10.4928 21 8.79231 21 7.00002C21 5.20772 20.6071 3.5072 19.9027 1.9799L21.5476 0.783569ZM18.2463 3.18451C18.732 4.36026 19 5.64884 19 7.00002C19 8.35119 18.732 9.63977 18.2463 10.8155L16.5694 9.59595C16.8485 8.78194 17 7.90867 17 7.00002C17 6.09136 16.8485 5.21809 16.5694 4.40408L18.2463 3.18451Z"></path></symbol><symbol viewBox="0 0 24 24" id="user-voice-fill"><path d="M1 22C1 17.5817 4.58172 14 9 14C13.4183 14 17 17.5817 17 22H1ZM9 13C5.685 13 3 10.315 3 7.00002C3 3.68502 5.685 1.00002 9 1.00002C12.315 1.00002 15 3.68502 15 7.00002C15 10.315 12.315 13 9 13ZM18.2463 3.18451C18.732 4.36026 19 5.64884 19 7.00002C19 8.35119 18.732 9.63977 18.2463 10.8155L16.5694 9.59595C16.8485 8.78194 17 7.90867 17 7.00002C17 6.09136 16.8485 5.21809 16.5694 4.40408L18.2463 3.18451ZM21.5476 0.783569C22.4773 2.65651 23 4.76723 23 7.00002C23 9.23281 22.4773 11.3435 21.5476 13.2165L19.9027 12.0201C20.6071 10.4928 21 8.79231 21 7.00002C21 5.20772 20.6071 3.5072 19.9027 1.9799L21.5476 0.783569Z"></path></symbol><symbol viewBox="0 0 24 24" id="user-smile-line"><path d="M12 22C6.47715 22 2 17.5228 2 12C2 6.47715 6.47715 2 12 2C17.5228 2 22 6.47715 22 12C22 17.5228 17.5228 22 12 22ZM12 20C16.4183 20 20 16.4183 20 12C20 7.58172 16.4183 4 12 4C7.58172 4 4 7.58172 4 12C4 16.4183 7.58172 20 12 20ZM7 12H9C9 13.6569 10.3431 15 12 15C13.6569 15 15 13.6569 15 12H17C17 14.7614 14.7614 17 12 17C9.23858 17 7 14.7614 7 12Z"></path></symbol><symbol viewBox="0 0 24 24" id="user-2-line"><path d="M4 22C4 17.5817 7.58172 14 12 14C16.4183 14 20 17.5817 20 22H4ZM13 16.083V20H17.6586C16.9423 17.9735 15.1684 16.4467 13 16.083ZM11 20V16.083C8.83165 16.4467 7.05766 17.9735 6.34141 20H11ZM12 13C8.685 13 6 10.315 6 7C6 3.685 8.685 1 12 1C15.315 1 18 3.685 18 7C18 10.315 15.315 13 12 13ZM12 11C14.2104 11 16 9.21043 16 7C16 4.78957 14.2104 3 12 3C9.78957 3 8 4.78957 8 7C8 9.21043 9.78957 11 12 11Z"></path></symbol><symbol viewBox="0 0 24 24" id="user-2-fill"><path d="M11 14.0619V20H13V14.0619C16.9463 14.554 20 17.9204 20 22H4C4 17.9204 7.05369 14.554 11 14.0619ZM12 13C8.685 13 6 10.315 6 7C6 3.685 8.685 1 12 1C15.315 1 18 3.685 18 7C18 10.315 15.315 13 12 13Z"></path></symbol></svg>